<?xml version="1.0" encoding="UTF-8"?>
<svg id="g" data-name="legend" xmlns="http://www.w3.org/2000/svg" viewBox="0 0 646.25 530.25">
  <circle cx="244.84" cy="253.52" r="37.06" style="fill: none; stroke: #d1d3d3; stroke-dasharray: 0 0 6 5; stroke-linecap: round;"/>
  <circle cx="244.84" cy="253.52" r="74.13" style="fill: none; stroke: #d1d3d3; stroke-dasharray: 0 0 6 5; stroke-linecap: round;"/>
  <circle cx="244.84" cy="253.52" r="111.19" style="fill: none; stroke: #d1d3d3; stroke-dasharray: 0 0 6 5; stroke-linecap: round;"/>
  <circle cx="244.84" cy="253.52" r="148.26" style="fill: none; stroke: #d1d3d3; stroke-dasharray: 0 0 6 5; stroke-linecap: round;"/>
  <path d="M244.84,105.26l131.42,105.56-50.14,153.31-153-11.89-11.31-125.69,83.03-121.28Z" style="fill: #3e908a;"/>
  <path d="M244.84,105.26l131.42,105.56-50.14,153.31-153-11.89-11.31-125.69,83.03-121.28Z" style="fill: #3e908a;"/>
  <path d="M244.84,105.26l92.78,118.11-5.64,150.09-158.6-21.59,32.19-111.11,39.27-135.5Z" style="fill: none; stroke: #021e1e; stroke-width: 1.25px;"/>
  <g>
    <line x1="244.84" y1="253.52" x2="244.84" y2="105.26" style="fill: none; stroke: #f9ffff; stroke-width: 2px;"/>
    <line x1="244.84" y1="253.52" x2="385.85" y2="207.7" style="fill: none; stroke: #f9ffff; stroke-width: 2px;"/>
    <line x1="244.84" y1="253.52" x2="331.99" y2="373.46" style="fill: none; stroke: #f9ffff; stroke-width: 2px;"/>
    <line x1="244.84" y1="253.52" x2="157.7" y2="373.46" style="fill: none; stroke: #f9ffff; stroke-width: 2px;"/>
    <line x1="244.84" y1="253.52" x2="103.84" y2="207.7" style="fill: none; stroke: #f9ffff; stroke-width: 2px;"/>
  </g>
  <text transform="translate(237.49 70.75)" style="font-family: Inter-Regular, Inter; font-size: 21px; font-variation-settings: &apos;wght&apos; 400, &apos;slnt&apos; 0; isolation: isolate;"><tspan x="0" y="0">E</tspan></text>
  <text transform="translate(420.27 202.88)" style="font-family: Inter-Regular, Inter; font-size: 21px; font-variation-settings: &apos;wght&apos; 400, &apos;slnt&apos; 0; isolation: isolate;"><tspan x="0" y="0">I</tspan></text>
  <text transform="translate(345.98 418.08)" style="font-family: Inter-Regular, Inter; font-size: 21px; font-variation-settings: &apos;wght&apos; 400, &apos;slnt&apos; 0; isolation: isolate;"><tspan x="0" y="0">W</tspan></text>
  <text transform="translate(123.49 408.27)" style="font-family: Inter-Regular, Inter; font-size: 21px; font-variation-settings: &apos;wght&apos; 400, &apos;slnt&apos; 0; isolation: isolate;"><tspan x="0" y="0">L</tspan></text>
  <text transform="translate(58 197.88)" style="font-family: Inter-Regular, Inter; font-size: 21px; font-variation-settings: &apos;wght&apos; 400, &apos;slnt&apos; 0; isolation: isolate;"><tspan x="0" y="0">A</tspan></text>
  <circle cx="399.95" cy="203.12" r="4.9" style="fill: #059799; stroke: #059799; stroke-width: 2px;"/>
  <circle cx="340.7" cy="385.46" r="4.9" style="fill: none; stroke: #e27d5f; stroke-width: 2px;"/>
  <circle cx="89.74" cy="203.12" r="4.9" style="fill: #059799; stroke: #059799; stroke-width: 2px;"/>
  <text transform="translate(442.62 251.61)" style="font-family: Inter-Regular, Inter; font-size: 21px; font-variation-settings: &apos;wght&apos; 400, &apos;slnt&apos; 0;"><tspan x="0" y="0">L</tspan><tspan x="11.81" y="0" style="letter-spacing: -.02em;">e</tspan><tspan x="23.68" y="0" style="letter-spacing: -.02em;">v</tspan><tspan x="34.96" y="0">el in 2020</tspan></text>
  <text transform="translate(442.62 288.34)" style="font-family: Inter-Regular, Inter; font-size: 21px; font-variation-settings: &apos;wght&apos; 400, &apos;slnt&apos; 0;"><tspan x="0" y="0">L</tspan><tspan x="11.81" y="0" style="letter-spacing: -.02em;">e</tspan><tspan x="23.68" y="0" style="letter-spacing: -.02em;">v</tspan><tspan x="34.96" y="0">el in 2010</tspan></text>
  <line x1="380.85" y1="215.54" x2="433.54" y2="243.72" style="fill: none; stroke: #021e1e; stroke-linecap: round; stroke-width: 2px;"/>
  <line x1="344.09" y1="229.01" x2="433.54" y2="280.48" style="fill: none; stroke: #021e1e; stroke-linecap: round; stroke-width: 2px;"/>
</svg>