<?xml version="1.0" encoding="UTF-8"?>
<svg id="f" data-name="legend" xmlns="http://www.w3.org/2000/svg" viewBox="0 0 646.25 530.25">
  <circle cx="244.84" cy="253.52" r="37.06" style="fill: none; stroke: #d1d3d3; stroke-dasharray: 0 0 6 5; stroke-linecap: round;"/>
  <circle cx="244.84" cy="253.52" r="74.13" style="fill: none; stroke: #d1d3d3; stroke-dasharray: 0 0 6 5; stroke-linecap: round;"/>
  <circle cx="244.84" cy="253.52" r="111.19" style="fill: none; stroke: #d1d3d3; stroke-dasharray: 0 0 6 5; stroke-linecap: round;"/>
  <circle cx="244.84" cy="253.52" r="148.26" style="fill: none; stroke: #d1d3d3; stroke-dasharray: 0 0 6 5; stroke-linecap: round;"/>
  <path d="M244.84,105.26l131.42,105.56-50.14,153.31-153-11.89-11.31-125.69,83.03-121.28Z" style="fill: #3e908a;"/>
  <path d="M244.84,105.26l131.42,105.56-50.14,153.31-153-11.89-11.31-125.69,83.03-121.28Z" style="fill: #059799;"/>
  <path d="M244.84,105.26l92.78,118.11-5.64,150.09-158.6-21.59,32.19-111.11,39.27-135.5Z" style="fill: none; stroke: #021e1e; stroke-width: 1.25px;"/>
  <g>
    <line x1="244.84" y1="253.52" x2="244.84" y2="105.26" style="fill: none; stroke: #f9ffff; stroke-width: 2px;"/>
    <line x1="244.84" y1="253.52" x2="385.85" y2="207.7" style="fill: none; stroke: #f9ffff; stroke-width: 2px;"/>
    <line x1="244.84" y1="253.52" x2="331.99" y2="373.46" style="fill: none; stroke: #f9ffff; stroke-width: 2px;"/>
    <line x1="244.84" y1="253.52" x2="157.7" y2="373.46" style="fill: none; stroke: #f9ffff; stroke-width: 2px;"/>
    <line x1="244.84" y1="253.52" x2="103.84" y2="207.7" style="fill: none; stroke: #f9ffff; stroke-width: 2px;"/>
  </g>
  <g style="isolation: isolate;">
    <path d="M239.34,70.75v-15.27h9.22v1.64h-7.37v5.16h6.89v1.64h-6.89v5.19h7.49v1.64h-9.34Z"/>
  </g>
  <g style="isolation: isolate;">
    <path d="M423.96,187.6v15.27h-1.85v-15.27h1.85Z"/>
  </g>
  <g style="isolation: isolate;">
    <path d="M350.61,418.07l-4.18-15.27h1.88l3.19,12.44h.15l3.25-12.44h2.09l3.25,12.44h.15l3.19-12.44h1.88l-4.18,15.27h-1.91l-3.37-12.17h-.12l-3.37,12.17h-1.91Z"/>
  </g>
  <g style="isolation: isolate;">
    <path d="M125.34,408.27v-15.27h1.85v13.63h7.1v1.64h-8.95Z"/>
  </g>
  <g style="isolation: isolate;">
    <path d="M60.48,197.88h-1.94l5.61-15.27h1.91l5.61,15.27h-1.94l-4.56-12.86h-.12l-4.56,12.86Zm.72-5.97h7.82v1.64h-7.82v-1.64Z"/>
  </g>
  <circle cx="399.95" cy="203.12" r="4.9" style="fill: #059799; stroke: #059799; stroke-width: 2px;"/>
  <circle cx="340.7" cy="385.46" r="4.9" style="fill: none; stroke: #ac2c5a; stroke-width: 2px;"/>
  <circle cx="89.74" cy="203.12" r="4.9" style="fill: #059799; stroke: #059799; stroke-width: 2px;"/>
  <g>
    <path d="M444.47,251.61v-15.27h1.85v13.63h7.1v1.64h-8.95Z"/>
    <path d="M460.85,251.85c-1.1,0-2.05-.25-2.85-.73-.8-.49-1.41-1.18-1.84-2.06-.43-.88-.65-1.91-.65-3.08s.22-2.21,.65-3.11,1.03-1.6,1.8-2.1,1.68-.76,2.71-.76c.6,0,1.19,.1,1.77,.3,.58,.2,1.11,.52,1.59,.97,.48,.45,.86,1.03,1.14,1.76,.28,.73,.42,1.63,.42,2.7v.75h-8.83v-1.52h7.04c0-.65-.13-1.22-.38-1.73-.26-.51-.62-.91-1.09-1.2-.47-.29-1.02-.44-1.66-.44-.7,0-1.31,.17-1.82,.52-.51,.35-.9,.79-1.17,1.35-.27,.55-.41,1.14-.41,1.77v1.01c0,.86,.15,1.6,.45,2.2,.3,.6,.72,1.05,1.26,1.36,.54,.31,1.16,.47,1.87,.47,.46,0,.88-.07,1.26-.2,.38-.13,.7-.33,.97-.6,.27-.27,.48-.6,.63-1l1.7,.48c-.18,.58-.48,1.08-.9,1.52-.42,.44-.94,.77-1.57,1.01-.62,.24-1.32,.36-2.1,.36Z"/>
    <path d="M477.29,240.15l-4.24,11.45h-1.79l-4.24-11.45h1.91l3.16,9.13h.12l3.16-9.13h1.91Z"/>
    <path d="M484,251.85c-1.1,0-2.05-.25-2.85-.73-.8-.49-1.41-1.18-1.84-2.06-.43-.88-.65-1.91-.65-3.08s.21-2.21,.65-3.11c.43-.9,1.03-1.6,1.8-2.1,.77-.5,1.68-.76,2.71-.76,.6,0,1.19,.1,1.77,.3,.58,.2,1.11,.52,1.59,.97,.48,.45,.86,1.03,1.14,1.76,.28,.73,.43,1.63,.43,2.7v.75h-8.83v-1.52h7.04c0-.65-.13-1.22-.38-1.73-.26-.51-.62-.91-1.09-1.2-.47-.29-1.02-.44-1.66-.44-.7,0-1.31,.17-1.82,.52s-.9,.79-1.17,1.35c-.27,.55-.41,1.14-.41,1.77v1.01c0,.86,.15,1.6,.45,2.2,.3,.6,.72,1.05,1.26,1.36,.54,.31,1.16,.47,1.87,.47,.46,0,.88-.07,1.26-.2,.38-.13,.7-.33,.97-.6,.27-.27,.48-.6,.63-1l1.7,.48c-.18,.58-.48,1.08-.9,1.52-.42,.44-.94,.77-1.57,1.01-.62,.24-1.32,.36-2.1,.36Z"/>
    <path d="M493.19,236.33v15.27h-1.76v-15.27h1.76Z"/>
    <path d="M503.21,238.24c-.34,0-.64-.12-.88-.35-.25-.23-.37-.51-.37-.84s.12-.61,.37-.84,.54-.35,.88-.35,.64,.12,.88,.35,.37,.51,.37,.84-.12,.61-.37,.84c-.25,.23-.54,.35-.88,.35Zm-.89,13.36v-11.45h1.76v11.45h-1.76Z"/>
    <path d="M509.05,244.72v6.89h-1.76v-11.45h1.7v1.79h.15c.27-.58,.68-1.05,1.22-1.41s1.25-.53,2.12-.53c.78,0,1.45,.16,2.04,.47,.58,.32,1.03,.79,1.36,1.43,.32,.64,.48,1.45,.48,2.42v7.28h-1.76v-7.16c0-.9-.23-1.6-.7-2.11-.47-.5-1.11-.76-1.92-.76-.56,0-1.06,.12-1.5,.37s-.79,.6-1.04,1.07-.38,1.03-.38,1.7Z"/>
    <path d="M525.46,251.61v-1.34l5.04-5.52c.59-.65,1.08-1.21,1.46-1.69,.38-.48,.67-.93,.85-1.36,.19-.42,.28-.87,.28-1.34,0-.54-.13-1-.38-1.39-.26-.39-.61-.7-1.05-.91-.44-.21-.94-.32-1.49-.32-.59,0-1.1,.12-1.53,.36-.44,.24-.77,.58-1.01,1.01s-.35,.94-.35,1.52h-1.76c0-.9,.21-1.68,.62-2.36,.41-.68,.98-1.2,1.69-1.58,.71-.38,1.51-.57,2.4-.57s1.69,.19,2.38,.57c.69,.38,1.23,.89,1.63,1.53,.39,.64,.59,1.35,.59,2.14,0,.56-.1,1.11-.3,1.64-.2,.53-.55,1.13-1.04,1.78-.49,.65-1.18,1.45-2.05,2.39l-3.43,3.67v.12h7.1v1.64h-9.64Z"/>
    <path d="M543.15,251.82c-1.12,0-2.08-.31-2.87-.92-.79-.61-1.39-1.51-1.81-2.68-.42-1.17-.63-2.59-.63-4.25s.21-3.06,.63-4.23c.42-1.17,1.03-2.07,1.82-2.68,.79-.62,1.75-.93,2.86-.93s2.07,.31,2.86,.93c.79,.62,1.4,1.51,1.82,2.68,.42,1.17,.63,2.58,.63,4.23s-.21,3.08-.63,4.25c-.42,1.17-1.02,2.06-1.81,2.68-.79,.61-1.75,.92-2.87,.92Zm0-1.64c1.11,0,1.98-.54,2.6-1.61,.62-1.07,.92-2.6,.92-4.59,0-1.32-.14-2.45-.42-3.38-.28-.93-.68-1.64-1.21-2.13-.52-.49-1.15-.73-1.89-.73-1.1,0-1.97,.54-2.59,1.63-.62,1.09-.93,2.62-.93,4.6,0,1.32,.14,2.45,.42,3.37s.68,1.63,1.2,2.11c.52,.48,1.16,.72,1.9,.72Z"/>
    <path d="M551.29,251.61v-1.34l5.04-5.52c.59-.65,1.08-1.21,1.46-1.69,.38-.48,.67-.93,.85-1.36,.19-.42,.28-.87,.28-1.34,0-.54-.13-1-.38-1.39s-.61-.7-1.05-.91c-.44-.21-.94-.32-1.49-.32-.59,0-1.1,.12-1.53,.36-.44,.24-.77,.58-1.01,1.01-.24,.43-.35,.94-.35,1.52h-1.76c0-.9,.21-1.68,.62-2.36,.41-.68,.98-1.2,1.69-1.58,.71-.38,1.52-.57,2.4-.57s1.69,.19,2.38,.57c.69,.38,1.23,.89,1.63,1.53,.39,.64,.59,1.35,.59,2.14,0,.56-.1,1.11-.3,1.64-.2,.53-.55,1.13-1.04,1.78-.49,.65-1.18,1.45-2.05,2.39l-3.43,3.67v.12h7.1v1.64h-9.63Z"/>
    <path d="M568.98,251.82c-1.12,0-2.08-.31-2.87-.92-.79-.61-1.39-1.51-1.81-2.68-.42-1.17-.63-2.59-.63-4.25s.21-3.06,.63-4.23c.42-1.17,1.03-2.07,1.82-2.68,.79-.62,1.75-.93,2.86-.93s2.07,.31,2.86,.93c.79,.62,1.4,1.51,1.82,2.68,.42,1.17,.63,2.58,.63,4.23s-.21,3.08-.63,4.25c-.42,1.17-1.02,2.06-1.81,2.68-.79,.61-1.75,.92-2.87,.92Zm0-1.64c1.11,0,1.98-.54,2.6-1.61,.62-1.07,.92-2.6,.92-4.59,0-1.32-.14-2.45-.42-3.38s-.68-1.64-1.21-2.13c-.52-.49-1.15-.73-1.89-.73-1.1,0-1.97,.54-2.59,1.63s-.93,2.62-.93,4.6c0,1.32,.14,2.45,.42,3.37,.28,.92,.68,1.63,1.2,2.11,.52,.48,1.16,.72,1.9,.72Z"/>
  </g>
  <g>
    <path d="M444.47,288.34v-15.27h1.85v13.63h7.1v1.64h-8.95Z"/>
    <path d="M460.85,288.58c-1.1,0-2.05-.25-2.85-.73-.8-.49-1.41-1.18-1.84-2.06-.43-.88-.65-1.91-.65-3.08s.22-2.21,.65-3.11,1.03-1.6,1.8-2.1,1.68-.76,2.71-.76c.6,0,1.19,.1,1.77,.3,.58,.2,1.11,.52,1.59,.97,.48,.45,.86,1.03,1.14,1.76,.28,.73,.42,1.63,.42,2.7v.75h-8.83v-1.52h7.04c0-.65-.13-1.22-.38-1.73-.26-.51-.62-.91-1.09-1.2-.47-.29-1.02-.44-1.66-.44-.7,0-1.31,.17-1.82,.52-.51,.35-.9,.79-1.17,1.35-.27,.55-.41,1.14-.41,1.77v1.01c0,.86,.15,1.6,.45,2.2,.3,.6,.72,1.05,1.26,1.36,.54,.31,1.16,.47,1.87,.47,.46,0,.88-.07,1.26-.2,.38-.13,.7-.33,.97-.6,.27-.27,.48-.6,.63-1l1.7,.48c-.18,.58-.48,1.08-.9,1.52-.42,.44-.94,.77-1.57,1.01-.62,.24-1.32,.36-2.1,.36Z"/>
    <path d="M477.29,276.89l-4.24,11.45h-1.79l-4.24-11.45h1.91l3.16,9.13h.12l3.16-9.13h1.91Z"/>
    <path d="M484,288.58c-1.1,0-2.05-.25-2.85-.73-.8-.49-1.41-1.18-1.84-2.06-.43-.88-.65-1.91-.65-3.08s.21-2.21,.65-3.11c.43-.9,1.03-1.6,1.8-2.1,.77-.5,1.68-.76,2.71-.76,.6,0,1.19,.1,1.77,.3,.58,.2,1.11,.52,1.59,.97,.48,.45,.86,1.03,1.14,1.76,.28,.73,.43,1.63,.43,2.7v.75h-8.83v-1.52h7.04c0-.65-.13-1.22-.38-1.73-.26-.51-.62-.91-1.09-1.2-.47-.29-1.02-.44-1.66-.44-.7,0-1.31,.17-1.82,.52s-.9,.79-1.17,1.35c-.27,.55-.41,1.14-.41,1.77v1.01c0,.86,.15,1.6,.45,2.2,.3,.6,.72,1.05,1.26,1.36,.54,.31,1.16,.47,1.87,.47,.46,0,.88-.07,1.26-.2,.38-.13,.7-.33,.97-.6,.27-.27,.48-.6,.63-1l1.7,.48c-.18,.58-.48,1.08-.9,1.52-.42,.44-.94,.77-1.57,1.01-.62,.24-1.32,.36-2.1,.36Z"/>
    <path d="M493.19,273.07v15.27h-1.76v-15.27h1.76Z"/>
    <path d="M503.21,274.98c-.34,0-.64-.12-.88-.35-.25-.23-.37-.51-.37-.84s.12-.61,.37-.84,.54-.35,.88-.35,.64,.12,.88,.35,.37,.51,.37,.84-.12,.61-.37,.84c-.25,.23-.54,.35-.88,.35Zm-.89,13.36v-11.45h1.76v11.45h-1.76Z"/>
    <path d="M509.05,281.45v6.89h-1.76v-11.45h1.7v1.79h.15c.27-.58,.68-1.05,1.22-1.41s1.25-.53,2.12-.53c.78,0,1.45,.16,2.04,.47,.58,.32,1.03,.79,1.36,1.43,.32,.64,.48,1.45,.48,2.42v7.28h-1.76v-7.16c0-.9-.23-1.6-.7-2.11-.47-.5-1.11-.76-1.92-.76-.56,0-1.06,.12-1.5,.37s-.79,.6-1.04,1.07-.38,1.03-.38,1.7Z"/>
    <path d="M525.46,288.34v-1.34l5.04-5.52c.59-.65,1.08-1.21,1.46-1.69,.38-.48,.67-.93,.85-1.36,.19-.42,.28-.87,.28-1.34,0-.54-.13-1-.38-1.39-.26-.39-.61-.7-1.05-.91-.44-.21-.94-.32-1.49-.32-.59,0-1.1,.12-1.53,.36-.44,.24-.77,.58-1.01,1.01s-.35,.94-.35,1.52h-1.76c0-.9,.21-1.68,.62-2.36,.41-.68,.98-1.2,1.69-1.58,.71-.38,1.51-.57,2.4-.57s1.69,.19,2.38,.57c.69,.38,1.23,.89,1.63,1.53,.39,.64,.59,1.35,.59,2.14,0,.56-.1,1.11-.3,1.64-.2,.53-.55,1.13-1.04,1.78-.49,.65-1.18,1.45-2.05,2.39l-3.43,3.67v.12h7.1v1.64h-9.64Z"/>
    <path d="M543.15,288.55c-1.12,0-2.08-.31-2.87-.92-.79-.61-1.39-1.51-1.81-2.68-.42-1.17-.63-2.59-.63-4.25s.21-3.06,.63-4.23c.42-1.17,1.03-2.07,1.82-2.68,.79-.62,1.75-.93,2.86-.93s2.07,.31,2.86,.93c.79,.62,1.4,1.51,1.82,2.68,.42,1.17,.63,2.58,.63,4.23s-.21,3.08-.63,4.25c-.42,1.17-1.02,2.06-1.81,2.68-.79,.61-1.75,.92-2.87,.92Zm0-1.64c1.11,0,1.98-.54,2.6-1.61,.62-1.07,.92-2.6,.92-4.59,0-1.32-.14-2.45-.42-3.38-.28-.93-.68-1.64-1.21-2.13-.52-.49-1.15-.73-1.89-.73-1.1,0-1.97,.54-2.59,1.63-.62,1.09-.93,2.62-.93,4.6,0,1.32,.14,2.45,.42,3.37s.68,1.63,1.2,2.11c.52,.48,1.16,.72,1.9,.72Z"/>
    <path d="M556.66,273.07v15.27h-1.85v-13.33h-.09l-3.73,2.48v-1.88l3.82-2.54h1.85Z"/>
    <path d="M566.03,288.55c-1.12,0-2.08-.31-2.87-.92-.79-.61-1.39-1.51-1.81-2.68-.42-1.17-.63-2.59-.63-4.25s.21-3.06,.63-4.23c.42-1.17,1.03-2.07,1.82-2.68,.79-.62,1.75-.93,2.86-.93s2.07,.31,2.86,.93c.79,.62,1.4,1.51,1.82,2.68,.42,1.17,.63,2.58,.63,4.23s-.21,3.08-.63,4.25c-.42,1.17-1.02,2.06-1.81,2.68-.79,.61-1.75,.92-2.87,.92Zm0-1.64c1.11,0,1.98-.54,2.6-1.61,.62-1.07,.92-2.6,.92-4.59,0-1.32-.14-2.45-.42-3.38s-.68-1.64-1.21-2.13c-.52-.49-1.15-.73-1.89-.73-1.1,0-1.97,.54-2.59,1.63s-.93,2.62-.93,4.6c0,1.32,.14,2.45,.42,3.37,.28,.92,.68,1.63,1.2,2.11,.52,.48,1.16,.72,1.9,.72Z"/>
  </g>
  <line x1="380.85" y1="215.54" x2="433.54" y2="243.72" style="fill: none; stroke: #021e1e; stroke-linecap: round; stroke-width: 2px;"/>
  <line x1="344.09" y1="229.01" x2="433.54" y2="280.48" style="fill: none; stroke: #021e1e; stroke-linecap: round; stroke-width: 2px;"/>
</svg>