<?xml version="1.0" encoding="UTF-8"?>
<svg id="f" data-name="legend" xmlns="http://www.w3.org/2000/svg" viewBox="0 0 646.25 464.25">
  <circle cx="295.46" cy="253.52" r="37.06" style="fill: none; stroke: #d1d3d3; stroke-dasharray: 0 0 6 5; stroke-linecap: round;"/>
  <circle cx="295.46" cy="253.52" r="74.13" style="fill: none; stroke: #d1d3d3; stroke-dasharray: 0 0 6 5; stroke-linecap: round;"/>
  <circle cx="295.46" cy="253.52" r="111.19" style="fill: none; stroke: #d1d3d3; stroke-dasharray: 0 0 6 5; stroke-linecap: round;"/>
  <circle cx="295.46" cy="253.52" r="148.26" style="fill: none; stroke: #d1d3d3; stroke-dasharray: 0 0 6 5; stroke-linecap: round;"/>
  <path d="M295.46,105.26l131.42,105.56-50.14,153.31-153-11.89-11.31-125.69,83.03-121.28Z" style="fill: #3e908a;"/>
  <path d="M295.46,105.26l131.42,105.56-50.14,153.31-153-11.89-11.31-125.69,83.03-121.28Z" style="fill: #059799;"/>
  <path d="M295.46,105.26l92.78,118.11-5.64,150.09-158.6-21.59,32.19-111.11,39.27-135.5Z" style="fill: none; stroke: #021e1e; stroke-width: 1.25px;"/>
  <g>
    <line x1="295.46" y1="253.52" x2="295.46" y2="105.26" style="fill: none; stroke: #f9ffff; stroke-width: 2px;"/>
    <line x1="295.46" y1="253.52" x2="436.46" y2="207.7" style="fill: none; stroke: #f9ffff; stroke-width: 2px;"/>
    <line x1="295.46" y1="253.52" x2="382.6" y2="373.46" style="fill: none; stroke: #f9ffff; stroke-width: 2px;"/>
    <line x1="295.46" y1="253.52" x2="208.32" y2="373.46" style="fill: none; stroke: #f9ffff; stroke-width: 2px;"/>
    <line x1="295.46" y1="253.52" x2="154.46" y2="207.7" style="fill: none; stroke: #f9ffff; stroke-width: 2px;"/>
  </g>
  <g style="isolation: isolate;">
    <path d="M235.97,70.75v-15.27h9.22v1.64h-7.37v5.16h6.89v1.64h-6.89v5.19h7.49v1.64h-9.34Z"/>
    <path d="M249.57,62.36c-.37,0-.68-.13-.95-.4-.26-.26-.4-.58-.4-.95s.13-.68,.4-.95c.26-.26,.58-.4,.95-.4s.68,.13,.95,.4c.26,.26,.4,.58,.4,.95,0,.24-.06,.47-.18,.67-.12,.2-.28,.37-.48,.49-.2,.12-.43,.18-.68,.18Zm0,8.5c-.37,0-.68-.13-.95-.4-.26-.26-.4-.58-.4-.95s.13-.68,.4-.95c.26-.26,.58-.4,.95-.4s.68,.13,.95,.4c.26,.26,.4,.58,.4,.95,0,.24-.06,.47-.18,.67-.12,.2-.28,.37-.48,.49-.2,.12-.43,.18-.68,.18Z"/>
    <path d="M260.22,70.75v-15.27h9.22v1.64h-7.37v5.16h6.89v1.64h-6.89v5.19h7.49v1.64h-9.34Z"/>
    <path d="M274.3,55.47v15.27h-1.76v-15.27h1.76Z"/>
    <path d="M282.32,70.98c-1.1,0-2.05-.25-2.85-.73-.8-.49-1.41-1.18-1.84-2.06-.43-.88-.65-1.91-.65-3.08s.22-2.21,.65-3.11c.43-.9,1.03-1.6,1.8-2.1,.77-.5,1.68-.76,2.71-.76,.6,0,1.19,.1,1.77,.3,.58,.2,1.11,.52,1.59,.97,.48,.45,.86,1.03,1.14,1.76,.28,.73,.43,1.63,.43,2.7v.75h-8.83v-1.52h7.04c0-.65-.13-1.22-.38-1.73-.26-.51-.62-.91-1.09-1.2-.47-.29-1.02-.44-1.66-.44-.7,0-1.31,.17-1.82,.52s-.9,.79-1.17,1.35c-.27,.55-.41,1.14-.41,1.77v1.01c0,.86,.15,1.6,.45,2.2,.3,.6,.72,1.05,1.26,1.36,.54,.31,1.16,.47,1.87,.47,.46,0,.88-.07,1.26-.2,.38-.13,.7-.33,.97-.6,.27-.27,.48-.6,.63-1l1.7,.48c-.18,.58-.48,1.08-.9,1.52s-.94,.77-1.57,1.01-1.32,.36-2.1,.36Z"/>
    <path d="M294.4,70.98c-1.07,0-2-.25-2.77-.76-.78-.51-1.37-1.21-1.79-2.1-.42-.89-.63-1.91-.63-3.05s.22-2.19,.65-3.08c.43-.89,1.03-1.59,1.8-2.1,.77-.5,1.68-.76,2.71-.76,.81,0,1.53,.15,2.18,.45,.65,.3,1.18,.72,1.59,1.25,.41,.54,.67,1.16,.77,1.88h-1.76c-.13-.52-.43-.99-.89-1.39-.46-.41-1.08-.61-1.85-.61-.69,0-1.29,.18-1.8,.53-.51,.36-.92,.86-1.2,1.5-.29,.64-.43,1.4-.43,2.26s.14,1.66,.42,2.31,.68,1.17,1.19,1.53,1.12,.54,1.82,.54c.46,0,.87-.08,1.25-.24,.37-.16,.69-.39,.95-.69,.26-.3,.44-.66,.55-1.07h1.76c-.1,.68-.34,1.28-.73,1.82s-.91,.97-1.54,1.28c-.64,.32-1.38,.47-2.23,.47Z"/>
    <path d="M306.45,59.29v1.49h-5.94v-1.49h5.94Zm-4.21-2.74h1.76v10.92c0,.5,.07,.87,.22,1.11s.34,.41,.57,.49c.23,.08,.48,.12,.73,.12,.19,0,.35-.01,.48-.03,.12-.02,.22-.04,.3-.06l.36,1.58c-.12,.04-.29,.09-.5,.14-.21,.05-.48,.07-.81,.07-.5,0-.98-.11-1.46-.32-.47-.21-.87-.54-1.18-.98s-.47-.99-.47-1.66v-11.39Z"/>
    <path d="M309.11,70.75v-11.45h1.7v1.73h.12c.21-.57,.59-1.03,1.13-1.38,.55-.35,1.16-.53,1.85-.53,.13,0,.29,0,.48,0s.34,.01,.44,.02v1.79c-.06-.01-.2-.04-.41-.07-.21-.03-.43-.05-.67-.05-.56,0-1.05,.12-1.49,.35-.44,.23-.78,.55-1.03,.95s-.38,.87-.38,1.38v7.25h-1.76Z"/>
    <path d="M317.82,57.38c-.34,0-.64-.12-.88-.35-.25-.23-.37-.51-.37-.84s.12-.61,.37-.84,.54-.35,.88-.35,.64,.12,.88,.35,.37,.51,.37,.84-.12,.61-.37,.84c-.25,.23-.54,.35-.88,.35Zm-.89,13.36v-11.45h1.76v11.45h-1.76Z"/>
    <path d="M326.56,70.98c-1.07,0-2-.25-2.77-.76-.78-.51-1.37-1.21-1.79-2.1-.42-.89-.63-1.91-.63-3.05s.21-2.19,.65-3.08c.43-.89,1.03-1.59,1.8-2.1s1.68-.76,2.71-.76c.81,0,1.53,.15,2.18,.45s1.18,.72,1.59,1.25c.41,.54,.67,1.16,.77,1.88h-1.76c-.13-.52-.43-.99-.89-1.39s-1.08-.61-1.85-.61c-.69,0-1.29,.18-1.8,.53-.51,.36-.91,.86-1.2,1.5-.29,.64-.43,1.4-.43,2.26s.14,1.66,.42,2.31c.28,.66,.68,1.17,1.19,1.53s1.12,.54,1.82,.54c.46,0,.87-.08,1.25-.24s.69-.39,.95-.69c.26-.3,.44-.66,.55-1.07h1.76c-.1,.68-.34,1.28-.73,1.82-.39,.54-.9,.97-1.54,1.28-.64,.32-1.38,.47-2.23,.47Z"/>
    <path d="M334.52,57.38c-.34,0-.64-.12-.88-.35-.25-.23-.37-.51-.37-.84s.12-.61,.37-.84,.54-.35,.88-.35,.64,.12,.88,.35,.37,.51,.37,.84-.12,.61-.37,.84c-.25,.23-.54,.35-.88,.35Zm-.9,13.36v-11.45h1.76v11.45h-1.76Z"/>
    <path d="M343.59,59.29v1.49h-5.94v-1.49h5.94Zm-4.21-2.74h1.76v10.92c0,.5,.07,.87,.22,1.11,.15,.25,.34,.41,.57,.49,.23,.08,.48,.12,.73,.12,.19,0,.35-.01,.48-.03,.12-.02,.22-.04,.3-.06l.36,1.58c-.12,.04-.29,.09-.5,.14-.21,.05-.48,.07-.81,.07-.5,0-.98-.11-1.46-.32-.47-.21-.87-.54-1.18-.98-.31-.44-.47-.99-.47-1.66v-11.39Z"/>
    <path d="M347.38,75.04c-.3,0-.56-.02-.8-.07s-.4-.09-.48-.14l.45-1.55c.43,.11,.81,.15,1.13,.12s.62-.18,.88-.44c.26-.26,.49-.68,.7-1.26l.33-.9-4.24-11.51h1.91l3.16,9.13h.12l3.16-9.13h1.91l-4.86,13.12c-.22,.59-.49,1.08-.81,1.47-.32,.39-.7,.68-1.12,.87s-.9,.28-1.44,.28Z"/>
  </g>
  <g style="isolation: isolate;">
    <path d="M474.58,187.6v15.27h-1.85v-15.27h1.85Z"/>
    <path d="M479.32,194.49c-.37,0-.68-.13-.95-.4-.26-.26-.4-.58-.4-.95s.13-.68,.4-.95c.26-.26,.58-.4,.95-.4s.68,.13,.95,.4c.26,.26,.4,.58,.4,.95,0,.24-.06,.47-.18,.67-.12,.2-.28,.37-.48,.49-.2,.12-.43,.18-.68,.18Zm0,8.5c-.37,0-.68-.13-.95-.4-.26-.26-.4-.58-.4-.95s.13-.68,.4-.95c.26-.26,.58-.4,.95-.4s.68,.13,.95,.4c.26,.26,.4,.58,.4,.95,0,.24-.06,.47-.18,.67-.12,.2-.28,.37-.48,.49-.2,.12-.43,.18-.68,.18Z"/>
    <path d="M491.82,187.6v15.27h-1.85v-15.27h1.85Z"/>
    <path d="M497.04,195.98v6.89h-1.76v-11.45h1.7v1.79h.15c.27-.58,.68-1.05,1.22-1.41,.55-.36,1.25-.53,2.12-.53,.78,0,1.45,.16,2.04,.47,.58,.32,1.03,.79,1.36,1.43s.48,1.45,.48,2.42v7.28h-1.76v-7.16c0-.9-.23-1.6-.7-2.11-.47-.5-1.11-.76-1.92-.76-.56,0-1.06,.12-1.5,.37s-.79,.6-1.04,1.07-.38,1.03-.38,1.7Z"/>
    <path d="M512.55,191.42v1.49h-5.94v-1.49h5.94Zm-4.21-2.74h1.76v10.92c0,.5,.07,.87,.22,1.11,.15,.25,.34,.41,.57,.49s.48,.12,.73,.12c.19,0,.35-.01,.48-.03,.12-.02,.22-.04,.3-.06l.36,1.58c-.12,.04-.29,.09-.5,.14-.21,.05-.48,.07-.81,.07-.5,0-.98-.11-1.46-.32-.47-.21-.87-.54-1.18-.98-.31-.44-.47-.99-.47-1.66v-11.39Z"/>
    <path d="M519.89,203.11c-1.1,0-2.05-.25-2.85-.73-.8-.49-1.41-1.18-1.84-2.06-.43-.88-.65-1.91-.65-3.08s.21-2.21,.65-3.11c.43-.9,1.03-1.6,1.8-2.1,.77-.5,1.68-.76,2.71-.76,.6,0,1.19,.1,1.77,.3,.58,.2,1.11,.52,1.59,.97,.48,.45,.86,1.03,1.14,1.76,.28,.73,.43,1.63,.43,2.7v.75h-8.83v-1.52h7.04c0-.65-.13-1.22-.38-1.73-.26-.51-.62-.91-1.09-1.2-.47-.29-1.02-.44-1.66-.44-.7,0-1.31,.17-1.82,.52s-.9,.79-1.17,1.35c-.27,.55-.41,1.14-.41,1.77v1.01c0,.86,.15,1.6,.45,2.2,.3,.6,.72,1.05,1.26,1.36,.54,.31,1.16,.47,1.87,.47,.46,0,.88-.07,1.26-.2,.38-.13,.7-.33,.97-.6,.27-.27,.48-.6,.63-1l1.7,.48c-.18,.58-.48,1.08-.9,1.52-.42,.44-.94,.77-1.57,1.01-.62,.24-1.32,.36-2.1,.36Z"/>
    <path d="M527.32,202.88v-11.45h1.7v1.73h.12c.21-.57,.59-1.03,1.13-1.38,.55-.35,1.16-.53,1.85-.53,.13,0,.29,0,.48,0s.34,.01,.44,.02v1.79c-.06-.01-.2-.04-.41-.07-.21-.03-.43-.05-.67-.05-.56,0-1.05,.12-1.49,.35-.44,.23-.78,.55-1.03,.95s-.38,.87-.38,1.38v7.25h-1.76Z"/>
    <path d="M536.89,195.98v6.89h-1.76v-11.45h1.7v1.79h.15c.27-.58,.68-1.05,1.22-1.41s1.25-.53,2.12-.53c.78,0,1.45,.16,2.04,.47,.58,.32,1.03,.79,1.36,1.43,.32,.64,.48,1.45,.48,2.42v7.28h-1.76v-7.16c0-.9-.23-1.6-.7-2.11-.47-.5-1.11-.76-1.92-.76-.56,0-1.06,.12-1.5,.37s-.79,.6-1.04,1.07-.38,1.03-.38,1.7Z"/>
    <path d="M552.22,203.11c-1.1,0-2.05-.25-2.85-.73-.8-.49-1.41-1.18-1.84-2.06-.43-.88-.65-1.91-.65-3.08s.22-2.21,.65-3.11c.43-.9,1.03-1.6,1.8-2.1,.77-.5,1.68-.76,2.71-.76,.6,0,1.19,.1,1.77,.3,.58,.2,1.11,.52,1.59,.97,.48,.45,.86,1.03,1.14,1.76,.28,.73,.43,1.63,.43,2.7v.75h-8.83v-1.52h7.04c0-.65-.13-1.22-.38-1.73-.26-.51-.62-.91-1.09-1.2-.47-.29-1.02-.44-1.66-.44-.7,0-1.31,.17-1.82,.52s-.9,.79-1.17,1.35c-.27,.55-.41,1.14-.41,1.77v1.01c0,.86,.15,1.6,.45,2.2,.3,.6,.72,1.05,1.26,1.36,.54,.31,1.16,.47,1.87,.47,.46,0,.88-.07,1.26-.2,.38-.13,.7-.33,.97-.6,.27-.27,.48-.6,.63-1l1.7,.48c-.18,.58-.48,1.08-.9,1.52s-.94,.77-1.57,1.01-1.32,.36-2.1,.36Z"/>
    <path d="M564.63,191.42v1.49h-5.94v-1.49h5.94Zm-4.21-2.74h1.76v10.92c0,.5,.07,.87,.22,1.11,.15,.25,.34,.41,.57,.49,.23,.08,.48,.12,.73,.12,.19,0,.35-.01,.48-.03,.12-.02,.22-.04,.3-.06l.36,1.58c-.12,.04-.29,.09-.5,.14-.21,.05-.48,.07-.81,.07-.5,0-.98-.11-1.46-.32-.47-.21-.87-.54-1.18-.98-.31-.44-.47-.99-.47-1.66v-11.39Z"/>
  </g>
  <g style="isolation: isolate;">
    <path d="M401.22,418.07l-4.18-15.27h1.88l3.19,12.44h.15l3.25-12.44h2.09l3.25,12.44h.15l3.19-12.44h1.88l-4.18,15.27h-1.91l-3.37-12.17h-.12l-3.37,12.17h-1.91Z"/>
    <path d="M418.34,409.69c-.37,0-.68-.13-.95-.4-.26-.26-.4-.58-.4-.95s.13-.68,.4-.95c.26-.26,.58-.4,.95-.4s.68,.13,.95,.4c.26,.26,.4,.58,.4,.95,0,.24-.06,.47-.18,.67-.12,.2-.28,.37-.48,.49-.2,.12-.43,.18-.68,.18Zm0,8.5c-.37,0-.68-.13-.95-.4-.26-.26-.4-.58-.4-.95s.13-.68,.4-.95c.26-.26,.58-.4,.95-.4s.68,.13,.95,.4c.26,.26,.4,.58,.4,.95,0,.24-.06,.47-.18,.67-.12,.2-.28,.37-.48,.49-.2,.12-.43,.18-.68,.18Z"/>
    <path d="M431.77,418.07l-4.18-15.27h1.88l3.19,12.44h.15l3.25-12.44h2.09l3.25,12.44h.15l3.19-12.44h1.88l-4.18,15.27h-1.91l-3.37-12.17h-.12l-3.37,12.17h-1.91Z"/>
    <path d="M450.98,418.34c-.73,0-1.38-.14-1.98-.41-.59-.28-1.06-.68-1.41-1.2-.35-.52-.52-1.16-.52-1.91,0-.66,.13-1.19,.39-1.6s.6-.73,1.04-.97c.43-.23,.91-.41,1.44-.53,.52-.12,1.05-.21,1.58-.28,.7-.09,1.26-.16,1.7-.21s.75-.13,.95-.24c.2-.11,.3-.31,.3-.6v-.06c0-.74-.2-1.31-.6-1.71-.4-.41-1.01-.61-1.82-.61s-1.5,.18-1.98,.55c-.48,.37-.81,.76-1.01,1.18l-1.67-.6c.3-.7,.7-1.24,1.2-1.63s1.05-.66,1.64-.82c.59-.16,1.18-.23,1.76-.23,.37,0,.79,.04,1.27,.13,.48,.09,.94,.26,1.39,.53,.45,.27,.82,.67,1.12,1.22,.3,.54,.45,1.27,.45,2.18v7.55h-1.76v-1.55h-.09c-.12,.25-.32,.51-.6,.8-.28,.28-.65,.52-1.11,.72s-1.03,.3-1.69,.3Zm.27-1.58c.7,0,1.28-.14,1.76-.41,.48-.27,.84-.63,1.09-1.06s.37-.89,.37-1.36v-1.61c-.07,.09-.24,.17-.49,.24-.25,.07-.54,.13-.86,.19-.33,.05-.64,.1-.95,.13-.31,.04-.55,.07-.74,.09-.46,.06-.88,.16-1.28,.29-.4,.13-.71,.33-.95,.59-.24,.26-.36,.62-.36,1.06,0,.61,.23,1.07,.68,1.38,.46,.31,1.03,.47,1.73,.47Z"/>
    <path d="M464.43,406.62v1.49h-5.94v-1.49h5.94Zm-4.21-2.74h1.76v10.92c0,.5,.07,.87,.22,1.11,.15,.25,.34,.41,.57,.49,.23,.08,.48,.12,.73,.12,.19,0,.35-.01,.48-.03,.12-.02,.22-.04,.3-.06l.36,1.58c-.12,.04-.29,.09-.5,.14-.21,.05-.48,.07-.81,.07-.5,0-.98-.11-1.46-.32-.47-.21-.87-.54-1.18-.98-.31-.44-.47-.99-.47-1.66v-11.39Z"/>
    <path d="M471.77,418.31c-1.1,0-2.05-.25-2.85-.73-.8-.49-1.41-1.18-1.84-2.06-.43-.88-.65-1.91-.65-3.08s.22-2.21,.65-3.11c.43-.9,1.03-1.6,1.8-2.1,.77-.5,1.68-.76,2.71-.76,.6,0,1.19,.1,1.77,.3,.58,.2,1.11,.52,1.59,.97,.48,.45,.86,1.03,1.14,1.76,.28,.73,.43,1.63,.43,2.7v.75h-8.83v-1.52h7.04c0-.65-.13-1.22-.38-1.73-.26-.51-.62-.91-1.09-1.2-.47-.29-1.02-.44-1.66-.44-.7,0-1.31,.17-1.82,.52s-.9,.79-1.17,1.35c-.27,.55-.41,1.14-.41,1.77v1.01c0,.86,.15,1.6,.45,2.2,.3,.6,.72,1.05,1.26,1.36,.54,.31,1.16,.47,1.87,.47,.46,0,.88-.07,1.26-.2,.38-.13,.7-.33,.97-.6,.27-.27,.48-.6,.63-1l1.7,.48c-.18,.58-.48,1.08-.9,1.52s-.94,.77-1.57,1.01-1.32,.36-2.1,.36Z"/>
    <path d="M479.19,418.07v-11.45h1.7v1.73h.12c.21-.57,.59-1.03,1.13-1.38s1.16-.53,1.85-.53c.13,0,.29,0,.48,0s.34,.01,.44,.02v1.79c-.06-.01-.19-.04-.41-.07s-.43-.05-.67-.05c-.56,0-1.05,.12-1.49,.35-.44,.23-.78,.55-1.03,.95-.25,.41-.38,.87-.38,1.38v7.25h-1.76Z"/>
  </g>
  <g style="isolation: isolate;">
    <path d="M64.22,422.27v-15.27h1.85v13.63h7.1v1.64h-8.95Z"/>
    <path d="M77.08,413.89c-.37,0-.68-.13-.95-.4s-.4-.58-.4-.95,.13-.68,.4-.95,.58-.4,.95-.4,.68,.13,.95,.4c.26,.26,.4,.58,.4,.95,0,.24-.06,.47-.18,.67-.12,.2-.28,.37-.48,.49-.2,.12-.43,.18-.67,.18Zm0,8.5c-.37,0-.68-.13-.95-.4s-.4-.58-.4-.95,.13-.68,.4-.95c.26-.26,.58-.4,.95-.4s.68,.13,.95,.4,.4,.58,.4,.95c0,.24-.06,.47-.18,.67-.12,.2-.28,.37-.48,.49-.2,.12-.43,.18-.67,.18Z"/>
    <path d="M87.72,422.27v-15.27h1.85v13.63h7.1v1.64h-8.95Z"/>
    <path d="M100.19,408.91c-.34,0-.64-.12-.88-.35-.25-.23-.37-.51-.37-.84s.12-.61,.37-.84,.54-.35,.88-.35,.64,.12,.88,.35,.37,.51,.37,.84-.12,.61-.37,.84c-.25,.23-.54,.35-.88,.35Zm-.89,13.36v-11.45h1.76v11.45h-1.76Z"/>
    <path d="M109.38,410.82v1.49h-6.17v-1.49h6.17Zm-4.33,11.45v-13.04c0-.66,.15-1.2,.46-1.64,.31-.44,.71-.77,1.2-.98s1.01-.33,1.56-.33c.43,0,.79,.04,1.06,.1,.27,.07,.48,.13,.61,.19l-.51,1.52c-.09-.03-.21-.07-.37-.11-.16-.04-.36-.07-.62-.07-.58,0-1,.15-1.26,.44-.26,.29-.38,.72-.38,1.29v12.62h-1.76Z"/>
    <path d="M116.18,422.51c-1.1,0-2.05-.25-2.85-.73-.8-.49-1.41-1.18-1.84-2.06-.43-.88-.65-1.91-.65-3.08s.21-2.21,.65-3.11c.43-.9,1.03-1.6,1.8-2.1,.77-.5,1.68-.76,2.71-.76,.6,0,1.19,.1,1.77,.3,.58,.2,1.11,.52,1.59,.97,.48,.45,.86,1.03,1.14,1.76,.28,.73,.43,1.63,.43,2.7v.75h-8.83v-1.52h7.04c0-.65-.13-1.22-.38-1.73-.26-.51-.62-.91-1.09-1.2-.47-.29-1.02-.44-1.66-.44-.7,0-1.31,.17-1.82,.52s-.9,.79-1.17,1.35c-.27,.55-.41,1.14-.41,1.77v1.01c0,.86,.15,1.6,.45,2.2,.3,.6,.72,1.05,1.26,1.36,.54,.31,1.16,.47,1.87,.47,.46,0,.88-.07,1.26-.2,.38-.13,.7-.33,.97-.6,.27-.27,.48-.6,.63-1l1.7,.48c-.18,.58-.48,1.08-.9,1.52-.42,.44-.94,.77-1.57,1.01-.62,.24-1.32,.36-2.1,.36Z"/>
    <path d="M134.32,422.51c-1.1,0-2.05-.25-2.85-.73-.8-.49-1.41-1.18-1.84-2.06-.43-.88-.65-1.91-.65-3.08s.21-2.21,.65-3.11c.43-.9,1.03-1.6,1.8-2.1,.77-.5,1.68-.76,2.71-.76,.6,0,1.19,.1,1.77,.3,.58,.2,1.11,.52,1.59,.97,.48,.45,.86,1.03,1.14,1.76,.28,.73,.43,1.63,.43,2.7v.75h-8.83v-1.52h7.04c0-.65-.13-1.22-.38-1.73-.26-.51-.62-.91-1.09-1.2-.47-.29-1.02-.44-1.66-.44-.7,0-1.31,.17-1.82,.52s-.9,.79-1.17,1.35c-.27,.55-.41,1.14-.41,1.77v1.01c0,.86,.15,1.6,.45,2.2,.3,.6,.72,1.05,1.26,1.36,.54,.31,1.16,.47,1.87,.47,.46,0,.88-.07,1.26-.2,.38-.13,.7-.33,.97-.6,.27-.27,.48-.6,.63-1l1.7,.48c-.18,.58-.48,1.08-.9,1.52-.42,.44-.94,.77-1.57,1.01-.62,.24-1.32,.36-2.1,.36Z"/>
    <path d="M142.76,410.82l2.74,4.68,2.74-4.68h2.03l-3.7,5.73,3.7,5.73h-2.03l-2.74-4.44-2.74,4.44h-2.03l3.64-5.73-3.64-5.73h2.03Z"/>
    <path d="M152.78,426.57v-15.75h1.7v1.82h.21c.13-.2,.31-.45,.54-.76,.23-.31,.56-.59,1-.83s1.03-.37,1.77-.37c.96,0,1.81,.24,2.55,.72,.74,.48,1.31,1.17,1.72,2.05,.41,.89,.62,1.93,.62,3.13s-.21,2.26-.62,3.15c-.41,.89-.98,1.57-1.72,2.06-.73,.48-1.57,.73-2.53,.73-.74,0-1.32-.12-1.77-.37-.44-.25-.78-.53-1.02-.84s-.42-.58-.55-.79h-.15v6.06h-1.76Zm1.73-10.02c0,.86,.13,1.63,.38,2.29s.62,1.17,1.11,1.54c.49,.37,1.08,.56,1.79,.56s1.35-.2,1.85-.59c.49-.39,.87-.92,1.12-1.58,.25-.66,.38-1.4,.38-2.22s-.12-1.53-.37-2.18c-.25-.65-.62-1.16-1.11-1.54s-1.11-.57-1.86-.57-1.32,.18-1.8,.54c-.49,.36-.86,.86-1.1,1.51s-.37,1.39-.37,2.25Z"/>
    <path d="M170.38,422.51c-1.1,0-2.05-.25-2.85-.73-.8-.49-1.41-1.18-1.84-2.06-.43-.88-.65-1.91-.65-3.08s.21-2.21,.65-3.11c.43-.9,1.03-1.6,1.8-2.1,.77-.5,1.68-.76,2.71-.76,.6,0,1.19,.1,1.77,.3,.58,.2,1.11,.52,1.59,.97,.48,.45,.86,1.03,1.14,1.76,.28,.73,.43,1.63,.43,2.7v.75h-8.83v-1.52h7.04c0-.65-.13-1.22-.38-1.73-.26-.51-.62-.91-1.09-1.2-.47-.29-1.02-.44-1.66-.44-.7,0-1.31,.17-1.82,.52s-.9,.79-1.17,1.35c-.27,.55-.41,1.14-.41,1.77v1.01c0,.86,.15,1.6,.45,2.2,.3,.6,.72,1.05,1.26,1.36,.54,.31,1.16,.47,1.87,.47,.46,0,.88-.07,1.26-.2,.38-.13,.7-.33,.97-.6,.27-.27,.48-.6,.63-1l1.7,.48c-.18,.58-.48,1.08-.9,1.52-.42,.44-.94,.77-1.57,1.01-.62,.24-1.32,.36-2.1,.36Z"/>
    <path d="M182.46,422.51c-1.07,0-2-.25-2.77-.76-.78-.51-1.37-1.21-1.79-2.1-.42-.89-.63-1.91-.63-3.05s.21-2.19,.65-3.08c.43-.89,1.03-1.59,1.8-2.1,.77-.5,1.68-.76,2.71-.76,.81,0,1.53,.15,2.18,.45s1.18,.72,1.59,1.25c.41,.54,.67,1.16,.77,1.88h-1.76c-.13-.52-.43-.99-.89-1.39-.46-.41-1.08-.61-1.85-.61-.69,0-1.29,.18-1.8,.53-.51,.36-.91,.86-1.2,1.5-.29,.64-.43,1.4-.43,2.26s.14,1.66,.42,2.31,.68,1.17,1.19,1.53c.51,.36,1.12,.54,1.82,.54,.46,0,.87-.08,1.25-.24,.37-.16,.69-.39,.95-.69,.26-.3,.44-.66,.55-1.07h1.76c-.1,.68-.34,1.28-.73,1.82-.39,.54-.9,.97-1.54,1.28-.64,.32-1.38,.47-2.23,.47Z"/>
    <path d="M194.51,410.82v1.49h-5.94v-1.49h5.94Zm-4.21-2.74h1.76v10.92c0,.5,.07,.87,.22,1.11,.15,.25,.34,.41,.57,.49,.23,.08,.48,.12,.73,.12,.19,0,.35-.01,.48-.03,.12-.02,.22-.04,.3-.06l.36,1.58c-.12,.04-.29,.09-.5,.14s-.48,.07-.81,.07c-.5,0-.98-.11-1.46-.32-.48-.21-.87-.54-1.18-.98s-.47-.99-.47-1.66v-11.39Z"/>
    <path d="M200.54,422.54c-.73,0-1.38-.14-1.98-.41-.59-.28-1.06-.68-1.41-1.2-.35-.52-.52-1.16-.52-1.91,0-.66,.13-1.19,.39-1.6s.6-.73,1.04-.97c.43-.23,.91-.41,1.44-.53,.52-.12,1.05-.21,1.58-.28,.7-.09,1.26-.16,1.7-.21s.75-.13,.95-.24c.2-.11,.3-.31,.3-.6v-.06c0-.74-.2-1.31-.6-1.71-.4-.41-1.01-.61-1.82-.61s-1.5,.18-1.98,.55c-.48,.37-.81,.76-1.01,1.18l-1.67-.6c.3-.7,.7-1.24,1.2-1.63s1.05-.66,1.64-.82c.59-.16,1.18-.23,1.76-.23,.37,0,.79,.04,1.27,.13,.48,.09,.94,.26,1.39,.53,.45,.27,.82,.67,1.12,1.22,.3,.54,.45,1.27,.45,2.18v7.55h-1.76v-1.55h-.09c-.12,.25-.32,.51-.6,.8-.28,.28-.65,.52-1.11,.72s-1.03,.3-1.69,.3Zm.27-1.58c.7,0,1.28-.14,1.76-.41,.48-.27,.84-.63,1.09-1.06s.37-.89,.37-1.36v-1.61c-.07,.09-.24,.17-.49,.24-.25,.07-.54,.13-.86,.19-.33,.05-.64,.1-.95,.13-.31,.04-.55,.07-.74,.09-.46,.06-.88,.16-1.28,.29-.4,.13-.71,.33-.95,.59-.24,.26-.36,.62-.36,1.06,0,.61,.23,1.07,.68,1.38,.46,.31,1.03,.47,1.73,.47Z"/>
    <path d="M210.77,415.38v6.89h-1.76v-11.45h1.7v1.79h.15c.27-.58,.68-1.05,1.22-1.41s1.25-.53,2.12-.53c.78,0,1.45,.16,2.04,.47,.58,.32,1.03,.79,1.36,1.43,.32,.64,.48,1.45,.48,2.42v7.28h-1.76v-7.16c0-.9-.23-1.6-.7-2.11-.47-.5-1.11-.76-1.92-.76-.56,0-1.06,.12-1.5,.37s-.79,.6-1.04,1.07c-.25,.47-.38,1.03-.38,1.7Z"/>
    <path d="M225.95,422.51c-1.07,0-2-.25-2.77-.76-.78-.51-1.37-1.21-1.79-2.1-.42-.89-.63-1.91-.63-3.05s.22-2.19,.65-3.08c.43-.89,1.03-1.59,1.8-2.1,.77-.5,1.68-.76,2.71-.76,.81,0,1.53,.15,2.18,.45,.65,.3,1.18,.72,1.59,1.25,.41,.54,.67,1.16,.77,1.88h-1.76c-.13-.52-.43-.99-.89-1.39-.46-.41-1.08-.61-1.85-.61-.69,0-1.29,.18-1.8,.53-.51,.36-.92,.86-1.2,1.5-.29,.64-.43,1.4-.43,2.26s.14,1.66,.42,2.31,.68,1.17,1.19,1.53,1.12,.54,1.82,.54c.46,0,.87-.08,1.25-.24,.37-.16,.69-.39,.95-.69,.26-.3,.44-.66,.55-1.07h1.76c-.1,.68-.34,1.28-.73,1.82s-.91,.97-1.54,1.28c-.64,.32-1.38,.47-2.23,.47Z"/>
    <path d="M234.16,426.57c-.3,0-.56-.02-.8-.07s-.4-.09-.48-.14l.45-1.55c.43,.11,.81,.15,1.13,.12s.62-.18,.88-.44c.26-.26,.49-.68,.7-1.26l.33-.9-4.24-11.51h1.91l3.16,9.13h.12l3.16-9.13h1.91l-4.86,13.12c-.22,.59-.49,1.08-.81,1.47-.32,.39-.7,.68-1.12,.87s-.9,.28-1.44,.28Z"/>
  </g>
  <g style="isolation: isolate;">
    <path d="M22.57,182.88h-1.94l5.61-15.27h1.91l5.61,15.27h-1.94l-4.56-12.86h-.12l-4.56,12.86Zm.72-5.97h7.82v1.64h-7.82v-1.64Z"/>
    <path d="M37.18,174.49c-.37,0-.68-.13-.95-.4-.26-.26-.4-.58-.4-.95s.13-.68,.4-.95c.26-.26,.58-.4,.95-.4s.68,.13,.95,.4,.4,.58,.4,.95c0,.24-.06,.47-.18,.67-.12,.2-.28,.37-.48,.49-.2,.12-.43,.18-.67,.18Zm0,8.5c-.37,0-.68-.13-.95-.4-.26-.26-.4-.58-.4-.95s.13-.68,.4-.95c.26-.26,.58-.4,.95-.4s.68,.13,.95,.4c.26,.26,.4,.58,.4,.95,0,.24-.06,.47-.18,.67-.12,.2-.28,.37-.48,.49-.2,.12-.43,.18-.67,.18Z"/>
    <path d="M60.12,172.38h-1.85c-.11-.53-.3-1-.57-1.4-.27-.4-.6-.74-.98-1.02s-.81-.48-1.28-.62-.95-.21-1.46-.21c-.92,0-1.76,.23-2.51,.7-.75,.47-1.34,1.16-1.78,2.07-.44,.91-.66,2.03-.66,3.35s.22,2.44,.66,3.35,1.03,1.6,1.78,2.07c.75,.47,1.58,.7,2.51,.7,.51,0,.99-.07,1.46-.21s.89-.35,1.28-.62c.39-.28,.71-.62,.98-1.02s.46-.87,.57-1.4h1.85c-.14,.78-.39,1.48-.76,2.1-.37,.62-.83,1.14-1.37,1.57s-1.16,.76-1.84,.98c-.68,.22-1.4,.34-2.17,.34-1.3,0-2.46-.32-3.48-.95s-1.81-1.54-2.39-2.71c-.58-1.17-.87-2.56-.87-4.18s.29-3,.87-4.18,1.38-2.08,2.39-2.71,2.17-.95,3.48-.95c.77,0,1.5,.11,2.17,.34,.68,.22,1.29,.55,1.84,.98,.55,.43,1,.95,1.37,1.57,.37,.61,.62,1.31,.76,2.1Z"/>
    <path d="M64.63,167.6v15.27h-1.76v-15.27h1.76Z"/>
    <path d="M72.65,183.11c-1.1,0-2.05-.25-2.85-.73-.8-.49-1.41-1.18-1.84-2.06-.43-.88-.65-1.91-.65-3.08s.21-2.21,.65-3.11c.43-.9,1.03-1.6,1.8-2.1,.77-.5,1.68-.76,2.71-.76,.6,0,1.19,.1,1.77,.3,.58,.2,1.11,.52,1.59,.97,.48,.45,.86,1.03,1.14,1.76,.28,.73,.43,1.63,.43,2.7v.75h-8.83v-1.52h7.04c0-.65-.13-1.22-.38-1.73-.26-.51-.62-.91-1.09-1.2-.47-.29-1.02-.44-1.66-.44-.7,0-1.31,.17-1.82,.52s-.9,.79-1.17,1.35c-.27,.55-.41,1.14-.41,1.77v1.01c0,.86,.15,1.6,.45,2.2,.3,.6,.72,1.05,1.26,1.36,.54,.31,1.16,.47,1.87,.47,.46,0,.88-.07,1.26-.2,.38-.13,.7-.33,.97-.6,.27-.27,.48-.6,.63-1l1.7,.48c-.18,.58-.48,1.08-.9,1.52-.42,.44-.94,.77-1.57,1.01-.62,.24-1.32,.36-2.1,.36Z"/>
    <path d="M83.45,183.14c-.73,0-1.38-.14-1.98-.41-.59-.28-1.06-.68-1.41-1.2-.35-.52-.52-1.16-.52-1.91,0-.66,.13-1.19,.39-1.6,.26-.41,.6-.73,1.04-.97,.43-.23,.91-.41,1.44-.53,.52-.12,1.05-.21,1.58-.28,.7-.09,1.26-.16,1.7-.21s.75-.13,.95-.24c.2-.11,.3-.31,.3-.6v-.06c0-.74-.2-1.31-.6-1.71s-1.01-.61-1.82-.61-1.5,.18-1.98,.55c-.48,.37-.81,.76-1.01,1.18l-1.67-.6c.3-.7,.7-1.24,1.2-1.63,.5-.39,1.05-.66,1.64-.82,.59-.16,1.18-.23,1.76-.23,.37,0,.79,.04,1.27,.13,.48,.09,.94,.26,1.39,.53s.82,.67,1.12,1.22c.3,.54,.45,1.27,.45,2.18v7.55h-1.76v-1.55h-.09c-.12,.25-.32,.51-.6,.8-.28,.28-.65,.52-1.11,.72s-1.03,.3-1.69,.3Zm.27-1.58c.7,0,1.28-.14,1.76-.41,.48-.27,.84-.63,1.09-1.06s.37-.89,.37-1.36v-1.61c-.07,.09-.24,.17-.49,.24s-.54,.13-.86,.19c-.33,.05-.64,.1-.95,.13-.31,.04-.55,.07-.74,.09-.46,.06-.88,.16-1.28,.29-.4,.13-.71,.33-.95,.59s-.36,.62-.36,1.06c0,.61,.23,1.07,.68,1.38,.45,.31,1.03,.47,1.73,.47Z"/>
    <path d="M93.68,175.98v6.89h-1.76v-11.45h1.7v1.79h.15c.27-.58,.68-1.05,1.22-1.41s1.25-.53,2.12-.53c.78,0,1.45,.16,2.04,.47,.58,.32,1.03,.79,1.36,1.43,.32,.64,.48,1.45,.48,2.42v7.28h-1.76v-7.16c0-.9-.23-1.6-.7-2.11-.47-.5-1.11-.76-1.92-.76-.56,0-1.06,.12-1.5,.37s-.79,.6-1.04,1.07-.38,1.03-.38,1.7Z"/>
    <path d="M110.98,182.88h-1.94l5.61-15.27h1.91l5.61,15.27h-1.94l-4.56-12.86h-.12l-4.56,12.86Zm.72-5.97h7.82v1.64h-7.82v-1.64Z"/>
    <path d="M125.33,169.51c-.34,0-.64-.12-.88-.35-.25-.23-.37-.51-.37-.84s.12-.61,.37-.84,.54-.35,.88-.35,.64,.12,.88,.35,.37,.51,.37,.84-.12,.61-.37,.84c-.25,.23-.54,.35-.88,.35Zm-.9,13.36v-11.45h1.76v11.45h-1.76Z"/>
    <path d="M129.42,182.88v-11.45h1.7v1.73h.12c.21-.57,.59-1.03,1.13-1.38s1.16-.53,1.85-.53c.13,0,.29,0,.48,0s.34,.01,.44,.02v1.79c-.06-.01-.19-.04-.41-.07s-.43-.05-.67-.05c-.56,0-1.05,.12-1.49,.35-.44,.23-.78,.55-1.03,.95-.25,.41-.38,.87-.38,1.38v7.25h-1.76Z"/>
  </g>
  <circle cx="450.56" cy="203.12" r="4.9" style="fill: #059799; stroke: #059799; stroke-width: 2px;"/>
  <circle cx="391.32" cy="385.46" r="4.9" style="fill: none; stroke: #ac2c5a; stroke-width: 2px;"/>
  <circle cx="140.36" cy="203.12" r="4.9" style="fill: #059799; stroke: #059799; stroke-width: 2px;"/>
  <g>
    <path d="M495.09,251.61v-15.27h1.85v13.63h7.1v1.64h-8.95Z"/>
    <path d="M511.47,251.85c-1.1,0-2.05-.25-2.85-.73-.8-.49-1.41-1.18-1.84-2.06-.43-.88-.65-1.91-.65-3.08s.22-2.21,.65-3.11c.43-.9,1.03-1.6,1.8-2.1,.77-.5,1.68-.76,2.71-.76,.6,0,1.19,.1,1.77,.3,.58,.2,1.11,.52,1.59,.97,.48,.45,.86,1.03,1.14,1.76,.28,.73,.43,1.63,.43,2.7v.75h-8.83v-1.52h7.04c0-.65-.13-1.22-.38-1.73-.26-.51-.62-.91-1.09-1.2-.47-.29-1.02-.44-1.66-.44-.7,0-1.31,.17-1.82,.52s-.9,.79-1.17,1.35c-.27,.55-.41,1.14-.41,1.77v1.01c0,.86,.15,1.6,.45,2.2,.3,.6,.72,1.05,1.26,1.36,.54,.31,1.16,.47,1.87,.47,.46,0,.88-.07,1.26-.2,.38-.13,.7-.33,.97-.6,.27-.27,.48-.6,.63-1l1.7,.48c-.18,.58-.48,1.08-.9,1.52s-.94,.77-1.57,1.01-1.32,.36-2.1,.36Z"/>
    <path d="M527.9,240.15l-4.24,11.45h-1.79l-4.24-11.45h1.91l3.16,9.13h.12l3.16-9.13h1.91Z"/>
    <path d="M534.61,251.85c-1.1,0-2.05-.25-2.85-.73-.8-.49-1.41-1.18-1.84-2.06-.43-.88-.65-1.91-.65-3.08s.22-2.21,.65-3.11,1.03-1.6,1.8-2.1,1.68-.76,2.71-.76c.6,0,1.19,.1,1.77,.3,.58,.2,1.11,.52,1.59,.97,.48,.45,.86,1.03,1.14,1.76,.28,.73,.42,1.63,.42,2.7v.75h-8.83v-1.52h7.04c0-.65-.13-1.22-.38-1.73-.26-.51-.62-.91-1.09-1.2-.47-.29-1.02-.44-1.66-.44-.7,0-1.31,.17-1.82,.52-.51,.35-.9,.79-1.17,1.35-.27,.55-.41,1.14-.41,1.77v1.01c0,.86,.15,1.6,.45,2.2,.3,.6,.72,1.05,1.26,1.36,.54,.31,1.16,.47,1.87,.47,.46,0,.88-.07,1.26-.2,.38-.13,.7-.33,.97-.6,.27-.27,.48-.6,.63-1l1.7,.48c-.18,.58-.48,1.08-.9,1.52-.42,.44-.94,.77-1.57,1.01-.62,.24-1.32,.36-2.1,.36Z"/>
    <path d="M543.8,236.33v15.27h-1.76v-15.27h1.76Z"/>
    <path d="M553.82,238.24c-.34,0-.64-.12-.88-.35-.25-.23-.37-.51-.37-.84s.12-.61,.37-.84,.54-.35,.88-.35,.64,.12,.88,.35,.37,.51,.37,.84-.12,.61-.37,.84c-.25,.23-.54,.35-.88,.35Zm-.9,13.36v-11.45h1.76v11.45h-1.76Z"/>
    <path d="M559.67,244.72v6.89h-1.76v-11.45h1.7v1.79h.15c.27-.58,.68-1.05,1.22-1.41,.55-.36,1.25-.53,2.12-.53,.78,0,1.45,.16,2.04,.47,.58,.32,1.03,.79,1.36,1.43s.48,1.45,.48,2.42v7.28h-1.76v-7.16c0-.9-.23-1.6-.7-2.11-.47-.5-1.11-.76-1.92-.76-.56,0-1.06,.12-1.5,.37s-.79,.6-1.04,1.07c-.25,.47-.38,1.03-.38,1.7Z"/>
    <path d="M576.08,251.61v-1.34l5.04-5.52c.59-.65,1.08-1.21,1.46-1.69s.67-.93,.85-1.36c.19-.42,.28-.87,.28-1.34,0-.54-.13-1-.38-1.39-.26-.39-.61-.7-1.05-.91-.44-.21-.94-.32-1.49-.32-.59,0-1.1,.12-1.53,.36-.44,.24-.77,.58-1.01,1.01-.24,.43-.35,.94-.35,1.52h-1.76c0-.9,.21-1.68,.62-2.36,.41-.68,.98-1.2,1.69-1.58,.71-.38,1.51-.57,2.41-.57s1.69,.19,2.38,.57c.69,.38,1.23,.89,1.63,1.53,.39,.64,.59,1.35,.59,2.14,0,.56-.1,1.11-.3,1.64-.2,.53-.55,1.13-1.04,1.78s-1.18,1.45-2.05,2.39l-3.43,3.67v.12h7.1v1.64h-9.64Z"/>
    <path d="M593.76,251.82c-1.12,0-2.08-.31-2.87-.92-.79-.61-1.39-1.51-1.81-2.68-.42-1.17-.63-2.59-.63-4.25s.21-3.06,.63-4.23c.42-1.17,1.03-2.07,1.82-2.68,.79-.62,1.75-.93,2.86-.93s2.07,.31,2.86,.93c.79,.62,1.4,1.51,1.82,2.68,.42,1.17,.63,2.58,.63,4.23s-.21,3.08-.63,4.25c-.42,1.17-1.02,2.06-1.81,2.68-.79,.61-1.75,.92-2.87,.92Zm0-1.64c1.11,0,1.98-.54,2.6-1.61,.62-1.07,.92-2.6,.92-4.59,0-1.32-.14-2.45-.42-3.38s-.68-1.64-1.21-2.13c-.52-.49-1.15-.73-1.89-.73-1.1,0-1.97,.54-2.59,1.63s-.93,2.62-.93,4.6c0,1.32,.14,2.45,.42,3.37,.28,.92,.68,1.63,1.2,2.11,.52,.48,1.16,.72,1.9,.72Z"/>
    <path d="M601.91,251.61v-1.34l5.04-5.52c.59-.65,1.08-1.21,1.46-1.69,.38-.48,.67-.93,.85-1.36,.19-.42,.28-.87,.28-1.34,0-.54-.13-1-.38-1.39-.26-.39-.61-.7-1.05-.91-.44-.21-.94-.32-1.49-.32-.59,0-1.1,.12-1.53,.36-.44,.24-.77,.58-1.01,1.01s-.35,.94-.35,1.52h-1.76c0-.9,.21-1.68,.62-2.36,.41-.68,.98-1.2,1.69-1.58,.71-.38,1.51-.57,2.4-.57s1.69,.19,2.38,.57c.69,.38,1.23,.89,1.63,1.53,.39,.64,.59,1.35,.59,2.14,0,.56-.1,1.11-.3,1.64-.2,.53-.55,1.13-1.04,1.78-.49,.65-1.18,1.45-2.05,2.39l-3.43,3.67v.12h7.1v1.64h-9.64Z"/>
    <path d="M619.6,251.82c-1.12,0-2.08-.31-2.87-.92-.79-.61-1.39-1.51-1.81-2.68-.42-1.17-.63-2.59-.63-4.25s.21-3.06,.63-4.23c.42-1.17,1.03-2.07,1.82-2.68,.79-.62,1.75-.93,2.86-.93s2.07,.31,2.86,.93c.79,.62,1.4,1.51,1.82,2.68,.42,1.17,.63,2.58,.63,4.23s-.21,3.08-.63,4.25c-.42,1.17-1.02,2.06-1.81,2.68-.79,.61-1.75,.92-2.87,.92Zm0-1.64c1.11,0,1.98-.54,2.6-1.61,.62-1.07,.92-2.6,.92-4.59,0-1.32-.14-2.45-.42-3.38-.28-.93-.68-1.64-1.21-2.13-.52-.49-1.15-.73-1.89-.73-1.1,0-1.97,.54-2.59,1.63-.62,1.09-.93,2.62-.93,4.6,0,1.32,.14,2.45,.42,3.37s.68,1.63,1.2,2.11c.52,.48,1.16,.72,1.9,.72Z"/>
  </g>
  <g>
    <path d="M495.09,288.34v-15.27h1.85v13.63h7.1v1.64h-8.95Z"/>
    <path d="M511.47,288.58c-1.1,0-2.05-.25-2.85-.73-.8-.49-1.41-1.18-1.84-2.06-.43-.88-.65-1.91-.65-3.08s.22-2.21,.65-3.11c.43-.9,1.03-1.6,1.8-2.1,.77-.5,1.68-.76,2.71-.76,.6,0,1.19,.1,1.77,.3,.58,.2,1.11,.52,1.59,.97,.48,.45,.86,1.03,1.14,1.76,.28,.73,.43,1.63,.43,2.7v.75h-8.83v-1.52h7.04c0-.65-.13-1.22-.38-1.73-.26-.51-.62-.91-1.09-1.2-.47-.29-1.02-.44-1.66-.44-.7,0-1.31,.17-1.82,.52s-.9,.79-1.17,1.35c-.27,.55-.41,1.14-.41,1.77v1.01c0,.86,.15,1.6,.45,2.2,.3,.6,.72,1.05,1.26,1.36,.54,.31,1.16,.47,1.87,.47,.46,0,.88-.07,1.26-.2,.38-.13,.7-.33,.97-.6,.27-.27,.48-.6,.63-1l1.7,.48c-.18,.58-.48,1.08-.9,1.52s-.94,.77-1.57,1.01-1.32,.36-2.1,.36Z"/>
    <path d="M527.9,276.89l-4.24,11.45h-1.79l-4.24-11.45h1.91l3.16,9.13h.12l3.16-9.13h1.91Z"/>
    <path d="M534.61,288.58c-1.1,0-2.05-.25-2.85-.73-.8-.49-1.41-1.18-1.84-2.06-.43-.88-.65-1.91-.65-3.08s.22-2.21,.65-3.11,1.03-1.6,1.8-2.1,1.68-.76,2.71-.76c.6,0,1.19,.1,1.77,.3,.58,.2,1.11,.52,1.59,.97,.48,.45,.86,1.03,1.14,1.76,.28,.73,.42,1.63,.42,2.7v.75h-8.83v-1.52h7.04c0-.65-.13-1.22-.38-1.73-.26-.51-.62-.91-1.09-1.2-.47-.29-1.02-.44-1.66-.44-.7,0-1.31,.17-1.82,.52-.51,.35-.9,.79-1.17,1.35-.27,.55-.41,1.14-.41,1.77v1.01c0,.86,.15,1.6,.45,2.2,.3,.6,.72,1.05,1.26,1.36,.54,.31,1.16,.47,1.87,.47,.46,0,.88-.07,1.26-.2,.38-.13,.7-.33,.97-.6,.27-.27,.48-.6,.63-1l1.7,.48c-.18,.58-.48,1.08-.9,1.52-.42,.44-.94,.77-1.57,1.01-.62,.24-1.32,.36-2.1,.36Z"/>
    <path d="M543.8,273.07v15.27h-1.76v-15.27h1.76Z"/>
    <path d="M553.82,274.98c-.34,0-.64-.12-.88-.35-.25-.23-.37-.51-.37-.84s.12-.61,.37-.84,.54-.35,.88-.35,.64,.12,.88,.35,.37,.51,.37,.84-.12,.61-.37,.84c-.25,.23-.54,.35-.88,.35Zm-.9,13.36v-11.45h1.76v11.45h-1.76Z"/>
    <path d="M559.67,281.45v6.89h-1.76v-11.45h1.7v1.79h.15c.27-.58,.68-1.05,1.22-1.41,.55-.36,1.25-.53,2.12-.53,.78,0,1.45,.16,2.04,.47,.58,.32,1.03,.79,1.36,1.43s.48,1.45,.48,2.42v7.28h-1.76v-7.16c0-.9-.23-1.6-.7-2.11-.47-.5-1.11-.76-1.92-.76-.56,0-1.06,.12-1.5,.37s-.79,.6-1.04,1.07c-.25,.47-.38,1.03-.38,1.7Z"/>
    <path d="M576.08,288.34v-1.34l5.04-5.52c.59-.65,1.08-1.21,1.46-1.69s.67-.93,.85-1.36c.19-.42,.28-.87,.28-1.34,0-.54-.13-1-.38-1.39-.26-.39-.61-.7-1.05-.91-.44-.21-.94-.32-1.49-.32-.59,0-1.1,.12-1.53,.36-.44,.24-.77,.58-1.01,1.01-.24,.43-.35,.94-.35,1.52h-1.76c0-.9,.21-1.68,.62-2.36,.41-.68,.98-1.2,1.69-1.58,.71-.38,1.51-.57,2.41-.57s1.69,.19,2.38,.57c.69,.38,1.23,.89,1.63,1.53,.39,.64,.59,1.35,.59,2.14,0,.56-.1,1.11-.3,1.64-.2,.53-.55,1.13-1.04,1.78s-1.18,1.45-2.05,2.39l-3.43,3.67v.12h7.1v1.64h-9.64Z"/>
    <path d="M593.76,288.55c-1.12,0-2.08-.31-2.87-.92-.79-.61-1.39-1.51-1.81-2.68-.42-1.17-.63-2.59-.63-4.25s.21-3.06,.63-4.23c.42-1.17,1.03-2.07,1.82-2.68,.79-.62,1.75-.93,2.86-.93s2.07,.31,2.86,.93c.79,.62,1.4,1.51,1.82,2.68,.42,1.17,.63,2.58,.63,4.23s-.21,3.08-.63,4.25c-.42,1.17-1.02,2.06-1.81,2.68-.79,.61-1.75,.92-2.87,.92Zm0-1.64c1.11,0,1.98-.54,2.6-1.61,.62-1.07,.92-2.6,.92-4.59,0-1.32-.14-2.45-.42-3.38s-.68-1.64-1.21-2.13c-.52-.49-1.15-.73-1.89-.73-1.1,0-1.97,.54-2.59,1.63s-.93,2.62-.93,4.6c0,1.32,.14,2.45,.42,3.37,.28,.92,.68,1.63,1.2,2.11,.52,.48,1.16,.72,1.9,.72Z"/>
    <path d="M607.28,273.07v15.27h-1.85v-13.33h-.09l-3.73,2.48v-1.88l3.82-2.54h1.85Z"/>
    <path d="M616.64,288.55c-1.12,0-2.08-.31-2.87-.92-.79-.61-1.39-1.51-1.81-2.68-.42-1.17-.63-2.59-.63-4.25s.21-3.06,.63-4.23c.42-1.17,1.03-2.07,1.82-2.68,.79-.62,1.75-.93,2.86-.93s2.07,.31,2.86,.93c.79,.62,1.4,1.51,1.82,2.68,.42,1.17,.63,2.58,.63,4.23s-.21,3.08-.63,4.25c-.42,1.17-1.02,2.06-1.81,2.68-.79,.61-1.75,.92-2.87,.92Zm0-1.64c1.11,0,1.98-.54,2.6-1.61,.62-1.07,.92-2.6,.92-4.59,0-1.32-.14-2.45-.42-3.38-.28-.93-.68-1.64-1.21-2.13-.52-.49-1.15-.73-1.89-.73-1.1,0-1.97,.54-2.59,1.63-.62,1.09-.93,2.62-.93,4.6,0,1.32,.14,2.45,.42,3.37s.68,1.63,1.2,2.11c.52,.48,1.16,.72,1.9,.72Z"/>
  </g>
  <line x1="431.47" y1="215.54" x2="484.15" y2="243.72" style="fill: none; stroke: #021e1e; stroke-linecap: round; stroke-width: 2px;"/>
  <line x1="394.71" y1="229.01" x2="484.15" y2="280.48" style="fill: none; stroke: #021e1e; stroke-linecap: round; stroke-width: 2px;"/>
</svg>