<?xml version="1.0" encoding="UTF-8"?>
<svg id="b" data-name="intro" xmlns="http://www.w3.org/2000/svg" viewBox="0 0 383 430">
  <g>
    <line x1="169.38" y1="33.14" x2="169.38" y2="388.14" style="fill: none; stroke: #808989; stroke-linecap: round; stroke-width: 2px;"/>
    <line x1="279.38" y1="33.14" x2="279.38" y2="388.14" style="fill: none; stroke: #808989; stroke-linecap: round; stroke-width: 2px;"/>
  </g>
  <g>
    <g style="isolation: isolate;">
      <path d="M160.24,401.88v1.27h-7.1c0-.32,.04-.62,.15-.92,.18-.48,.47-.96,.87-1.43s.97-1.01,1.73-1.63c1.17-.96,1.96-1.71,2.37-2.27,.41-.56,.62-1.09,.62-1.59s-.19-.96-.56-1.32c-.37-.36-.86-.54-1.46-.54-.63,0-1.14,.19-1.52,.57s-.57,.91-.58,1.58l-1.35-.14c.09-1.01,.44-1.78,1.05-2.31,.61-.53,1.42-.79,2.44-.79s1.85,.29,2.45,.86c.6,.57,.9,1.28,.9,2.12,0,.43-.09,.85-.26,1.27s-.47,.85-.88,1.31c-.41,.46-1.08,1.09-2.03,1.89-.79,.66-1.3,1.11-1.52,1.35-.22,.24-.41,.48-.56,.71h5.27Z"/>
      <path d="M161.66,397.85c0-1.27,.13-2.29,.39-3.07,.26-.77,.65-1.37,1.16-1.79s1.16-.63,1.94-.63c.58,0,1.08,.12,1.52,.35,.43,.23,.79,.57,1.08,1,.28,.44,.51,.97,.67,1.6,.16,.63,.24,1.47,.24,2.54,0,1.26-.13,2.28-.39,3.05-.26,.77-.65,1.37-1.16,1.79-.52,.42-1.17,.63-1.95,.63-1.04,0-1.85-.37-2.44-1.11-.71-.89-1.06-2.35-1.06-4.37Zm1.35,0c0,1.76,.21,2.94,.62,3.52,.41,.58,.92,.88,1.53,.88s1.11-.29,1.53-.88,.62-1.76,.62-3.52-.21-2.94-.62-3.52-.93-.87-1.54-.87-1.09,.26-1.45,.77c-.45,.65-.68,1.86-.68,3.63Z"/>
      <path d="M174.97,403.14h-1.32v-8.4c-.32,.3-.73,.61-1.25,.91-.52,.3-.98,.53-1.39,.68v-1.27c.74-.35,1.38-.77,1.93-1.26s.94-.97,1.17-1.44h.85v10.78Z"/>
      <path d="M178.34,397.85c0-1.27,.13-2.29,.39-3.07,.26-.77,.65-1.37,1.16-1.79s1.16-.63,1.94-.63c.58,0,1.08,.12,1.52,.35,.43,.23,.79,.57,1.08,1,.28,.44,.51,.97,.67,1.6,.16,.63,.24,1.47,.24,2.54,0,1.26-.13,2.28-.39,3.05-.26,.77-.65,1.37-1.16,1.79-.52,.42-1.17,.63-1.95,.63-1.04,0-1.85-.37-2.44-1.11-.71-.89-1.06-2.35-1.06-4.37Zm1.35,0c0,1.76,.21,2.94,.62,3.52,.41,.58,.92,.88,1.53,.88s1.11-.29,1.53-.88,.62-1.76,.62-3.52-.21-2.94-.62-3.52-.93-.87-1.54-.87-1.09,.26-1.45,.77c-.45,.65-.68,1.86-.68,3.63Z"/>
    </g>
    <g style="isolation: isolate;">
      <path d="M270.24,401.88v1.27h-7.1c0-.32,.04-.62,.15-.92,.18-.48,.47-.96,.87-1.43s.97-1.01,1.73-1.63c1.17-.96,1.96-1.71,2.37-2.27,.41-.56,.62-1.09,.62-1.59s-.19-.96-.56-1.32c-.37-.36-.86-.54-1.46-.54-.63,0-1.14,.19-1.52,.57s-.57,.91-.58,1.58l-1.35-.14c.09-1.01,.44-1.78,1.05-2.31,.61-.53,1.42-.79,2.44-.79s1.85,.29,2.45,.86c.6,.57,.9,1.28,.9,2.12,0,.43-.09,.85-.26,1.27s-.47,.85-.88,1.31c-.41,.46-1.08,1.09-2.03,1.89-.79,.66-1.3,1.11-1.52,1.35-.22,.24-.41,.48-.56,.71h5.27Z"/>
      <path d="M271.66,397.85c0-1.27,.13-2.29,.39-3.07,.26-.77,.65-1.37,1.16-1.79s1.16-.63,1.94-.63c.58,0,1.08,.12,1.52,.35,.43,.23,.79,.57,1.08,1,.28,.44,.51,.97,.67,1.6,.16,.63,.24,1.47,.24,2.54,0,1.26-.13,2.28-.39,3.05-.26,.77-.65,1.37-1.16,1.79-.52,.42-1.17,.63-1.95,.63-1.04,0-1.85-.37-2.44-1.11-.71-.89-1.06-2.35-1.06-4.37Zm1.35,0c0,1.76,.21,2.94,.62,3.52,.41,.58,.92,.88,1.53,.88s1.11-.29,1.53-.88,.62-1.76,.62-3.52-.21-2.94-.62-3.52-.93-.87-1.54-.87-1.09,.26-1.45,.77c-.45,.65-.68,1.86-.68,3.63Z"/>
      <path d="M286.93,401.88v1.27h-7.1c0-.32,.04-.62,.15-.92,.18-.48,.47-.96,.87-1.43s.97-1.01,1.73-1.63c1.17-.96,1.96-1.71,2.37-2.27,.41-.56,.62-1.09,.62-1.59s-.19-.96-.56-1.32c-.37-.36-.86-.54-1.46-.54-.63,0-1.14,.19-1.52,.57s-.57,.91-.58,1.58l-1.35-.14c.09-1.01,.44-1.78,1.05-2.31,.61-.53,1.42-.79,2.44-.79s1.85,.29,2.45,.86c.6,.57,.9,1.28,.9,2.12,0,.43-.09,.85-.26,1.27s-.47,.85-.88,1.31c-.41,.46-1.08,1.09-2.03,1.89-.79,.66-1.3,1.11-1.52,1.35-.22,.24-.41,.48-.56,.71h5.27Z"/>
      <path d="M288.34,397.85c0-1.27,.13-2.29,.39-3.07,.26-.77,.65-1.37,1.16-1.79s1.16-.63,1.94-.63c.58,0,1.08,.12,1.52,.35,.43,.23,.79,.57,1.08,1,.28,.44,.51,.97,.67,1.6,.16,.63,.24,1.47,.24,2.54,0,1.26-.13,2.28-.39,3.05-.26,.77-.65,1.37-1.16,1.79-.52,.42-1.17,.63-1.95,.63-1.04,0-1.85-.37-2.44-1.11-.71-.89-1.06-2.35-1.06-4.37Zm1.35,0c0,1.76,.21,2.94,.62,3.52,.41,.58,.92,.88,1.53,.88s1.11-.29,1.53-.88,.62-1.76,.62-3.52-.21-2.94-.62-3.52-.93-.87-1.54-.87-1.09,.26-1.45,.77c-.45,.65-.68,1.86-.68,3.63Z"/>
    </g>
  </g>
  <g>
    <g>
      <line x1="169.38" y1="48.38" x2="279.38" y2="233.49" style="fill: none; stroke: #059799; stroke-width: 2px;"/>
      <circle cx="169.38" cy="48.38" r="5" style="fill: #059799; stroke: #f9ffff;"/>
      <circle cx="279.38" cy="233.49" r="5" style="fill: #059799; stroke: #f9ffff;"/>
      <g style="isolation: isolate;">
        <path d="M136.41,48.38v-9.31h1.23v3.82h4.84v-3.82h1.23v9.31h-1.23v-4.39h-4.84v4.39h-1.23Z" style="fill: #059799;"/>
        <path d="M150.02,47.54c-.42,.36-.83,.61-1.22,.76-.39,.15-.81,.22-1.26,.22-.74,0-1.31-.18-1.71-.54-.4-.36-.6-.82-.6-1.39,0-.33,.08-.63,.23-.9,.15-.27,.35-.49,.59-.66,.24-.17,.52-.29,.82-.37,.22-.06,.56-.12,1.02-.17,.92-.11,1.6-.24,2.04-.39,0-.16,0-.26,0-.3,0-.47-.11-.79-.32-.98-.29-.26-.73-.39-1.3-.39-.54,0-.93,.09-1.19,.28-.26,.19-.45,.52-.57,1l-1.12-.15c.1-.48,.27-.86,.5-1.16s.57-.52,1.01-.68c.44-.16,.95-.24,1.53-.24s1.04,.07,1.4,.2,.62,.31,.79,.51,.29,.46,.36,.78c.04,.2,.06,.55,.06,1.05v1.52c0,1.06,.02,1.73,.07,2.01,.05,.28,.15,.55,.29,.81h-1.19c-.12-.24-.19-.51-.23-.83Zm-.1-2.55c-.41,.17-1.04,.31-1.87,.43-.47,.07-.8,.14-1,.23-.19,.08-.34,.21-.45,.37s-.16,.34-.16,.54c0,.3,.12,.56,.35,.76,.23,.2,.57,.3,1.01,.3s.83-.1,1.17-.29,.59-.46,.76-.79c.12-.26,.18-.64,.18-1.14v-.42Z" style="fill: #059799;"/>
        <path d="M152.85,40.38v-1.31h1.14v1.31h-1.14Zm0,7.99v-6.74h1.14v6.74h-1.14Z" style="fill: #059799;"/>
        <path d="M158.23,47.35l.17,1.01c-.32,.07-.61,.1-.86,.1-.41,0-.74-.07-.96-.2-.23-.13-.39-.3-.48-.52s-.14-.66-.14-1.35v-3.88h-.84v-.89h.84v-1.67l1.14-.69v2.35h1.15v.89h-1.15v3.94c0,.33,.02,.54,.06,.63,.04,.09,.11,.17,.2,.22,.09,.06,.22,.08,.39,.08,.13,0,.29-.01,.5-.04Z" style="fill: #059799;"/>
        <path d="M159.35,40.38v-1.31h1.14v1.31h-1.14Zm0,7.99v-6.74h1.14v6.74h-1.14Z" style="fill: #059799;"/>
      </g>
    </g>
    <g>
      <line x1="169.38" y1="136.79" x2="279.38" y2="228.19" style="fill: none; stroke: #059799; stroke-width: 2px;"/>
      <circle cx="169.38" cy="136.79" r="5" style="fill: #059799; stroke: #f9ffff;"/>
      <circle cx="279.38" cy="228.19" r="5" style="fill: #059799; stroke: #f9ffff;"/>
      <g style="isolation: isolate;">
        <path d="M120.88,136.79l3.57-9.31h1.33l3.81,9.31h-1.4l-1.09-2.82h-3.89l-1.02,2.82h-1.31Zm2.69-3.82h3.15l-.97-2.58c-.3-.78-.52-1.43-.66-1.93-.12,.6-.29,1.19-.5,1.78l-1.02,2.73Z" style="fill: #059799;"/>
        <path d="M130.43,136.79v-6.74h1.03v.96c.5-.74,1.21-1.11,2.15-1.11,.41,0,.78,.07,1.12,.22,.34,.15,.6,.34,.76,.58,.17,.24,.29,.52,.36,.84,.04,.21,.06,.58,.06,1.11v4.14h-1.14v-4.1c0-.47-.04-.81-.13-1.04s-.25-.42-.47-.55c-.23-.14-.49-.21-.8-.21-.49,0-.91,.15-1.26,.46-.35,.31-.53,.89-.53,1.76v3.68h-1.14Z" style="fill: #059799;"/>
        <path d="M137.45,137.35l1.11,.17c.05,.34,.18,.59,.39,.75,.28,.21,.67,.32,1.16,.32,.53,0,.94-.11,1.23-.32s.48-.51,.58-.89c.06-.23,.09-.72,.08-1.47-.5,.59-1.12,.88-1.87,.88-.93,0-1.64-.33-2.15-1s-.76-1.47-.76-2.41c0-.64,.12-1.24,.35-1.78s.57-.96,1.01-1.26c.44-.3,.96-.44,1.56-.44,.8,0,1.45,.32,1.97,.96v-.81h1.05v5.83c0,1.05-.11,1.79-.32,2.23-.21,.44-.55,.78-1.02,1.04-.46,.25-1.03,.38-1.71,.38-.8,0-1.45-.18-1.95-.54-.5-.36-.73-.91-.72-1.63Zm.95-4.05c0,.88,.18,1.53,.53,1.94s.79,.61,1.32,.61,.96-.2,1.32-.61,.53-1.04,.53-1.9-.18-1.45-.55-1.87c-.37-.42-.81-.63-1.32-.63s-.94,.21-1.29,.62c-.36,.41-.53,1.03-.53,1.84Z" style="fill: #059799;"/>
        <path d="M144.46,133.42c0-1.25,.35-2.17,1.04-2.77,.58-.5,1.29-.75,2.12-.75,.93,0,1.68,.3,2.27,.91s.88,1.45,.88,2.52c0,.87-.13,1.55-.39,2.05-.26,.5-.64,.88-1.14,1.16-.5,.27-1.04,.41-1.63,.41-.94,0-1.71-.3-2.29-.91-.58-.6-.87-1.48-.87-2.62Zm1.17,0c0,.86,.19,1.51,.56,1.94s.85,.64,1.42,.64,1.04-.22,1.42-.65,.56-1.09,.56-1.97c0-.83-.19-1.47-.57-1.9-.38-.43-.85-.64-1.41-.64s-1.05,.21-1.42,.64-.56,1.07-.56,1.94Z" style="fill: #059799;"/>
        <path d="M152.09,136.79v-9.31h1.14v9.31h-1.14Z" style="fill: #059799;"/>
        <path d="M159.4,135.96c-.42,.36-.83,.61-1.22,.76-.39,.15-.81,.22-1.26,.22-.74,0-1.31-.18-1.71-.54-.4-.36-.6-.82-.6-1.39,0-.33,.08-.63,.23-.9,.15-.27,.35-.49,.59-.66,.24-.17,.52-.29,.82-.37,.22-.06,.56-.12,1.02-.17,.92-.11,1.6-.24,2.04-.39,0-.16,0-.26,0-.3,0-.47-.11-.79-.32-.98-.29-.26-.73-.39-1.3-.39-.54,0-.93,.09-1.19,.28-.26,.19-.45,.52-.57,1l-1.12-.15c.1-.48,.27-.86,.5-1.16s.57-.52,1.01-.68c.44-.16,.95-.24,1.53-.24s1.04,.07,1.4,.2,.62,.31,.79,.51,.29,.46,.36,.78c.04,.2,.06,.55,.06,1.05v1.52c0,1.06,.02,1.73,.07,2.01,.05,.28,.15,.55,.29,.81h-1.19c-.12-.24-.19-.51-.23-.83Zm-.1-2.55c-.41,.17-1.04,.31-1.87,.43-.47,.07-.8,.14-1,.23-.19,.08-.34,.21-.45,.37s-.16,.34-.16,.54c0,.3,.12,.56,.35,.76,.23,.2,.57,.3,1.01,.3s.83-.1,1.17-.29,.59-.46,.76-.79c.12-.26,.18-.64,.18-1.14v-.42Z" style="fill: #059799;"/>
      </g>
    </g>
    <g>
      <line x1="169.38" y1="33.14" x2="279.38" y2="122.89" style="fill: none; stroke: #059799; stroke-width: 2px;"/>
      <circle cx="169.38" cy="33.14" r="5" style="fill: #059799; stroke: #f9ffff;"/>
      <circle cx="279.38" cy="122.89" r="5" style="fill: #059799; stroke: #f9ffff;"/>
      <g style="isolation: isolate;">
        <path d="M87.52,30.15l1.16-.1c.06,.47,.18,.85,.38,1.15,.2,.3,.51,.54,.94,.72,.42,.18,.9,.28,1.43,.28,.47,0,.88-.07,1.24-.21s.63-.33,.8-.57c.18-.24,.26-.51,.26-.8s-.08-.55-.25-.76-.45-.4-.84-.55c-.25-.1-.8-.25-1.66-.45s-1.45-.4-1.8-.58c-.44-.23-.78-.52-.99-.87-.22-.34-.33-.73-.33-1.16,0-.47,.13-.91,.4-1.32s.66-.72,1.17-.93c.51-.21,1.08-.32,1.71-.32,.69,0,1.3,.11,1.83,.33,.53,.22,.93,.55,1.22,.98s.44,.92,.46,1.47l-1.18,.09c-.06-.59-.28-1.03-.64-1.33-.37-.3-.91-.45-1.62-.45s-1.29,.14-1.63,.41c-.34,.27-.51,.6-.51,.99,0,.33,.12,.61,.36,.83,.24,.22,.86,.44,1.86,.66,1,.23,1.69,.42,2.06,.59,.54,.25,.94,.57,1.2,.95s.39,.82,.39,1.32-.14,.96-.43,1.4c-.28,.44-.69,.78-1.22,1.02-.53,.24-1.13,.36-1.79,.36-.84,0-1.55-.12-2.12-.37-.57-.25-1.02-.62-1.34-1.11-.32-.49-.49-1.05-.51-1.67Z" style="fill: #059799;"/>
        <path d="M96.47,25.15v-1.31h1.14v1.31h-1.14Zm0,7.99v-6.74h1.14v6.74h-1.14Z" style="fill: #059799;"/>
        <path d="M103.97,30.97l1.18,.15c-.19,.69-.53,1.23-1.03,1.61s-1.15,.57-1.93,.57c-.99,0-1.77-.3-2.35-.91-.58-.61-.87-1.46-.87-2.55s.29-2.01,.88-2.64,1.34-.94,2.27-.94,1.64,.31,2.21,.92c.57,.61,.86,1.48,.86,2.59,0,.07,0,.17,0,.3h-5.03c.04,.74,.25,1.31,.63,1.7,.38,.39,.85,.59,1.41,.59,.42,0,.78-.11,1.07-.33s.53-.57,.7-1.05Zm-3.75-1.85h3.76c-.05-.57-.19-.99-.43-1.28-.36-.44-.84-.66-1.42-.66-.52,0-.97,.18-1.32,.53-.36,.35-.56,.82-.59,1.41Z" style="fill: #059799;"/>
        <path d="M106.57,33.14v-6.74h1.03v1.02c.26-.48,.5-.79,.73-.95,.22-.15,.47-.23,.73-.23,.39,0,.78,.12,1.17,.37l-.39,1.06c-.28-.17-.56-.25-.84-.25-.25,0-.47,.08-.67,.23s-.34,.36-.43,.62c-.13,.41-.19,.85-.19,1.33v3.53h-1.14Z" style="fill: #059799;"/>
        <path d="M110.9,33.14v-6.74h1.03v1.02c.26-.48,.5-.79,.73-.95,.22-.15,.47-.23,.73-.23,.39,0,.78,.12,1.17,.37l-.39,1.06c-.28-.17-.56-.25-.84-.25-.25,0-.47,.08-.67,.23s-.34,.36-.43,.62c-.13,.41-.19,.85-.19,1.33v3.53h-1.14Z" style="fill: #059799;"/>
        <path d="M119.64,32.31c-.42,.36-.83,.61-1.22,.76-.39,.15-.81,.22-1.26,.22-.74,0-1.31-.18-1.71-.54-.4-.36-.6-.82-.6-1.39,0-.33,.08-.63,.23-.9,.15-.27,.35-.49,.59-.66,.24-.17,.52-.29,.82-.37,.22-.06,.56-.12,1.02-.17,.92-.11,1.6-.24,2.04-.39,0-.16,0-.26,0-.3,0-.47-.11-.79-.32-.98-.29-.26-.73-.39-1.3-.39-.54,0-.93,.09-1.19,.28-.26,.19-.45,.52-.57,1l-1.12-.15c.1-.48,.27-.86,.5-1.16s.57-.52,1.01-.68c.44-.16,.95-.24,1.53-.24s1.04,.07,1.4,.2,.62,.31,.79,.51,.29,.46,.36,.78c.04,.2,.06,.55,.06,1.05v1.52c0,1.06,.02,1.73,.07,2.01,.05,.28,.15,.55,.29,.81h-1.19c-.12-.24-.19-.51-.23-.83Zm-.1-2.55c-.41,.17-1.04,.31-1.87,.43-.47,.07-.8,.14-1,.23-.19,.08-.34,.21-.45,.37s-.16,.34-.16,.54c0,.3,.12,.56,.35,.76,.23,.2,.57,.3,1.01,.3s.83-.1,1.17-.29,.59-.46,.76-.79c.12-.26,.18-.64,.18-1.14v-.42Z" style="fill: #059799;"/>
        <path d="M126.18,33.14v-9.31h1.23v8.21h4.58v1.1h-5.81Z" style="fill: #059799;"/>
        <path d="M137.93,30.97l1.18,.15c-.19,.69-.53,1.23-1.03,1.61s-1.15,.57-1.93,.57c-.99,0-1.77-.3-2.35-.91-.58-.61-.87-1.46-.87-2.55s.29-2.01,.88-2.64,1.34-.94,2.27-.94,1.64,.31,2.21,.92c.57,.61,.86,1.48,.86,2.59,0,.07,0,.17,0,.3h-5.03c.04,.74,.25,1.31,.63,1.7,.38,.39,.85,.59,1.41,.59,.42,0,.78-.11,1.07-.33s.53-.57,.7-1.05Zm-3.75-1.85h3.76c-.05-.57-.19-.99-.43-1.28-.36-.44-.84-.66-1.42-.66-.52,0-.97,.18-1.32,.53-.36,.35-.56,.82-.59,1.41Z" style="fill: #059799;"/>
        <path d="M140.12,29.77c0-1.25,.35-2.17,1.04-2.77,.58-.5,1.29-.75,2.12-.75,.93,0,1.68,.3,2.27,.91s.88,1.45,.88,2.52c0,.87-.13,1.55-.39,2.05-.26,.5-.64,.88-1.14,1.16-.5,.27-1.04,.41-1.63,.41-.94,0-1.71-.3-2.29-.91-.58-.6-.87-1.48-.87-2.62Zm1.17,0c0,.86,.19,1.51,.56,1.94s.85,.64,1.42,.64,1.04-.22,1.42-.65,.56-1.09,.56-1.97c0-.83-.19-1.47-.57-1.9-.38-.43-.85-.64-1.41-.64s-1.05,.21-1.42,.64-.56,1.07-.56,1.94Z" style="fill: #059799;"/>
        <path d="M147.77,33.14v-6.74h1.03v.96c.5-.74,1.21-1.11,2.15-1.11,.41,0,.78,.07,1.12,.22,.34,.15,.6,.34,.76,.58,.17,.24,.29,.52,.36,.84,.04,.21,.06,.58,.06,1.11v4.14h-1.14v-4.1c0-.47-.04-.81-.13-1.04s-.25-.42-.47-.55c-.23-.14-.49-.21-.8-.21-.49,0-.91,.15-1.26,.46-.35,.31-.53,.89-.53,1.76v3.68h-1.14Z" style="fill: #059799;"/>
        <path d="M159.62,30.97l1.18,.15c-.19,.69-.53,1.23-1.03,1.61s-1.15,.57-1.93,.57c-.99,0-1.77-.3-2.35-.91-.58-.61-.87-1.46-.87-2.55s.29-2.01,.88-2.64,1.34-.94,2.27-.94,1.64,.31,2.21,.92c.57,.61,.86,1.48,.86,2.59,0,.07,0,.17,0,.3h-5.03c.04,.74,.25,1.31,.63,1.7,.38,.39,.85,.59,1.41,.59,.42,0,.78-.11,1.07-.33s.53-.57,.7-1.05Zm-3.75-1.85h3.76c-.05-.57-.19-.99-.43-1.28-.36-.44-.84-.66-1.42-.66-.52,0-.97,.18-1.32,.53-.36,.35-.56,.82-.59,1.41Z" style="fill: #059799;"/>
      </g>
    </g>
    <g>
      <line x1="169.38" y1="69.57" x2="279.38" y2="147.39" style="fill: none; stroke: #059799; stroke-width: 2px;"/>
      <circle cx="169.38" cy="69.57" r="5" style="fill: #059799; stroke: #f9ffff;"/>
      <circle cx="279.38" cy="147.39" r="5" style="fill: #059799; stroke: #f9ffff;"/>
      <g style="isolation: isolate;">
        <path d="M115,66.58l1.16-.1c.06,.47,.18,.85,.38,1.15,.2,.3,.51,.54,.94,.72,.42,.18,.9,.28,1.43,.28,.47,0,.88-.07,1.24-.21s.63-.33,.8-.57c.18-.24,.26-.51,.26-.8s-.08-.55-.25-.76-.45-.4-.84-.55c-.25-.1-.8-.25-1.66-.45s-1.45-.4-1.8-.58c-.44-.23-.78-.52-.99-.87-.22-.34-.33-.73-.33-1.16,0-.47,.13-.91,.4-1.32s.66-.72,1.17-.93c.51-.21,1.08-.32,1.71-.32,.69,0,1.3,.11,1.83,.33,.53,.22,.93,.55,1.22,.98s.44,.92,.46,1.47l-1.18,.09c-.06-.59-.28-1.03-.64-1.33-.37-.3-.91-.45-1.62-.45s-1.29,.14-1.63,.41c-.34,.27-.51,.6-.51,.99,0,.33,.12,.61,.36,.83,.24,.22,.86,.44,1.86,.66,1,.23,1.69,.42,2.06,.59,.54,.25,.94,.57,1.2,.95s.39,.82,.39,1.32-.14,.96-.43,1.4c-.28,.44-.69,.78-1.22,1.02-.53,.24-1.13,.36-1.79,.36-.84,0-1.55-.12-2.12-.37-.57-.25-1.02-.62-1.34-1.11-.32-.49-.49-1.05-.51-1.67Z" style="fill: #059799;"/>
        <path d="M123.51,66.2c0-1.25,.35-2.17,1.04-2.77,.58-.5,1.29-.75,2.12-.75,.93,0,1.68,.3,2.27,.91s.88,1.45,.88,2.52c0,.87-.13,1.55-.39,2.05-.26,.5-.64,.88-1.14,1.16-.5,.27-1.04,.41-1.63,.41-.94,0-1.71-.3-2.29-.91-.58-.6-.87-1.48-.87-2.62Zm1.17,0c0,.86,.19,1.51,.56,1.94s.85,.64,1.42,.64,1.04-.22,1.42-.65,.56-1.09,.56-1.97c0-.83-.19-1.47-.57-1.9-.38-.43-.85-.64-1.41-.64s-1.05,.21-1.42,.64-.56,1.07-.56,1.94Z" style="fill: #059799;"/>
        <path d="M131.17,69.57v-6.74h1.02v.95c.21-.33,.49-.6,.84-.8s.75-.3,1.2-.3c.5,0,.91,.1,1.23,.31,.32,.21,.54,.5,.68,.87,.53-.79,1.23-1.18,2.08-1.18,.67,0,1.18,.19,1.54,.56s.54,.94,.54,1.71v4.63h-1.14v-4.25c0-.46-.04-.79-.11-.99-.07-.2-.21-.36-.4-.49-.19-.12-.42-.18-.69-.18-.47,0-.87,.16-1.18,.47s-.47,.82-.47,1.51v3.92h-1.14v-4.38c0-.51-.09-.89-.28-1.14s-.49-.38-.91-.38c-.32,0-.62,.08-.89,.25-.27,.17-.47,.42-.59,.74-.12,.33-.18,.79-.18,1.41v3.5h-1.14Z" style="fill: #059799;"/>
        <path d="M146.4,68.74c-.42,.36-.83,.61-1.22,.76-.39,.15-.81,.22-1.26,.22-.74,0-1.31-.18-1.71-.54-.4-.36-.6-.82-.6-1.39,0-.33,.08-.63,.23-.9,.15-.27,.35-.49,.59-.66,.24-.17,.52-.29,.82-.37,.22-.06,.56-.12,1.02-.17,.92-.11,1.6-.24,2.04-.39,0-.16,0-.26,0-.3,0-.47-.11-.79-.32-.98-.29-.26-.73-.39-1.3-.39-.54,0-.93,.09-1.19,.28-.26,.19-.45,.52-.57,1l-1.12-.15c.1-.48,.27-.86,.5-1.16s.57-.52,1.01-.68c.44-.16,.95-.24,1.53-.24s1.04,.07,1.4,.2,.62,.31,.79,.51,.29,.46,.36,.78c.04,.2,.06,.55,.06,1.05v1.52c0,1.06,.02,1.73,.07,2.01,.05,.28,.15,.55,.29,.81h-1.19c-.12-.24-.19-.51-.23-.83Zm-.1-2.55c-.41,.17-1.04,.31-1.87,.43-.47,.07-.8,.14-1,.23-.19,.08-.34,.21-.45,.37s-.16,.34-.16,.54c0,.3,.12,.56,.35,.76,.23,.2,.57,.3,1.01,.3s.83-.1,1.17-.29,.59-.46,.76-.79c.12-.26,.18-.64,.18-1.14v-.42Z" style="fill: #059799;"/>
        <path d="M149.2,69.57v-9.31h1.14v9.31h-1.14Z" style="fill: #059799;"/>
        <path d="M152.12,61.58v-1.31h1.14v1.31h-1.14Zm0,7.99v-6.74h1.14v6.74h-1.14Z" style="fill: #059799;"/>
        <path d="M159.4,68.74c-.42,.36-.83,.61-1.22,.76-.39,.15-.81,.22-1.26,.22-.74,0-1.31-.18-1.71-.54-.4-.36-.6-.82-.6-1.39,0-.33,.08-.63,.23-.9,.15-.27,.35-.49,.59-.66,.24-.17,.52-.29,.82-.37,.22-.06,.56-.12,1.02-.17,.92-.11,1.6-.24,2.04-.39,0-.16,0-.26,0-.3,0-.47-.11-.79-.32-.98-.29-.26-.73-.39-1.3-.39-.54,0-.93,.09-1.19,.28-.26,.19-.45,.52-.57,1l-1.12-.15c.1-.48,.27-.86,.5-1.16s.57-.52,1.01-.68c.44-.16,.95-.24,1.53-.24s1.04,.07,1.4,.2,.62,.31,.79,.51,.29,.46,.36,.78c.04,.2,.06,.55,.06,1.05v1.52c0,1.06,.02,1.73,.07,2.01,.05,.28,.15,.55,.29,.81h-1.19c-.12-.24-.19-.51-.23-.83Zm-.1-2.55c-.41,.17-1.04,.31-1.87,.43-.47,.07-.8,.14-1,.23-.19,.08-.34,.21-.45,.37s-.16,.34-.16,.54c0,.3,.12,.56,.35,.76,.23,.2,.57,.3,1.01,.3s.83-.1,1.17-.29,.59-.46,.76-.79c.12-.26,.18-.64,.18-1.14v-.42Z" style="fill: #059799;"/>
      </g>
    </g>
    <g>
      <line x1="169.38" y1="214.62" x2="279.38" y2="292.11" style="fill: none; stroke: #059799; stroke-width: 2px;"/>
      <circle cx="169.38" cy="214.62" r="5" style="fill: #059799; stroke: #f9ffff;"/>
      <circle cx="279.38" cy="292.11" r="5" style="fill: #059799; stroke: #f9ffff;"/>
      <g style="isolation: isolate;">
        <path d="M121.89,214.62v-9.31h1.85l2.2,6.59c.2,.61,.35,1.07,.44,1.38,.11-.34,.27-.83,.5-1.49l2.23-6.47h1.66v9.31h-1.19v-7.79l-2.7,7.79h-1.11l-2.69-7.92v7.92h-1.19Z" style="fill: #059799;"/>
        <path d="M137.01,213.78c-.42,.36-.83,.61-1.22,.76-.39,.15-.81,.22-1.26,.22-.74,0-1.31-.18-1.71-.54-.4-.36-.6-.82-.6-1.39,0-.33,.08-.63,.23-.9,.15-.27,.35-.49,.59-.66,.24-.17,.52-.29,.82-.37,.22-.06,.56-.12,1.02-.17,.92-.11,1.6-.24,2.04-.39,0-.16,0-.26,0-.3,0-.47-.11-.79-.32-.98-.29-.26-.73-.39-1.3-.39-.54,0-.93,.09-1.19,.28-.26,.19-.45,.52-.57,1l-1.12-.15c.1-.48,.27-.86,.5-1.16s.57-.52,1.01-.68c.44-.16,.95-.24,1.53-.24s1.04,.07,1.4,.2,.62,.31,.79,.51,.29,.46,.36,.78c.04,.2,.06,.55,.06,1.05v1.52c0,1.06,.02,1.73,.07,2.01,.05,.28,.15,.55,.29,.81h-1.19c-.12-.24-.19-.51-.23-.83Zm-.1-2.55c-.41,.17-1.04,.31-1.87,.43-.47,.07-.8,.14-1,.23-.19,.08-.34,.21-.45,.37s-.16,.34-.16,.54c0,.3,.12,.56,.35,.76,.23,.2,.57,.3,1.01,.3s.83-.1,1.17-.29,.59-.46,.76-.79c.12-.26,.18-.64,.18-1.14v-.42Z" style="fill: #059799;"/>
        <path d="M139.81,214.62v-9.31h1.14v9.31h-1.14Z" style="fill: #059799;"/>
        <path d="M147.13,213.78c-.42,.36-.83,.61-1.22,.76-.39,.15-.81,.22-1.26,.22-.74,0-1.31-.18-1.71-.54-.4-.36-.6-.82-.6-1.39,0-.33,.08-.63,.23-.9,.15-.27,.35-.49,.59-.66,.24-.17,.52-.29,.82-.37,.22-.06,.56-.12,1.02-.17,.92-.11,1.6-.24,2.04-.39,0-.16,0-.26,0-.3,0-.47-.11-.79-.32-.98-.29-.26-.73-.39-1.3-.39-.54,0-.93,.09-1.19,.28-.26,.19-.45,.52-.57,1l-1.12-.15c.1-.48,.27-.86,.5-1.16s.57-.52,1.01-.68c.44-.16,.95-.24,1.53-.24s1.04,.07,1.4,.2,.62,.31,.79,.51,.29,.46,.36,.78c.04,.2,.06,.55,.06,1.05v1.52c0,1.06,.02,1.73,.07,2.01,.05,.28,.15,.55,.29,.81h-1.19c-.12-.24-.19-.51-.23-.83Zm-.1-2.55c-.41,.17-1.04,.31-1.87,.43-.47,.07-.8,.14-1,.23-.19,.08-.34,.21-.45,.37s-.16,.34-.16,.54c0,.3,.12,.56,.35,.76,.23,.2,.57,.3,1.01,.3s.83-.1,1.17-.29,.59-.46,.76-.79c.12-.26,.18-.64,.18-1.14v-.42Z" style="fill: #059799;"/>
        <path d="M151.2,214.62l-2.06-6.74h1.18l1.07,3.89,.4,1.45c.02-.07,.13-.54,.35-1.39l1.07-3.95h1.17l1.01,3.91,.34,1.29,.39-1.3,1.16-3.9h1.11l-2.11,6.74h-1.19l-1.07-4.04-.26-1.15-1.36,5.19h-1.19Z" style="fill: #059799;"/>
        <path d="M159.35,206.62v-1.31h1.14v1.31h-1.14Zm0,7.99v-6.74h1.14v6.74h-1.14Z" style="fill: #059799;"/>
      </g>
    </g>
    <g>
      <line x1="169.38" y1="317.61" x2="279.38" y2="283.17" style="fill: none; stroke: #ac2c5a; stroke-width: 2px;"/>
      <circle cx="169.38" cy="317.61" r="5" style="fill: #ac2c5a; stroke: #f9ffff;"/>
      <circle cx="279.38" cy="283.17" r="5" style="fill: #ac2c5a; stroke: #f9ffff;"/>
      <g style="isolation: isolate;">
        <path d="M108.2,307.61v-9.31h3.21c.72,0,1.28,.04,1.66,.13,.53,.12,.99,.34,1.36,.67,.49,.42,.86,.94,1.1,1.59,.24,.65,.37,1.38,.37,2.21,0,.71-.08,1.33-.25,1.88-.17,.54-.38,1-.63,1.35s-.54,.64-.85,.84c-.31,.21-.68,.36-1.11,.47-.43,.11-.93,.16-1.49,.16h-3.36Zm1.23-1.1h1.99c.61,0,1.1-.06,1.44-.17,.35-.11,.63-.28,.83-.48,.29-.29,.52-.68,.68-1.18,.16-.49,.24-1.09,.24-1.79,0-.97-.16-1.72-.48-2.24-.32-.52-.71-.87-1.16-1.05-.33-.13-.86-.19-1.59-.19h-1.96v7.11Z" style="fill: #ac2c5a;"/>
        <path d="M117.01,304.24c0-1.25,.35-2.17,1.04-2.77,.58-.5,1.29-.75,2.12-.75,.93,0,1.68,.3,2.27,.91s.88,1.45,.88,2.52c0,.87-.13,1.55-.39,2.05-.26,.5-.64,.88-1.14,1.16-.5,.27-1.04,.41-1.63,.41-.94,0-1.71-.3-2.29-.91-.58-.6-.87-1.48-.87-2.62Zm1.17,0c0,.86,.19,1.51,.56,1.94s.85,.64,1.42,.64,1.04-.22,1.42-.65,.56-1.09,.56-1.97c0-.83-.19-1.47-.57-1.9-.38-.43-.85-.64-1.41-.64s-1.05,.21-1.42,.64-.56,1.07-.56,1.94Z" style="fill: #ac2c5a;"/>
        <path d="M124.67,307.61v-6.74h1.02v.95c.21-.33,.49-.6,.84-.8s.75-.3,1.2-.3c.5,0,.91,.1,1.23,.31,.32,.21,.54,.5,.68,.87,.53-.79,1.23-1.18,2.08-1.18,.67,0,1.18,.19,1.54,.56s.54,.94,.54,1.71v4.63h-1.14v-4.25c0-.46-.04-.79-.11-.99-.07-.2-.21-.36-.4-.49-.19-.12-.42-.18-.69-.18-.47,0-.87,.16-1.18,.47s-.47,.82-.47,1.51v3.92h-1.14v-4.38c0-.51-.09-.89-.28-1.14s-.49-.38-.91-.38c-.32,0-.62,.08-.89,.25-.27,.17-.47,.42-.59,.74-.12,.33-.18,.79-.18,1.41v3.5h-1.14Z" style="fill: #ac2c5a;"/>
        <path d="M135.5,299.61v-1.31h1.14v1.31h-1.14Zm0,7.99v-6.74h1.14v6.74h-1.14Z" style="fill: #ac2c5a;"/>
        <path d="M138.39,307.61v-6.74h1.03v.96c.5-.74,1.21-1.11,2.15-1.11,.41,0,.78,.07,1.12,.22,.34,.15,.6,.34,.76,.58,.17,.24,.29,.52,.36,.84,.04,.21,.06,.58,.06,1.11v4.14h-1.14v-4.1c0-.47-.04-.81-.13-1.04s-.25-.42-.47-.55c-.23-.14-.49-.21-.8-.21-.49,0-.91,.15-1.26,.46-.35,.31-.53,.89-.53,1.76v3.68h-1.14Z" style="fill: #ac2c5a;"/>
        <path d="M145.62,299.61v-1.31h1.14v1.31h-1.14Zm0,7.99v-6.74h1.14v6.74h-1.14Z" style="fill: #ac2c5a;"/>
        <path d="M152.9,305.14l1.12,.15c-.12,.77-.44,1.38-.94,1.82-.51,.44-1.13,.66-1.86,.66-.92,0-1.66-.3-2.23-.9-.56-.6-.84-1.47-.84-2.59,0-.73,.12-1.36,.36-1.91s.61-.96,1.1-1.23c.49-.27,1.03-.41,1.61-.41,.73,0,1.33,.19,1.8,.56s.76,.9,.9,1.58l-1.11,.17c-.11-.45-.29-.79-.56-1.02-.27-.23-.59-.34-.97-.34-.58,0-1.04,.21-1.4,.62-.36,.41-.54,1.07-.54,1.96s.17,1.56,.52,1.97c.35,.41,.8,.62,1.36,.62,.45,0,.82-.14,1.12-.41,.3-.28,.49-.7,.57-1.27Z" style="fill: #ac2c5a;"/>
        <path d="M159.4,306.77c-.42,.36-.83,.61-1.22,.76-.39,.15-.81,.22-1.26,.22-.74,0-1.31-.18-1.71-.54-.4-.36-.6-.82-.6-1.39,0-.33,.08-.63,.23-.9,.15-.27,.35-.49,.59-.66,.24-.17,.52-.29,.82-.37,.22-.06,.56-.12,1.02-.17,.92-.11,1.6-.24,2.04-.39,0-.16,0-.26,0-.3,0-.47-.11-.79-.32-.98-.29-.26-.73-.39-1.3-.39-.54,0-.93,.09-1.19,.28-.26,.19-.45,.52-.57,1l-1.12-.15c.1-.48,.27-.86,.5-1.16s.57-.52,1.01-.68c.44-.16,.95-.24,1.53-.24s1.04,.07,1.4,.2,.62,.31,.79,.51,.29,.46,.36,.78c.04,.2,.06,.55,.06,1.05v1.52c0,1.06,.02,1.73,.07,2.01,.05,.28,.15,.55,.29,.81h-1.19c-.12-.24-.19-.51-.23-.83Zm-.1-2.55c-.41,.17-1.04,.31-1.87,.43-.47,.07-.8,.14-1,.23-.19,.08-.34,.21-.45,.37s-.16,.34-.16,.54c0,.3,.12,.56,.35,.76,.23,.2,.57,.3,1.01,.3s.83-.1,1.17-.29,.59-.46,.76-.79c.12-.26,.18-.64,.18-1.14v-.42Z" style="fill: #ac2c5a;"/>
      </g>
    </g>
    <g>
      <line x1="169.38" y1="330.85" x2="279.38" y2="315.29" style="fill: none; stroke: #ac2c5a; stroke-width: 2px;"/>
      <circle cx="169.38" cy="330.85" r="5" style="fill: #ac2c5a; stroke: #f9ffff;"/>
      <circle cx="279.38" cy="315.29" r="5" style="fill: #ac2c5a; stroke: #f9ffff;"/>
      <g style="isolation: isolate;">
        <path d="M97.64,331.86l1.16-.1c.06,.47,.18,.85,.38,1.15,.2,.3,.51,.54,.94,.72,.42,.18,.9,.28,1.43,.28,.47,0,.88-.07,1.24-.21s.63-.33,.8-.57c.18-.24,.26-.51,.26-.8s-.08-.55-.25-.76-.45-.4-.84-.55c-.25-.1-.8-.25-1.66-.45s-1.45-.4-1.8-.58c-.44-.23-.78-.52-.99-.87-.22-.34-.33-.73-.33-1.16,0-.47,.13-.91,.4-1.32s.66-.72,1.17-.93c.51-.21,1.08-.32,1.71-.32,.69,0,1.3,.11,1.83,.33,.53,.22,.93,.55,1.22,.98s.44,.92,.46,1.47l-1.18,.09c-.06-.59-.28-1.03-.64-1.33-.37-.3-.91-.45-1.62-.45s-1.29,.14-1.63,.41c-.34,.27-.51,.6-.51,.99,0,.33,.12,.61,.36,.83,.24,.22,.86,.44,1.86,.66,1,.23,1.69,.42,2.06,.59,.54,.25,.94,.57,1.2,.95s.39,.82,.39,1.32-.14,.96-.43,1.4c-.28,.44-.69,.78-1.22,1.02-.53,.24-1.13,.36-1.79,.36-.84,0-1.55-.12-2.12-.37-.57-.25-1.02-.62-1.34-1.11-.32-.49-.49-1.05-.51-1.67Z" style="fill: #ac2c5a;"/>
        <path d="M110.98,334.02c-.42,.36-.83,.61-1.22,.76-.39,.15-.81,.22-1.26,.22-.74,0-1.31-.18-1.71-.54-.4-.36-.6-.82-.6-1.39,0-.33,.08-.63,.23-.9,.15-.27,.35-.49,.59-.66,.24-.17,.52-.29,.82-.37,.22-.06,.56-.12,1.02-.17,.92-.11,1.6-.24,2.04-.39,0-.16,0-.26,0-.3,0-.47-.11-.79-.32-.98-.29-.26-.73-.39-1.3-.39-.54,0-.93,.09-1.19,.28-.26,.19-.45,.52-.57,1l-1.12-.15c.1-.48,.27-.86,.5-1.16s.57-.52,1.01-.68c.44-.16,.95-.24,1.53-.24s1.04,.07,1.4,.2,.62,.31,.79,.51,.29,.46,.36,.78c.04,.2,.06,.55,.06,1.05v1.52c0,1.06,.02,1.73,.07,2.01,.05,.28,.15,.55,.29,.81h-1.19c-.12-.24-.19-.51-.23-.83Zm-.1-2.55c-.41,.17-1.04,.31-1.87,.43-.47,.07-.8,.14-1,.23-.19,.08-.34,.21-.45,.37s-.16,.34-.16,.54c0,.3,.12,.56,.35,.76,.23,.2,.57,.3,1.01,.3s.83-.1,1.17-.29,.59-.46,.76-.79c.12-.26,.18-.64,.18-1.14v-.42Z" style="fill: #ac2c5a;"/>
        <path d="M113.82,326.86v-1.31h1.14v1.31h-1.14Zm0,7.99v-6.74h1.14v6.74h-1.14Z" style="fill: #ac2c5a;"/>
        <path d="M116.7,334.85v-6.74h1.03v.96c.5-.74,1.21-1.11,2.15-1.11,.41,0,.78,.07,1.12,.22,.34,.15,.6,.34,.76,.58,.17,.24,.29,.52,.36,.84,.04,.21,.06,.58,.06,1.11v4.14h-1.14v-4.1c0-.47-.04-.81-.13-1.04s-.25-.42-.47-.55c-.23-.14-.49-.21-.8-.21-.49,0-.91,.15-1.26,.46-.35,.31-.53,.89-.53,1.76v3.68h-1.14Z" style="fill: #ac2c5a;"/>
        <path d="M126.43,333.83l.17,1.01c-.32,.07-.61,.1-.86,.1-.41,0-.74-.07-.96-.2-.23-.13-.39-.3-.48-.52s-.14-.66-.14-1.35v-3.88h-.84v-.89h.84v-1.67l1.14-.69v2.35h1.15v.89h-1.15v3.94c0,.33,.02,.54,.06,.63,.04,.09,.11,.17,.2,.22,.09,.06,.22,.08,.39,.08,.13,0,.29-.01,.5-.04Z" style="fill: #ac2c5a;"/>
        <path d="M131.25,334.85v-9.31h1.23v8.21h4.58v1.1h-5.81Z" style="fill: #ac2c5a;"/>
        <path d="M142.8,334.85v-.99c-.52,.76-1.24,1.14-2.14,1.14-.4,0-.77-.08-1.11-.23-.34-.15-.6-.34-.77-.57-.17-.23-.28-.51-.35-.85-.05-.22-.07-.58-.07-1.07v-4.18h1.14v3.74c0,.6,.02,1,.07,1.21,.07,.3,.22,.54,.46,.71,.23,.17,.52,.26,.86,.26s.66-.09,.96-.26,.51-.42,.64-.72c.12-.3,.19-.74,.19-1.32v-3.61h1.14v6.74h-1.02Z" style="fill: #ac2c5a;"/>
        <path d="M150.02,332.38l1.12,.15c-.12,.77-.44,1.38-.94,1.82-.51,.44-1.13,.66-1.86,.66-.92,0-1.66-.3-2.23-.9-.56-.6-.84-1.47-.84-2.59,0-.73,.12-1.36,.36-1.91s.61-.96,1.1-1.23c.49-.27,1.03-.41,1.61-.41,.73,0,1.33,.19,1.8,.56s.76,.9,.9,1.58l-1.11,.17c-.11-.45-.29-.79-.56-1.02-.27-.23-.59-.34-.97-.34-.58,0-1.04,.21-1.4,.62-.36,.41-.54,1.07-.54,1.96s.17,1.56,.52,1.97c.35,.41,.8,.62,1.36,.62,.45,0,.82-.14,1.12-.41,.3-.28,.49-.7,.57-1.27Z" style="fill: #ac2c5a;"/>
        <path d="M152.12,326.86v-1.31h1.14v1.31h-1.14Zm0,7.99v-6.74h1.14v6.74h-1.14Z" style="fill: #ac2c5a;"/>
        <path d="M159.4,334.02c-.42,.36-.83,.61-1.22,.76-.39,.15-.81,.22-1.26,.22-.74,0-1.31-.18-1.71-.54-.4-.36-.6-.82-.6-1.39,0-.33,.08-.63,.23-.9,.15-.27,.35-.49,.59-.66,.24-.17,.52-.29,.82-.37,.22-.06,.56-.12,1.02-.17,.92-.11,1.6-.24,2.04-.39,0-.16,0-.26,0-.3,0-.47-.11-.79-.32-.98-.29-.26-.73-.39-1.3-.39-.54,0-.93,.09-1.19,.28-.26,.19-.45,.52-.57,1l-1.12-.15c.1-.48,.27-.86,.5-1.16s.57-.52,1.01-.68c.44-.16,.95-.24,1.53-.24s1.04,.07,1.4,.2,.62,.31,.79,.51,.29,.46,.36,.78c.04,.2,.06,.55,.06,1.05v1.52c0,1.06,.02,1.73,.07,2.01,.05,.28,.15,.55,.29,.81h-1.19c-.12-.24-.19-.51-.23-.83Zm-.1-2.55c-.41,.17-1.04,.31-1.87,.43-.47,.07-.8,.14-1,.23-.19,.08-.34,.21-.45,.37s-.16,.34-.16,.54c0,.3,.12,.56,.35,.76,.23,.2,.57,.3,1.01,.3s.83-.1,1.17-.29,.59-.46,.76-.79c.12-.26,.18-.64,.18-1.14v-.42Z" style="fill: #ac2c5a;"/>
      </g>
    </g>
    <g>
      <line x1="169.38" y1="321.91" x2="279.38" y2="311.98" style="fill: none; stroke: #ac2c5a; stroke-width: 2px;"/>
      <circle cx="169.38" cy="321.91" r="5" style="fill: #ac2c5a; stroke: #f9ffff;"/>
      <circle cx="279.38" cy="311.98" r="5" style="fill: #ac2c5a; stroke: #f9ffff;"/>
      <g style="isolation: isolate;">
        <path d="M145.84,321.91v-9.31h6.28v1.1h-5.05v2.88h4.37v1.1h-4.37v4.23h-1.23Z" style="fill: #ac2c5a;"/>
        <path d="M153.58,313.92v-1.31h1.14v1.31h-1.14Zm0,7.99v-6.74h1.14v6.74h-1.14Z" style="fill: #ac2c5a;"/>
        <path d="M155,324.53l.22-.97c.23,.06,.41,.09,.54,.09,.23,0,.41-.08,.52-.23s.17-.54,.17-1.16v-7.08h1.14v7.11c0,.83-.11,1.41-.32,1.73-.27,.42-.73,.63-1.37,.63-.31,0-.61-.04-.9-.12Zm1.45-10.59v-1.33h1.14v1.33h-1.14Z" style="fill: #ac2c5a;"/>
        <path d="M159.35,313.92v-1.31h1.14v1.31h-1.14Zm0,7.99v-6.74h1.14v6.74h-1.14Z" style="fill: #ac2c5a;"/>
      </g>
    </g>
    <g>
      <line x1="169.38" y1="346.75" x2="279.38" y2="339.13" style="fill: none; stroke: #ac2c5a; stroke-width: 2px;"/>
      <circle cx="169.38" cy="346.75" r="5" style="fill: #ac2c5a; stroke: #f9ffff;"/>
      <circle cx="279.38" cy="339.13" r="5" style="fill: #ac2c5a; stroke: #f9ffff;"/>
      <g style="isolation: isolate;">
        <path d="M109.61,346.75v-9.31h1.85l2.2,6.59c.2,.61,.35,1.07,.44,1.38,.11-.34,.27-.83,.5-1.49l2.23-6.47h1.66v9.31h-1.19v-7.79l-2.7,7.79h-1.11l-2.69-7.92v7.92h-1.19Z" style="fill: #ac2c5a;"/>
        <path d="M124.73,345.92c-.42,.36-.83,.61-1.22,.76-.39,.15-.81,.22-1.26,.22-.74,0-1.31-.18-1.71-.54-.4-.36-.6-.82-.6-1.39,0-.33,.08-.63,.23-.9,.15-.27,.35-.49,.59-.66,.24-.17,.52-.29,.82-.37,.22-.06,.56-.12,1.02-.17,.92-.11,1.6-.24,2.04-.39,0-.16,0-.26,0-.3,0-.47-.11-.79-.32-.98-.29-.26-.73-.39-1.3-.39-.54,0-.93,.09-1.19,.28-.26,.19-.45,.52-.57,1l-1.12-.15c.1-.48,.27-.86,.5-1.16s.57-.52,1.01-.68c.44-.16,.95-.24,1.53-.24s1.04,.07,1.4,.2,.62,.31,.79,.51,.29,.46,.36,.78c.04,.2,.06,.55,.06,1.05v1.52c0,1.06,.02,1.73,.07,2.01,.05,.28,.15,.55,.29,.81h-1.19c-.12-.24-.19-.51-.23-.83Zm-.1-2.55c-.41,.17-1.04,.31-1.87,.43-.47,.07-.8,.14-1,.23-.19,.08-.34,.21-.45,.37s-.16,.34-.16,.54c0,.3,.12,.56,.35,.76,.23,.2,.57,.3,1.01,.3s.83-.1,1.17-.29,.59-.46,.76-.79c.12-.26,.18-.64,.18-1.14v-.42Z" style="fill: #ac2c5a;"/>
        <path d="M131.98,346.75v-.99c-.52,.76-1.24,1.14-2.14,1.14-.4,0-.77-.08-1.11-.23-.34-.15-.6-.34-.77-.57-.17-.23-.28-.51-.35-.85-.05-.22-.07-.58-.07-1.07v-4.18h1.14v3.74c0,.6,.02,1,.07,1.21,.07,.3,.22,.54,.46,.71,.23,.17,.52,.26,.86,.26s.66-.09,.96-.26,.51-.42,.64-.72c.12-.3,.19-.74,.19-1.32v-3.61h1.14v6.74h-1.02Z" style="fill: #ac2c5a;"/>
        <path d="M134.77,346.75v-6.74h1.03v1.02c.26-.48,.5-.79,.73-.95,.22-.15,.47-.23,.73-.23,.39,0,.78,.12,1.17,.37l-.39,1.06c-.28-.17-.56-.25-.84-.25-.25,0-.47,.08-.67,.23s-.34,.36-.43,.62c-.13,.41-.19,.85-.19,1.33v3.53h-1.14Z" style="fill: #ac2c5a;"/>
        <path d="M139.12,338.76v-1.31h1.14v1.31h-1.14Zm0,7.99v-6.74h1.14v6.74h-1.14Z" style="fill: #ac2c5a;"/>
        <path d="M144.5,345.73l.17,1.01c-.32,.07-.61,.1-.86,.1-.41,0-.74-.07-.96-.2-.23-.13-.39-.3-.48-.52s-.14-.66-.14-1.35v-3.88h-.84v-.89h.84v-1.67l1.14-.69v2.35h1.15v.89h-1.15v3.94c0,.33,.02,.54,.06,.63,.04,.09,.11,.17,.2,.22,.09,.06,.22,.08,.39,.08,.13,0,.29-.01,.5-.04Z" style="fill: #ac2c5a;"/>
        <path d="M145.62,338.76v-1.31h1.14v1.31h-1.14Zm0,7.99v-6.74h1.14v6.74h-1.14Z" style="fill: #ac2c5a;"/>
        <path d="M152.92,346.75v-.99c-.52,.76-1.24,1.14-2.14,1.14-.4,0-.77-.08-1.11-.23-.34-.15-.6-.34-.77-.57-.17-.23-.28-.51-.35-.85-.05-.22-.07-.58-.07-1.07v-4.18h1.14v3.74c0,.6,.02,1,.07,1.21,.07,.3,.22,.54,.46,.71,.23,.17,.52,.26,.86,.26s.66-.09,.96-.26,.51-.42,.64-.72c.12-.3,.19-.74,.19-1.32v-3.61h1.14v6.74h-1.02Z" style="fill: #ac2c5a;"/>
        <path d="M155.28,344.74l1.13-.18c.06,.45,.24,.8,.53,1.04,.29,.24,.7,.36,1.22,.36s.91-.11,1.17-.32,.38-.46,.38-.75c0-.26-.11-.46-.34-.61-.16-.1-.55-.23-1.17-.39-.84-.21-1.42-.39-1.74-.55-.32-.15-.57-.37-.74-.64-.17-.27-.25-.57-.25-.9,0-.3,.07-.58,.21-.83,.14-.26,.32-.47,.56-.64,.18-.13,.42-.24,.73-.33,.31-.09,.64-.14,.99-.14,.53,0,.99,.08,1.39,.23,.4,.15,.69,.36,.89,.62,.19,.26,.32,.61,.39,1.04l-1.12,.15c-.05-.35-.2-.62-.44-.81-.24-.19-.59-.29-1.03-.29-.52,0-.9,.09-1.12,.26-.22,.17-.34,.38-.34,.61,0,.15,.05,.28,.14,.4,.09,.12,.24,.22,.44,.3,.11,.04,.45,.14,1.01,.29,.81,.22,1.37,.39,1.69,.53,.32,.14,.57,.34,.75,.6s.27,.59,.27,.98-.11,.74-.33,1.08c-.22,.34-.54,.6-.96,.78-.42,.18-.89,.28-1.42,.28-.88,0-1.54-.18-2-.55-.46-.36-.75-.9-.88-1.62Z" style="fill: #ac2c5a;"/>
      </g>
    </g>
    <g>
      <line x1="169.38" y1="361.98" x2="279.38" y2="356.35" style="fill: none; stroke: #ac2c5a; stroke-width: 2px;"/>
      <circle cx="169.38" cy="361.98" r="5" style="fill: #ac2c5a; stroke: #f9ffff;"/>
      <circle cx="279.38" cy="356.35" r="5" style="fill: #ac2c5a; stroke: #f9ffff;"/>
      <g style="isolation: isolate;">
        <path d="M124.75,361.98v-9.31h3.49c.71,0,1.28,.09,1.71,.28,.43,.19,.77,.48,1.01,.87,.24,.39,.37,.8,.37,1.23,0,.4-.11,.77-.32,1.12s-.54,.63-.98,.85c.56,.17,1,.45,1.3,.84,.3,.4,.45,.87,.45,1.41,0,.44-.09,.84-.28,1.21-.18,.38-.41,.66-.68,.87s-.61,.36-1.02,.46c-.41,.1-.91,.16-1.5,.16h-3.55Zm1.23-5.4h2.01c.55,0,.94-.04,1.17-.11,.31-.09,.55-.25,.71-.46,.16-.22,.24-.49,.24-.81,0-.31-.07-.58-.22-.82-.15-.24-.36-.4-.63-.48s-.75-.13-1.42-.13h-1.86v2.81Zm0,4.3h2.32c.4,0,.68-.02,.84-.04,.28-.05,.52-.14,.71-.25s.35-.29,.47-.52,.18-.49,.18-.78c0-.35-.09-.65-.27-.91s-.42-.44-.74-.54c-.32-.1-.77-.16-1.36-.16h-2.15v3.2Z" style="fill: #ac2c5a;"/>
        <path d="M133.31,361.98v-6.74h1.03v1.02c.26-.48,.5-.79,.73-.95,.22-.15,.47-.23,.73-.23,.39,0,.78,.12,1.17,.37l-.39,1.06c-.28-.17-.56-.25-.84-.25-.25,0-.47,.08-.67,.23s-.34,.36-.43,.62c-.13,.41-.19,.85-.19,1.33v3.53h-1.14Z" style="fill: #ac2c5a;"/>
        <path d="M142.07,361.98v-.99c-.52,.76-1.24,1.14-2.14,1.14-.4,0-.77-.08-1.11-.23-.34-.15-.6-.34-.77-.57-.17-.23-.28-.51-.35-.85-.05-.22-.07-.58-.07-1.07v-4.18h1.14v3.74c0,.6,.02,1,.07,1.21,.07,.3,.22,.54,.46,.71,.23,.17,.52,.26,.86,.26s.66-.09,.96-.26,.51-.42,.64-.72c.12-.3,.19-.74,.19-1.32v-3.61h1.14v6.74h-1.02Z" style="fill: #ac2c5a;"/>
        <path d="M144.89,361.98v-6.74h1.03v.96c.5-.74,1.21-1.11,2.15-1.11,.41,0,.78,.07,1.12,.22,.34,.15,.6,.34,.76,.58,.17,.24,.29,.52,.36,.84,.04,.21,.06,.58,.06,1.11v4.14h-1.14v-4.1c0-.47-.04-.81-.13-1.04s-.25-.42-.47-.55c-.23-.14-.49-.21-.8-.21-.49,0-.91,.15-1.26,.46-.35,.31-.53,.89-.53,1.76v3.68h-1.14Z" style="fill: #ac2c5a;"/>
        <path d="M156.73,359.81l1.18,.15c-.19,.69-.53,1.23-1.03,1.61s-1.15,.57-1.93,.57c-.99,0-1.77-.3-2.35-.91-.58-.61-.87-1.46-.87-2.55s.29-2.01,.88-2.64,1.34-.94,2.27-.94,1.64,.31,2.21,.92c.57,.61,.86,1.48,.86,2.59,0,.07,0,.17,0,.3h-5.03c.04,.74,.25,1.31,.63,1.7,.38,.39,.85,.59,1.41,.59,.42,0,.78-.11,1.07-.33s.53-.57,.7-1.05Zm-3.75-1.85h3.76c-.05-.57-.19-.99-.43-1.28-.36-.44-.84-.66-1.42-.66-.52,0-.97,.18-1.32,.53-.36,.35-.56,.82-.59,1.41Z" style="fill: #ac2c5a;"/>
        <path d="M159.35,353.99v-1.31h1.14v1.31h-1.14Zm0,7.99v-6.74h1.14v6.74h-1.14Z" style="fill: #ac2c5a;"/>
      </g>
    </g>
  </g>
  <g style="opacity: 0;">
    <rect x="151.38" y="33.14" width="36" height="20" rx="2" ry="2" style="fill: #059799;"/>
  </g>
  <g style="opacity: 0;">
    <rect x="151.38" y="33.14" width="36" height="20" rx="2" ry="2" style="fill: #059799;"/>
  </g>
</svg>