<?xml version="1.0" encoding="UTF-8"?><svg id="d" xmlns="http://www.w3.org/2000/svg" viewBox="0 0 14.14 16"><path d="M7.07,0c.55,0,1,.45,1,1V6.27l4.56-2.63c.48-.28,1.09-.12,1.37,.36s.12,1.09-.36,1.37c0,0,0,0-.01,0l-4.56,2.63,4.56,2.63c.48,.27,.65,.88,.38,1.36-.27,.48-.88,.65-1.36,.38,0,0,0,0-.01,0l-4.56-2.63v5.27c0,.55-.45,1-1,1s-1-.45-1-1v-5.27L1.51,12.37c-.48,.28-1.09,.12-1.37-.36-.28-.48-.12-1.09,.36-1.37,0,0,0,0,.01,0l4.56-2.63L.51,5.37c-.48-.28-.64-.89-.36-1.37,.28-.47,.88-.63,1.36-.36l4.56,2.63V1c0-.55,.45-1,1-1Z" style="fill:#059799;"/></svg>