<?xml version="1.0" encoding="UTF-8"?>
<svg id="b" data-name="intro" xmlns="http://www.w3.org/2000/svg" viewBox="0 0 604 269">
  <g>
    <path d="M132.36,161.51s20.11-1.97,30.16-3.13c10.06-1.16,20.09-2.87,30.16-3.83,10.04-.96,20.13-.84,30.16-1.93,10.08-1.1,20.08-3.52,30.16-4.69,10.03-1.16,20.13-1.15,30.16-2.31,10.07-1.16,20.09-3.4,30.16-4.66,10.03-1.25,20.1-2.17,30.16-2.85,10.04-.67,20.12-.36,30.16-1.18,10.07-.83,20.09-2.86,30.16-3.79,10.04-.93,30.16-1.82,30.16-1.82" style="fill: none; stroke: #c38d9d; stroke-dasharray: 0 0; stroke-linecap: round; stroke-width: 10px;"/>
    <path d="M132.36,89.91s20.12-.03,30.16-.73c10.07-.7,20.09-2.69,30.16-3.47,10.04-.78,20.11-.65,30.16-1.21,10.06-.57,20.1-1.62,30.16-2.19,10.05-.58,20.12-.55,30.16-1.27,10.06-.72,20.09-2.36,30.16-3.06,10.04-.69,20.1-.97,30.16-1.1,10.05-.13,20.11,.67,30.16,.31,10.06-.36,20.1-1.93,30.16-2.46,10.05-.53,30.16-.73,30.16-.73" style="fill: none; stroke: #e27d5f; stroke-dasharray: 0 0; stroke-linecap: round; stroke-width: 10px;"/>
  </g>
  <g>
    <g>
      <path d="M113.61,200.19v-1.34l5.04-5.52c.59-.65,1.08-1.21,1.46-1.69,.38-.48,.67-.93,.85-1.36,.19-.43,.28-.87,.28-1.34,0-.54-.13-1-.38-1.39-.26-.39-.61-.7-1.05-.91-.44-.21-.94-.32-1.49-.32-.59,0-1.1,.12-1.53,.36-.44,.24-.77,.58-1.01,1.01-.24,.43-.35,.94-.35,1.52h-1.76c0-.89,.21-1.68,.62-2.36,.41-.68,.98-1.2,1.69-1.58,.71-.38,1.52-.57,2.4-.57s1.69,.19,2.38,.57c.69,.38,1.23,.89,1.63,1.53,.39,.64,.59,1.35,.59,2.14,0,.56-.1,1.11-.3,1.64-.2,.53-.55,1.13-1.04,1.78-.49,.65-1.18,1.45-2.05,2.39l-3.43,3.67v.12h7.1v1.64h-9.63Z" style="fill: #021e1e;"/>
      <path d="M131.3,200.4c-1.12,0-2.08-.31-2.87-.92s-1.39-1.51-1.81-2.68-.63-2.59-.63-4.25,.21-3.06,.63-4.23,1.03-2.07,1.82-2.68c.79-.62,1.75-.93,2.86-.93s2.07,.31,2.86,.93c.79,.62,1.4,1.51,1.82,2.68,.42,1.17,.63,2.58,.63,4.23s-.21,3.08-.63,4.25-1.02,2.06-1.81,2.68-1.75,.92-2.87,.92Zm0-1.64c1.11,0,1.98-.54,2.6-1.61,.62-1.07,.92-2.6,.92-4.59,0-1.32-.14-2.45-.42-3.38-.28-.93-.68-1.64-1.21-2.13-.52-.49-1.15-.73-1.89-.73-1.1,0-1.97,.54-2.59,1.63-.62,1.09-.93,2.62-.93,4.6,0,1.32,.14,2.45,.42,3.37,.28,.92,.68,1.63,1.2,2.11,.52,.48,1.16,.72,1.9,.72Z" style="fill: #021e1e;"/>
      <path d="M144.81,184.91v15.27h-1.85v-13.33h-.09l-3.73,2.48v-1.88l3.82-2.54h1.85Z" style="fill: #021e1e;"/>
      <path d="M154.18,200.4c-1.12,0-2.08-.31-2.87-.92s-1.39-1.51-1.81-2.68c-.42-1.17-.63-2.59-.63-4.25s.21-3.06,.63-4.23c.42-1.17,1.03-2.07,1.82-2.68,.79-.62,1.75-.93,2.86-.93s2.07,.31,2.86,.93c.79,.62,1.4,1.51,1.82,2.68s.63,2.58,.63,4.23-.21,3.08-.63,4.25c-.42,1.17-1.02,2.06-1.81,2.68s-1.75,.92-2.87,.92Zm0-1.64c1.11,0,1.98-.54,2.6-1.61,.62-1.07,.92-2.6,.92-4.59,0-1.32-.14-2.45-.42-3.38-.28-.93-.68-1.64-1.21-2.13s-1.15-.73-1.89-.73c-1.1,0-1.97,.54-2.59,1.63-.62,1.09-.93,2.62-.93,4.6,0,1.32,.14,2.45,.42,3.37s.68,1.63,1.2,2.11c.52,.48,1.16,.72,1.9,.72Z" style="fill: #021e1e;"/>
    </g>
    <g>
      <g>
        <line x1="131.95" y1="98.74" x2="131.95" y2="153.4" style="fill: none; stroke: #80c8bd; stroke-linecap: round; stroke-width: 2px;"/>
        <polygon points="123.77 105.37 125.23 106.73 131.95 99.51 138.66 106.73 140.13 105.37 131.95 96.57 123.77 105.37" style="fill: #80c8bd;"/>
        <polygon points="123.77 146.77 125.23 145.41 131.95 152.63 138.66 145.41 140.13 146.77 131.95 155.57 123.77 146.77" style="fill: #80c8bd;"/>
      </g>
      <g>
        <path d="M90.89,134.93c-1.19,0-2.25-.19-3.18-.57-.93-.38-1.66-.9-2.19-1.55-.53-.65-.79-1.39-.79-2.22,0-.63,.15-1.21,.45-1.74,.3-.53,.71-.97,1.23-1.32,.52-.35,1.1-.58,1.74-.67v-.12c-.84-.15-1.53-.54-2.06-1.17-.53-.63-.8-1.36-.8-2.2,0-.8,.24-1.5,.73-2.13,.48-.62,1.15-1.11,1.99-1.47s1.8-.54,2.88-.54,2.04,.18,2.88,.54c.84,.36,1.51,.85,1.99,1.47,.48,.62,.73,1.33,.73,2.13,0,.85-.27,1.58-.81,2.2-.54,.62-1.22,1.01-2.05,1.17v.12c.64,.1,1.21,.32,1.73,.67,.52,.35,.93,.79,1.24,1.32,.31,.53,.46,1.11,.46,1.74,0,.83-.27,1.56-.8,2.22-.53,.65-1.26,1.17-2.19,1.55-.93,.38-1.99,.57-3.18,.57Zm0-2.62c.45,0,.85-.09,1.19-.26s.61-.41,.81-.72c.2-.31,.29-.66,.29-1.04s-.1-.75-.3-1.06c-.2-.31-.47-.55-.82-.73-.35-.18-.74-.26-1.18-.26s-.83,.09-1.18,.26c-.35,.18-.62,.42-.82,.73-.2,.31-.3,.66-.3,1.06s.1,.73,.29,1.04c.2,.31,.47,.55,.81,.72,.35,.17,.74,.26,1.19,.26Zm0-6.67c.39,0,.73-.08,1.03-.24,.3-.16,.54-.38,.71-.66,.17-.28,.26-.6,.26-.96s-.09-.67-.26-.95-.41-.49-.7-.65c-.3-.16-.64-.23-1.04-.23s-.73,.08-1.04,.23c-.3,.16-.54,.37-.71,.65-.17,.27-.25,.59-.25,.95s.09,.68,.26,.96c.17,.28,.41,.5,.71,.66,.3,.16,.65,.24,1.03,.24Z" style="fill: #059799;"/>
        <path d="M99.74,123.12v-.81c0-.64,.14-1.22,.41-1.75,.28-.53,.67-.95,1.19-1.28,.52-.32,1.14-.48,1.88-.48s1.4,.16,1.92,.48c.52,.32,.91,.75,1.18,1.28,.27,.53,.4,1.11,.4,1.75v.81c0,.64-.14,1.22-.41,1.75-.27,.53-.67,.95-1.19,1.26s-1.16,.47-1.91,.47-1.39-.16-1.91-.48-.91-.74-1.18-1.27c-.27-.53-.4-1.1-.4-1.73Zm1.13,11.6l10.5-15.27h2.04l-10.5,15.27h-2.04Zm1.28-12.41v.81c0,.33,.08,.64,.23,.93s.44,.43,.85,.43c.44,0,.73-.14,.88-.43s.22-.6,.22-.93v-.81c0-.33-.07-.65-.21-.94-.14-.3-.44-.44-.89-.44-.42,0-.7,.15-.85,.45-.15,.3-.23,.61-.23,.93Zm5.52,9.55v-.81c0-.63,.14-1.21,.41-1.74s.66-.96,1.18-1.28,1.15-.48,1.89-.48,1.4,.16,1.92,.48c.52,.32,.91,.75,1.18,1.28,.27,.53,.4,1.11,.4,1.75v.81c0,.63-.13,1.21-.4,1.74-.27,.53-.66,.96-1.19,1.28-.52,.32-1.16,.48-1.91,.48s-1.39-.16-1.91-.48c-.52-.32-.91-.75-1.17-1.28-.27-.53-.4-1.11-.4-1.74Zm2.38-.81v.81c0,.32,.08,.62,.23,.92,.16,.29,.45,.44,.87,.44s.72-.14,.87-.43c.15-.29,.22-.6,.22-.93v-.81c0-.33-.07-.65-.21-.94-.14-.3-.44-.44-.88-.44-.42,0-.71,.15-.86,.44-.16,.3-.24,.61-.24,.94Z" style="fill: #059799;"/>
      </g>
    </g>
  </g>
  <g>
    <g>
      <path d="M412.85,171.19v-1.34l5.04-5.52c.59-.65,1.08-1.21,1.46-1.69s.67-.93,.85-1.36,.28-.87,.28-1.34c0-.54-.13-1-.38-1.39-.26-.39-.61-.7-1.05-.91-.44-.21-.94-.32-1.49-.32-.59,0-1.1,.12-1.53,.36s-.77,.58-1.01,1.01c-.24,.43-.35,.94-.35,1.52h-1.76c0-.89,.21-1.68,.62-2.36s.98-1.2,1.69-1.58c.71-.38,1.51-.57,2.41-.57s1.69,.19,2.38,.57c.69,.38,1.23,.89,1.63,1.53,.39,.64,.59,1.35,.59,2.14,0,.56-.1,1.11-.3,1.64-.2,.53-.55,1.13-1.04,1.78-.49,.65-1.18,1.45-2.05,2.39l-3.43,3.67v.12h7.1v1.64h-9.64Z" style="fill: #021e1e;"/>
      <path d="M430.54,171.4c-1.12,0-2.08-.31-2.87-.92s-1.39-1.51-1.81-2.68-.63-2.59-.63-4.25,.21-3.06,.63-4.23,1.03-2.07,1.82-2.68c.79-.62,1.75-.93,2.86-.93s2.07,.31,2.86,.93c.79,.62,1.4,1.51,1.82,2.68s.63,2.58,.63,4.23-.21,3.08-.63,4.25-1.02,2.06-1.81,2.68-1.75,.92-2.87,.92Zm0-1.64c1.11,0,1.98-.54,2.6-1.61,.62-1.07,.92-2.6,.92-4.59,0-1.32-.14-2.45-.42-3.38-.28-.93-.68-1.64-1.21-2.13-.52-.49-1.15-.73-1.89-.73-1.1,0-1.97,.54-2.59,1.63-.62,1.09-.93,2.62-.93,4.6,0,1.32,.14,2.45,.42,3.37,.28,.92,.68,1.63,1.2,2.11,.52,.48,1.16,.72,1.9,.72Z" style="fill: #021e1e;"/>
      <path d="M438.68,171.19v-1.34l5.04-5.52c.59-.65,1.08-1.21,1.46-1.69,.38-.48,.67-.93,.85-1.36s.28-.87,.28-1.34c0-.54-.13-1-.38-1.39-.26-.39-.61-.7-1.05-.91-.44-.21-.94-.32-1.49-.32-.59,0-1.1,.12-1.53,.36-.44,.24-.77,.58-1.01,1.01-.24,.43-.35,.94-.35,1.52h-1.76c0-.89,.21-1.68,.62-2.36,.41-.68,.98-1.2,1.69-1.58,.71-.38,1.51-.57,2.4-.57s1.69,.19,2.38,.57c.69,.38,1.23,.89,1.63,1.53s.59,1.35,.59,2.14c0,.56-.1,1.11-.3,1.64s-.55,1.13-1.04,1.78c-.49,.65-1.18,1.45-2.05,2.39l-3.43,3.67v.12h7.1v1.64h-9.64Z" style="fill: #021e1e;"/>
      <path d="M456.37,171.4c-1.12,0-2.08-.31-2.87-.92s-1.39-1.51-1.81-2.68c-.42-1.17-.63-2.59-.63-4.25s.21-3.06,.63-4.23c.42-1.17,1.03-2.07,1.82-2.68,.79-.62,1.75-.93,2.86-.93s2.07,.31,2.86,.93c.79,.62,1.4,1.51,1.82,2.68,.42,1.17,.63,2.58,.63,4.23s-.21,3.08-.63,4.25c-.42,1.17-1.02,2.06-1.81,2.68s-1.75,.92-2.87,.92Zm0-1.64c1.11,0,1.98-.54,2.6-1.61,.62-1.07,.92-2.6,.92-4.59,0-1.32-.14-2.45-.42-3.38-.28-.93-.68-1.64-1.21-2.13-.52-.49-1.15-.73-1.89-.73-1.1,0-1.97,.54-2.59,1.63-.62,1.09-.93,2.62-.93,4.6,0,1.32,.14,2.45,.42,3.37s.68,1.63,1.2,2.11c.52,.48,1.16,.72,1.9,.72Z" style="fill: #021e1e;"/>
    </g>
    <g>
      <g>
        <line x1="432.95" y1="82.74" x2="432.95" y2="122.4" style="fill: none; stroke: #80c8bd; stroke-linecap: round; stroke-width: 2px;"/>
        <polygon points="424.77 89.37 426.23 90.73 432.95 83.51 439.66 90.73 441.13 89.37 432.95 80.57 424.77 89.37" style="fill: #80c8bd;"/>
        <polygon points="424.77 115.77 426.23 114.41 432.95 121.63 439.66 114.41 441.13 115.77 432.95 124.57 424.77 115.77" style="fill: #80c8bd;"/>
      </g>
      <g>
        <path d="M390.57,110.72l6.16-12.2v-.1h-7.2v-2.98h11.02v3l-6.18,12.27h-3.8Z" style="fill: #059799;"/>
        <path d="M403.22,99.12v-.81c0-.64,.14-1.22,.41-1.75,.28-.53,.67-.95,1.19-1.28,.52-.32,1.14-.48,1.88-.48s1.4,.16,1.92,.48c.52,.32,.91,.75,1.18,1.28,.27,.53,.4,1.11,.4,1.75v.81c0,.64-.14,1.22-.41,1.75-.27,.53-.67,.95-1.19,1.26-.52,.31-1.16,.47-1.91,.47s-1.39-.16-1.91-.48-.91-.74-1.18-1.27c-.27-.53-.4-1.1-.4-1.73Zm1.13,11.6l10.5-15.27h2.04l-10.5,15.27h-2.04Zm1.28-12.41v.81c0,.33,.08,.64,.23,.93,.16,.29,.44,.43,.85,.43,.44,0,.73-.14,.88-.43,.15-.29,.22-.6,.22-.93v-.81c0-.33-.07-.65-.21-.94-.14-.3-.44-.44-.89-.44-.42,0-.7,.15-.85,.45-.15,.3-.23,.61-.23,.93Zm5.52,9.55v-.81c0-.63,.14-1.21,.41-1.74s.67-.96,1.18-1.28,1.15-.48,1.89-.48,1.4,.16,1.92,.48c.52,.32,.91,.75,1.18,1.28,.27,.53,.4,1.11,.4,1.75v.81c0,.63-.13,1.21-.4,1.74s-.66,.96-1.19,1.28c-.52,.32-1.16,.48-1.91,.48s-1.39-.16-1.91-.48c-.52-.32-.91-.75-1.17-1.28s-.4-1.11-.4-1.74Zm2.38-.81v.81c0,.32,.08,.62,.23,.92,.16,.29,.45,.44,.87,.44s.72-.14,.87-.43c.15-.29,.22-.6,.22-.93v-.81c0-.33-.07-.65-.21-.94-.14-.3-.44-.44-.88-.44-.42,0-.71,.15-.86,.44-.16,.3-.24,.61-.24,.94Z" style="fill: #059799;"/>
      </g>
    </g>
  </g>
  <g>
    <g>
      <path d="M447.9,64.97h2.21l5.19,12.68h.18l5.19-12.68h2.21v15.27h-1.73v-11.6h-.15l-4.77,11.6h-1.67l-4.77-11.6h-.15v11.6h-1.73v-15.27Z" style="fill: #021e1e;"/>
      <path d="M471.13,80.48c-1.1,0-2.05-.24-2.85-.73s-1.41-1.18-1.84-2.06c-.43-.88-.65-1.91-.65-3.08s.22-2.21,.65-3.11c.43-.9,1.03-1.6,1.8-2.1s1.68-.76,2.71-.76c.6,0,1.19,.1,1.77,.3,.58,.2,1.11,.52,1.59,.97,.48,.44,.86,1.03,1.14,1.76,.28,.73,.43,1.63,.43,2.7v.75h-8.83v-1.52h7.04c0-.65-.13-1.22-.38-1.73-.26-.51-.62-.91-1.09-1.2-.47-.29-1.02-.44-1.66-.44-.7,0-1.31,.17-1.82,.52s-.9,.79-1.17,1.35c-.27,.55-.41,1.14-.41,1.77v1.01c0,.87,.15,1.6,.45,2.2,.3,.6,.72,1.05,1.26,1.36s1.16,.47,1.87,.47c.46,0,.88-.07,1.26-.2,.38-.13,.7-.33,.97-.6s.48-.6,.63-1l1.7,.48c-.18,.58-.48,1.08-.9,1.52-.42,.44-.94,.77-1.57,1.01s-1.32,.36-2.1,.36Z" style="fill: #021e1e;"/>
      <path d="M480.32,73.35v6.89h-1.76v-11.45h1.7v1.79h.15c.27-.58,.68-1.05,1.22-1.41,.55-.36,1.25-.53,2.12-.53,.78,0,1.45,.16,2.04,.47s1.03,.79,1.36,1.43,.48,1.45,.48,2.42v7.28h-1.76v-7.16c0-.9-.23-1.6-.7-2.11-.47-.5-1.11-.76-1.92-.76-.56,0-1.06,.12-1.5,.37s-.79,.6-1.04,1.07-.38,1.03-.38,1.7Z" style="fill: #021e1e;"/>
    </g>
    <g>
      <path d="M450.67,137.24l-4.18-15.27h1.88l3.19,12.44h.15l3.25-12.44h2.09l3.25,12.44h.15l3.19-12.44h1.88l-4.18,15.27h-1.91l-3.37-12.17h-.12l-3.37,12.17h-1.91Z" style="fill: #021e1e;"/>
      <path d="M471.16,137.48c-1.03,0-1.94-.25-2.72-.74-.78-.49-1.38-1.18-1.82-2.07-.44-.88-.65-1.92-.65-3.1s.22-2.23,.65-3.12c.43-.89,1.04-1.58,1.82-2.07,.78-.49,1.68-.74,2.72-.74s1.94,.25,2.72,.74c.78,.49,1.38,1.18,1.82,2.07,.43,.89,.65,1.93,.65,3.12s-.22,2.22-.65,3.1c-.44,.89-1.04,1.57-1.82,2.07-.78,.49-1.68,.74-2.72,.74Zm0-1.58c.79,0,1.43-.2,1.94-.6,.51-.4,.88-.93,1.13-1.59s.37-1.37,.37-2.13-.12-1.48-.37-2.14-.62-1.2-1.13-1.6-1.15-.61-1.94-.61-1.43,.2-1.94,.61c-.51,.41-.88,.94-1.13,1.6s-.37,1.37-.37,2.14,.12,1.48,.37,2.13,.62,1.19,1.13,1.59c.51,.4,1.15,.6,1.94,.6Z" style="fill: #021e1e;"/>
      <path d="M479.04,137.24v-11.45h1.7v1.79h.15c.24-.61,.62-1.09,1.16-1.43,.53-.34,1.17-.51,1.92-.51s1.39,.17,1.89,.51c.5,.34,.9,.82,1.18,1.43h.12c.29-.59,.73-1.06,1.32-1.41,.59-.35,1.29-.53,2.11-.53,1.02,0,1.86,.32,2.51,.96,.65,.64,.98,1.63,.98,2.98v7.67h-1.76v-7.67c0-.84-.23-1.45-.69-1.81-.46-.36-1.01-.54-1.63-.54-.81,0-1.43,.24-1.87,.73-.44,.48-.66,1.1-.66,1.84v7.46h-1.79v-7.85c0-.65-.21-1.18-.63-1.58-.42-.4-.97-.6-1.63-.6-.46,0-.88,.12-1.28,.37-.4,.24-.71,.58-.95,1.01-.24,.43-.36,.93-.36,1.49v7.16h-1.76Z" style="fill: #021e1e;"/>
      <path d="M502.1,137.48c-1.1,0-2.05-.24-2.85-.73s-1.41-1.18-1.84-2.06c-.43-.88-.65-1.91-.65-3.08s.22-2.21,.65-3.11c.43-.9,1.03-1.6,1.8-2.1s1.68-.76,2.71-.76c.6,0,1.19,.1,1.77,.3,.58,.2,1.11,.52,1.59,.97,.48,.44,.86,1.03,1.14,1.76,.28,.73,.43,1.63,.43,2.7v.75h-8.83v-1.52h7.04c0-.65-.13-1.22-.38-1.73-.26-.51-.62-.91-1.09-1.2-.47-.29-1.02-.44-1.66-.44-.7,0-1.31,.17-1.82,.52s-.9,.79-1.17,1.35c-.27,.55-.41,1.14-.41,1.77v1.01c0,.87,.15,1.6,.45,2.2,.3,.6,.72,1.05,1.26,1.36s1.16,.47,1.87,.47c.46,0,.88-.07,1.26-.2,.38-.13,.7-.33,.97-.6s.48-.6,.63-1l1.7,.48c-.18,.58-.48,1.08-.9,1.52-.42,.44-.94,.77-1.57,1.01s-1.32,.36-2.1,.36Z" style="fill: #021e1e;"/>
      <path d="M511.28,130.35v6.89h-1.76v-11.45h1.7v1.79h.15c.27-.58,.68-1.05,1.22-1.41,.55-.36,1.25-.53,2.12-.53,.78,0,1.45,.16,2.04,.47s1.03,.79,1.36,1.43,.48,1.45,.48,2.42v7.28h-1.76v-7.16c0-.9-.23-1.6-.7-2.11-.47-.5-1.11-.76-1.92-.76-.56,0-1.06,.12-1.5,.37s-.79,.6-1.04,1.07-.38,1.03-.38,1.7Z" style="fill: #021e1e;"/>
    </g>
  </g>
</svg>