<?xml version="1.0" encoding="UTF-8"?>
<svg xmlns="http://www.w3.org/2000/svg" viewBox="0 0 646.25 530.25">
  <g id="b" data-name="intro">
    <g>
      <circle cx="244.84" cy="253.52" r="37.06" style="fill: none; stroke: #d1d3d3; stroke-dasharray: 0 0 6 5; stroke-linecap: round;"/>
      <circle cx="244.84" cy="253.52" r="74.13" style="fill: none; stroke: #d1d3d3; stroke-dasharray: 0 0 6 5; stroke-linecap: round;"/>
      <circle cx="244.84" cy="253.52" r="111.19" style="fill: none; stroke: #d1d3d3; stroke-dasharray: 0 0 6 5; stroke-linecap: round;"/>
      <circle cx="244.84" cy="253.52" r="148.26" style="fill: none; stroke: #d1d3d3; stroke-dasharray: 0 0 6 5; stroke-linecap: round;"/>
    </g>
  </g>
  <g id="f" data-name="legend">
    <g>
      <g>
        <path d="M233.85,212.9v-1.34l5.04-5.52c.59-.65,1.08-1.21,1.46-1.69s.67-.93,.85-1.36c.19-.42,.28-.87,.28-1.34,0-.54-.13-1-.38-1.39-.26-.39-.61-.7-1.05-.91-.44-.21-.94-.32-1.49-.32-.59,0-1.1,.12-1.53,.36-.44,.24-.77,.58-1.01,1.01-.24,.43-.35,.94-.35,1.52h-1.76c0-.9,.21-1.68,.62-2.36,.41-.68,.98-1.2,1.69-1.58,.71-.38,1.51-.57,2.41-.57s1.69,.19,2.38,.57c.69,.38,1.23,.89,1.63,1.53,.39,.64,.59,1.35,.59,2.14,0,.56-.1,1.11-.3,1.64-.2,.53-.55,1.13-1.04,1.78s-1.18,1.45-2.05,2.39l-3.43,3.67v.12h7.1v1.64h-9.64Z" style="fill: #021e1e;"/>
        <path d="M251.33,213.11c-.88,0-1.66-.17-2.36-.52-.7-.35-1.26-.83-1.69-1.43-.42-.61-.65-1.3-.69-2.07h1.79c.07,.69,.38,1.26,.94,1.71,.56,.45,1.23,.68,2.01,.68,.63,0,1.18-.15,1.67-.44,.49-.29,.88-.7,1.16-1.21s.42-1.1,.42-1.75-.15-1.26-.44-1.79c-.29-.52-.69-.94-1.2-1.24-.51-.3-1.09-.46-1.74-.46-.47,0-.95,.07-1.44,.21s-.9,.33-1.22,.56l-1.73-.21,.92-7.52h7.93v1.64h-6.38l-.54,4.5h.09c.31-.25,.71-.45,1.18-.62,.47-.16,.96-.25,1.48-.25,.93,0,1.77,.22,2.5,.67,.73,.45,1.31,1.05,1.73,1.82,.42,.77,.63,1.65,.63,2.64s-.22,1.84-.65,2.61-1.03,1.36-1.79,1.8-1.63,.66-2.6,.66Z" style="fill: #021e1e;"/>
      </g>
      <g>
        <path d="M238.41,176.35c-.88,0-1.66-.17-2.36-.52-.7-.35-1.26-.83-1.69-1.43-.42-.61-.65-1.3-.69-2.07h1.79c.07,.69,.38,1.26,.94,1.71,.56,.45,1.23,.68,2.01,.68,.63,0,1.18-.15,1.67-.44,.49-.29,.88-.7,1.16-1.21,.28-.51,.42-1.1,.42-1.75s-.15-1.26-.44-1.79c-.29-.52-.69-.94-1.2-1.24s-1.09-.46-1.74-.46c-.47,0-.95,.07-1.44,.21s-.9,.33-1.22,.56l-1.73-.21,.92-7.52h7.93v1.64h-6.38l-.54,4.5h.09c.31-.25,.71-.45,1.18-.62,.47-.16,.96-.25,1.48-.25,.93,0,1.77,.22,2.5,.67,.73,.45,1.31,1.05,1.73,1.82,.42,.77,.63,1.65,.63,2.64s-.22,1.84-.65,2.61-1.03,1.36-1.79,1.8c-.76,.44-1.63,.66-2.6,.66Z" style="fill: #021e1e;"/>
        <path d="M251.39,176.35c-1.12,0-2.08-.31-2.87-.92-.79-.61-1.39-1.51-1.81-2.68-.42-1.17-.63-2.59-.63-4.25s.21-3.06,.63-4.23c.42-1.17,1.03-2.07,1.82-2.68,.79-.62,1.75-.93,2.86-.93s2.07,.31,2.86,.93c.79,.62,1.4,1.51,1.82,2.68,.42,1.17,.63,2.58,.63,4.23s-.21,3.08-.63,4.25c-.42,1.17-1.02,2.06-1.81,2.68-.79,.61-1.75,.92-2.87,.92Zm0-1.64c1.11,0,1.98-.54,2.6-1.61,.62-1.07,.92-2.6,.92-4.59,0-1.32-.14-2.45-.42-3.38s-.68-1.64-1.21-2.13c-.52-.49-1.15-.73-1.89-.73-1.1,0-1.97,.54-2.59,1.63s-.93,2.62-.93,4.6c0,1.32,.14,2.45,.42,3.37,.28,.92,.68,1.63,1.2,2.11,.52,.48,1.16,.72,1.9,.72Z" style="fill: #021e1e;"/>
      </g>
      <g>
        <path d="M234.79,138.15l6.83-13.51v-.12h-7.88v-1.64h9.78v1.73l-6.8,13.54h-1.94Z" style="fill: #021e1e;"/>
        <path d="M250.86,138.36c-.88,0-1.66-.17-2.36-.52-.7-.35-1.26-.83-1.69-1.43-.42-.61-.65-1.3-.69-2.07h1.79c.07,.69,.38,1.26,.94,1.71,.56,.45,1.23,.68,2.01,.68,.63,0,1.18-.15,1.67-.44,.49-.29,.88-.7,1.16-1.21,.28-.51,.42-1.1,.42-1.75s-.15-1.26-.44-1.79c-.29-.52-.69-.94-1.2-1.24s-1.09-.46-1.74-.46c-.47,0-.95,.07-1.44,.21s-.9,.33-1.22,.56l-1.73-.21,.92-7.52h7.93v1.64h-6.38l-.54,4.5h.09c.31-.25,.71-.45,1.18-.62,.47-.16,.96-.25,1.48-.25,.93,0,1.77,.22,2.5,.67,.73,.45,1.31,1.05,1.73,1.82,.42,.77,.63,1.65,.63,2.64s-.22,1.84-.65,2.61-1.03,1.36-1.79,1.8c-.76,.44-1.63,.66-2.6,.66Z" style="fill: #021e1e;"/>
      </g>
      <g>
        <path d="M233.79,84.9v15.27h-1.85v-13.33h-.09l-3.73,2.48v-1.88l3.82-2.54h1.85Z" style="fill: #021e1e;"/>
        <path d="M243.16,100.38c-1.12,0-2.08-.31-2.87-.92-.79-.61-1.39-1.51-1.81-2.68-.42-1.17-.63-2.59-.63-4.25s.21-3.06,.63-4.23c.42-1.17,1.03-2.07,1.82-2.68,.79-.62,1.75-.93,2.86-.93s2.07,.31,2.86,.93c.79,.62,1.4,1.51,1.82,2.68,.42,1.17,.63,2.58,.63,4.23s-.21,3.08-.63,4.25c-.42,1.17-1.02,2.06-1.81,2.68-.79,.61-1.75,.92-2.87,.92Zm0-1.64c1.11,0,1.98-.54,2.6-1.61,.62-1.07,.92-2.6,.92-4.59,0-1.32-.14-2.45-.42-3.38s-.68-1.64-1.21-2.13c-.52-.49-1.15-.73-1.89-.73-1.1,0-1.97,.54-2.59,1.63s-.93,2.62-.93,4.6c0,1.32,.14,2.45,.42,3.37,.28,.92,.68,1.63,1.2,2.11,.52,.48,1.16,.72,1.9,.72Z" style="fill: #021e1e;"/>
        <path d="M256.28,100.38c-1.12,0-2.08-.31-2.87-.92-.79-.61-1.39-1.51-1.81-2.68-.42-1.17-.63-2.59-.63-4.25s.21-3.06,.63-4.23c.42-1.17,1.03-2.07,1.82-2.68,.79-.62,1.75-.93,2.86-.93s2.07,.31,2.86,.93c.79,.62,1.4,1.51,1.82,2.68,.42,1.17,.63,2.58,.63,4.23s-.21,3.08-.63,4.25c-.42,1.17-1.02,2.06-1.81,2.68-.79,.61-1.75,.92-2.87,.92Zm0-1.64c1.11,0,1.98-.54,2.6-1.61,.62-1.07,.92-2.6,.92-4.59,0-1.32-.14-2.45-.42-3.38s-.68-1.64-1.21-2.13c-.52-.49-1.15-.73-1.89-.73-1.1,0-1.97,.54-2.59,1.63s-.93,2.62-.93,4.6c0,1.32,.14,2.45,.42,3.37,.28,.92,.68,1.63,1.2,2.11,.52,.48,1.16,.72,1.9,.72Z" style="fill: #021e1e;"/>
      </g>
    </g>
  </g>
</svg>