<?xml version="1.0" encoding="UTF-8"?>
<svg id="g" data-name="legend" xmlns="http://www.w3.org/2000/svg" viewBox="0 0 372.25 530.25">
  <g>
    <path d="M149.59,246.54c3.26-17.13,18.32-30.09,36.41-30.09s32.86,12.71,36.31,29.6" style="fill: none; stroke: #d1d3d3; stroke-dasharray: 0 0 6 5; stroke-linecap: round;"/>
    <path d="M114.19,235.04c8.21-32,37.25-55.65,71.81-55.65s63.6,23.65,71.81,55.65" style="fill: none; stroke: #d1d3d3; stroke-dasharray: 0 0 6 5; stroke-linecap: round;"/>
    <path d="M78.89,223.57c13.08-46.86,56.08-81.24,107.11-81.24s94.04,34.38,107.11,81.24" style="fill: none; stroke: #d1d3d3; stroke-dasharray: 0 0 6 5; stroke-linecap: round;"/>
    <path d="M43.6,212.1c17.92-61.73,74.89-106.84,142.4-106.84s122.82,43.82,141.59,104.17" style="fill: none; stroke: #d1d3d3; stroke-dasharray: 0 0 6 5; stroke-linecap: round;"/>
  </g>
  <text transform="translate(172.67 212.73)" style="fill: #021e1e; font-family: Inter-Regular, Inter; font-size: 21px; font-variation-settings: &apos;wght&apos; 400, &apos;slnt&apos; 0;"><tspan x="0" y="0">25</tspan></text>
  <text transform="translate(172.46 175.97)" style="fill: #021e1e; font-family: Inter-Regular, Inter; font-size: 21px; font-variation-settings: &apos;wght&apos; 400, &apos;slnt&apos; 0;"><tspan x="0" y="0">50</tspan></text>
  <text transform="translate(173.13 137.99)" style="fill: #021e1e; font-family: Inter-Regular, Inter; font-size: 21px; font-variation-settings: &apos;wght&apos; 400, &apos;slnt&apos; 0;"><tspan x="0" y="0" style="letter-spacing: 0em;">7</tspan><tspan x="11.78" y="0">5</tspan></text>
  <text transform="translate(167.24 100.01)" style="fill: #021e1e; font-family: Inter-Regular, Inter; font-size: 21px; font-variation-settings: &apos;wght&apos; 400, &apos;slnt&apos; 0;"><tspan x="0" y="0">100</tspan></text>
</svg>