<?xml version="1.0" encoding="UTF-8"?>
<svg id="b" data-name="intro" xmlns="http://www.w3.org/2000/svg" viewBox="0 0 383 430">
  <g>
    <line x1="171.18" y1="27.56" x2="171.18" y2="382.56" style="fill: none; stroke: #808989; stroke-linecap: round; stroke-width: 2px;"/>
    <line x1="281.18" y1="27.56" x2="281.18" y2="382.56" style="fill: none; stroke: #808989; stroke-linecap: round; stroke-width: 2px;"/>
  </g>
  <g>
    <g style="isolation: isolate;">
      <path d="M162.05,396.3v1.27h-7.1c0-.32,.04-.62,.15-.92,.18-.48,.47-.96,.87-1.43,.4-.47,.97-1.01,1.73-1.63,1.17-.96,1.96-1.71,2.37-2.27,.41-.56,.62-1.09,.62-1.59s-.19-.96-.56-1.32c-.37-.36-.86-.54-1.46-.54-.63,0-1.14,.19-1.52,.57s-.57,.91-.58,1.58l-1.36-.14c.09-1.01,.44-1.78,1.05-2.31,.61-.53,1.42-.79,2.44-.79s1.85,.29,2.45,.86c.6,.57,.9,1.28,.9,2.12,0,.43-.09,.85-.26,1.27s-.47,.85-.88,1.31c-.41,.46-1.08,1.09-2.03,1.89-.79,.66-1.3,1.11-1.52,1.35-.22,.24-.41,.48-.56,.71h5.27Z"/>
      <path d="M163.46,392.27c0-1.27,.13-2.29,.39-3.07,.26-.77,.65-1.37,1.16-1.79,.51-.42,1.16-.63,1.94-.63,.58,0,1.08,.12,1.52,.35,.43,.23,.79,.57,1.08,1,.28,.44,.51,.97,.67,1.6,.16,.63,.24,1.47,.24,2.54,0,1.26-.13,2.28-.39,3.05-.26,.77-.65,1.37-1.16,1.79-.52,.42-1.17,.63-1.95,.63-1.04,0-1.85-.37-2.44-1.11-.71-.89-1.06-2.35-1.06-4.37Zm1.36,0c0,1.76,.21,2.94,.62,3.52,.41,.58,.92,.88,1.53,.88s1.11-.29,1.53-.88c.41-.59,.62-1.76,.62-3.52s-.21-2.94-.62-3.52c-.41-.58-.93-.87-1.54-.87s-1.09,.26-1.45,.77c-.45,.65-.68,1.86-.68,3.63Z"/>
      <path d="M176.77,397.56h-1.32v-8.4c-.32,.3-.73,.61-1.25,.91-.52,.3-.98,.53-1.39,.68v-1.27c.74-.35,1.38-.77,1.93-1.26s.94-.97,1.17-1.44h.85v10.78Z"/>
      <path d="M180.14,392.27c0-1.27,.13-2.29,.39-3.07,.26-.77,.65-1.37,1.16-1.79,.51-.42,1.16-.63,1.94-.63,.58,0,1.08,.12,1.52,.35,.43,.23,.79,.57,1.08,1,.28,.44,.51,.97,.67,1.6,.16,.63,.24,1.47,.24,2.54,0,1.26-.13,2.28-.39,3.05-.26,.77-.65,1.37-1.16,1.79-.52,.42-1.17,.63-1.95,.63-1.04,0-1.85-.37-2.44-1.11-.71-.89-1.06-2.35-1.06-4.37Zm1.36,0c0,1.76,.21,2.94,.62,3.52,.41,.58,.92,.88,1.53,.88s1.11-.29,1.53-.88c.41-.59,.62-1.76,.62-3.52s-.21-2.94-.62-3.52c-.41-.58-.93-.87-1.54-.87s-1.09,.26-1.45,.77c-.45,.65-.68,1.86-.68,3.63Z"/>
    </g>
    <g style="isolation: isolate;">
      <path d="M272.05,396.3v1.27h-7.1c0-.32,.04-.62,.15-.92,.18-.48,.47-.96,.87-1.43,.4-.47,.97-1.01,1.73-1.63,1.17-.96,1.96-1.71,2.37-2.27,.41-.56,.62-1.09,.62-1.59s-.19-.96-.56-1.32c-.37-.36-.86-.54-1.46-.54-.63,0-1.14,.19-1.52,.57s-.57,.91-.58,1.58l-1.36-.14c.09-1.01,.44-1.78,1.05-2.31,.61-.53,1.42-.79,2.44-.79s1.85,.29,2.45,.86c.6,.57,.9,1.28,.9,2.12,0,.43-.09,.85-.26,1.27s-.47,.85-.88,1.31c-.41,.46-1.08,1.09-2.03,1.89-.79,.66-1.3,1.11-1.52,1.35-.22,.24-.41,.48-.56,.71h5.27Z"/>
      <path d="M273.46,392.27c0-1.27,.13-2.29,.39-3.07,.26-.77,.65-1.37,1.16-1.79,.51-.42,1.16-.63,1.94-.63,.58,0,1.08,.12,1.52,.35,.43,.23,.79,.57,1.08,1,.28,.44,.51,.97,.67,1.6,.16,.63,.24,1.47,.24,2.54,0,1.26-.13,2.28-.39,3.05-.26,.77-.65,1.37-1.16,1.79-.52,.42-1.17,.63-1.95,.63-1.04,0-1.85-.37-2.44-1.11-.71-.89-1.06-2.35-1.06-4.37Zm1.36,0c0,1.76,.21,2.94,.62,3.52,.41,.58,.92,.88,1.53,.88s1.11-.29,1.53-.88c.41-.59,.62-1.76,.62-3.52s-.21-2.94-.62-3.52c-.41-.58-.93-.87-1.54-.87s-1.09,.26-1.45,.77c-.45,.65-.68,1.86-.68,3.63Z"/>
      <path d="M288.73,396.3v1.27h-7.1c0-.32,.04-.62,.15-.92,.18-.48,.47-.96,.87-1.43,.4-.47,.97-1.01,1.73-1.63,1.17-.96,1.96-1.71,2.37-2.27,.41-.56,.62-1.09,.62-1.59s-.19-.96-.56-1.32c-.37-.36-.86-.54-1.46-.54-.63,0-1.14,.19-1.52,.57s-.57,.91-.58,1.58l-1.36-.14c.09-1.01,.44-1.78,1.05-2.31,.61-.53,1.42-.79,2.44-.79s1.85,.29,2.45,.86c.6,.57,.9,1.28,.9,2.12,0,.43-.09,.85-.26,1.27s-.47,.85-.88,1.31c-.41,.46-1.08,1.09-2.03,1.89-.79,.66-1.3,1.11-1.52,1.35-.22,.24-.41,.48-.56,.71h5.27Z"/>
      <path d="M290.14,392.27c0-1.27,.13-2.29,.39-3.07,.26-.77,.65-1.37,1.16-1.79,.51-.42,1.16-.63,1.94-.63,.58,0,1.08,.12,1.52,.35,.43,.23,.79,.57,1.08,1,.28,.44,.51,.97,.67,1.6,.16,.63,.24,1.47,.24,2.54,0,1.26-.13,2.28-.39,3.05-.26,.77-.65,1.37-1.16,1.79-.52,.42-1.17,.63-1.95,.63-1.04,0-1.85-.37-2.44-1.11-.71-.89-1.06-2.35-1.06-4.37Zm1.36,0c0,1.76,.21,2.94,.62,3.52,.41,.58,.92,.88,1.53,.88s1.11-.29,1.53-.88c.41-.59,.62-1.76,.62-3.52s-.21-2.94-.62-3.52c-.41-.58-.93-.87-1.54-.87s-1.09,.26-1.45,.77c-.45,.65-.68,1.86-.68,3.63Z"/>
    </g>
  </g>
  <g>
    <g>
      <line x1="171.18" y1="321.14" x2="281.18" y2="335.78" style="fill: none; stroke: #059799; stroke-width: 2px;"/>
      <circle cx="171.18" cy="321.14" r="5" style="fill: #059799; stroke: #f9ffff;"/>
      <circle cx="281.18" cy="335.78" r="5" style="fill: #059799; stroke: #f9ffff;"/>
      <g style="isolation: isolate;">
        <path d="M136.2,321.14v-9.31h1.23v9.31h-1.23Z" style="fill: #059799;"/>
        <path d="M139.46,321.14v-6.74h1.03v.96c.5-.74,1.21-1.11,2.15-1.11,.41,0,.78,.07,1.12,.22,.34,.15,.6,.34,.76,.58,.17,.24,.29,.52,.36,.84,.04,.21,.06,.58,.06,1.11v4.14h-1.14v-4.1c0-.47-.04-.81-.13-1.04s-.25-.42-.47-.55c-.23-.14-.49-.21-.8-.21-.49,0-.91,.15-1.26,.46-.35,.31-.53,.89-.53,1.76v3.68h-1.14Z" style="fill: #059799;"/>
        <path d="M151.06,321.14v-.85c-.43,.67-1.06,1-1.89,1-.54,0-1.03-.15-1.48-.44-.45-.3-.8-.71-1.05-1.24-.25-.53-.37-1.14-.37-1.83s.11-1.28,.34-1.83c.22-.55,.56-.97,1.01-1.26,.45-.29,.95-.44,1.5-.44,.41,0,.77,.09,1.09,.26,.32,.17,.58,.39,.77,.67v-3.34h1.14v9.31h-1.06Zm-3.61-3.36c0,.86,.18,1.51,.55,1.94,.36,.43,.79,.64,1.29,.64s.92-.2,1.27-.61c.35-.41,.52-1.03,.52-1.87,0-.92-.18-1.6-.53-2.03s-.79-.65-1.31-.65-.93,.21-1.27,.62c-.34,.42-.51,1.07-.51,1.96Z" style="fill: #059799;"/>
        <path d="M153.92,313.15v-1.31h1.14v1.31h-1.14Zm0,7.99v-6.74h1.14v6.74h-1.14Z" style="fill: #059799;"/>
        <path d="M161.21,320.31c-.42,.36-.83,.61-1.22,.76-.39,.15-.81,.22-1.26,.22-.74,0-1.31-.18-1.71-.54-.4-.36-.6-.82-.6-1.39,0-.33,.08-.63,.23-.9,.15-.27,.35-.49,.59-.66s.52-.29,.82-.37c.22-.06,.56-.12,1.02-.17,.92-.11,1.6-.24,2.04-.39,0-.16,0-.26,0-.3,0-.47-.11-.79-.32-.98-.29-.26-.73-.39-1.3-.39-.54,0-.93,.09-1.19,.28s-.45,.52-.57,1l-1.12-.15c.1-.48,.27-.86,.5-1.16,.23-.29,.57-.52,1.01-.68,.44-.16,.95-.24,1.53-.24s1.04,.07,1.4,.2c.36,.14,.62,.31,.79,.51,.17,.21,.29,.46,.36,.78,.04,.2,.06,.55,.06,1.05v1.52c0,1.06,.02,1.73,.07,2.01s.14,.55,.29,.81h-1.19c-.12-.24-.2-.51-.23-.83Zm-.1-2.55c-.41,.17-1.04,.31-1.87,.43-.47,.07-.8,.14-1,.23-.2,.08-.34,.21-.45,.37-.11,.16-.16,.34-.16,.54,0,.3,.12,.56,.35,.76s.57,.3,1.01,.3,.83-.1,1.17-.29,.59-.46,.76-.79c.12-.26,.18-.64,.18-1.14v-.42Z" style="fill: #059799;"/>
      </g>
    </g>
    <g>
      <line x1="171.18" y1="234.18" x2="281.18" y2="261.75" style="fill: none; stroke: #059799; stroke-width: 2px;"/>
      <circle cx="171.18" cy="234.18" r="5" style="fill: #059799; stroke: #f9ffff;"/>
      <circle cx="281.18" cy="261.75" r="5" style="fill: #059799; stroke: #f9ffff;"/>
      <g style="isolation: isolate;">
        <path d="M117.23,234.18v-9.31h6.73v1.1h-5.5v2.85h5.15v1.09h-5.15v3.17h5.71v1.1h-6.94Z" style="fill: #059799;"/>
        <path d="M128.22,233.16l.17,1.01c-.32,.07-.61,.1-.86,.1-.42,0-.74-.07-.96-.2-.23-.13-.39-.3-.48-.52-.09-.21-.14-.66-.14-1.35v-3.88h-.84v-.89h.84v-1.67l1.14-.69v2.35h1.15v.89h-1.15v3.94c0,.33,.02,.54,.06,.63s.11,.17,.2,.22c.09,.06,.22,.08,.39,.08,.13,0,.29-.01,.5-.04Z" style="fill: #059799;"/>
        <path d="M129.34,234.18v-9.31h1.14v3.34c.53-.62,1.21-.93,2.02-.93,.5,0,.93,.1,1.3,.29,.37,.2,.63,.47,.79,.82,.16,.35,.24,.85,.24,1.51v4.27h-1.14v-4.27c0-.57-.12-.99-.37-1.25-.25-.26-.6-.39-1.05-.39-.34,0-.66,.09-.96,.26-.3,.18-.51,.41-.64,.71-.13,.3-.19,.71-.19,1.24v3.69h-1.14Z" style="fill: #059799;"/>
        <path d="M136.58,226.18v-1.31h1.14v1.31h-1.14Zm0,7.99v-6.74h1.14v6.74h-1.14Z" style="fill: #059799;"/>
        <path d="M139.03,230.81c0-1.25,.35-2.17,1.04-2.77,.58-.5,1.29-.75,2.12-.75,.93,0,1.68,.3,2.27,.91,.59,.61,.88,1.45,.88,2.52,0,.87-.13,1.55-.39,2.05-.26,.5-.64,.88-1.14,1.16-.5,.27-1.04,.41-1.63,.41-.94,0-1.71-.3-2.29-.91-.58-.6-.87-1.48-.87-2.62Zm1.17,0c0,.86,.19,1.51,.56,1.94,.38,.43,.85,.64,1.42,.64s1.04-.22,1.42-.65c.38-.43,.56-1.09,.56-1.97,0-.83-.19-1.47-.57-1.9-.38-.43-.85-.64-1.41-.64s-1.04,.21-1.42,.64c-.38,.43-.56,1.07-.56,1.94Z" style="fill: #059799;"/>
        <path d="M146.69,236.76v-9.33h1.04v.88c.25-.34,.52-.6,.83-.77,.31-.17,.68-.26,1.12-.26,.58,0,1.08,.15,1.52,.44,.44,.3,.77,.71,1,1.25,.22,.54,.34,1.13,.34,1.77,0,.69-.12,1.31-.37,1.86-.25,.55-.61,.98-1.08,1.27s-.97,.44-1.49,.44c-.38,0-.72-.08-1.03-.24s-.55-.36-.75-.61v3.28h-1.14Zm1.04-5.92c0,.87,.18,1.51,.53,1.92,.35,.42,.78,.62,1.28,.62s.94-.21,1.3-.64c.36-.43,.54-1.09,.54-2s-.18-1.5-.53-1.93c-.35-.43-.78-.64-1.27-.64s-.92,.23-1.29,.68c-.37,.46-.56,1.12-.56,1.98Z" style="fill: #059799;"/>
        <path d="M153.92,226.18v-1.31h1.14v1.31h-1.14Zm0,7.99v-6.74h1.14v6.74h-1.14Z" style="fill: #059799;"/>
        <path d="M161.21,233.34c-.42,.36-.83,.61-1.22,.76-.39,.15-.81,.22-1.26,.22-.74,0-1.31-.18-1.71-.54-.4-.36-.6-.82-.6-1.39,0-.33,.08-.63,.23-.9,.15-.27,.35-.49,.59-.66s.52-.29,.82-.37c.22-.06,.56-.12,1.02-.17,.92-.11,1.6-.24,2.04-.39,0-.16,0-.26,0-.3,0-.47-.11-.79-.32-.98-.29-.26-.73-.39-1.3-.39-.54,0-.93,.09-1.19,.28s-.45,.52-.57,1l-1.12-.15c.1-.48,.27-.86,.5-1.16,.23-.29,.57-.52,1.01-.68,.44-.16,.95-.24,1.53-.24s1.04,.07,1.4,.2c.36,.14,.62,.31,.79,.51,.17,.21,.29,.46,.36,.78,.04,.2,.06,.55,.06,1.05v1.52c0,1.06,.02,1.73,.07,2.01s.14,.55,.29,.81h-1.19c-.12-.24-.2-.51-.23-.83Zm-.1-2.55c-.41,.17-1.04,.31-1.87,.43-.47,.07-.8,.14-1,.23-.2,.08-.34,.21-.45,.37-.11,.16-.16,.34-.16,.54,0,.3,.12,.56,.35,.76s.57,.3,1.01,.3,.83-.1,1.17-.29,.59-.46,.76-.79c.12-.26,.18-.64,.18-1.14v-.42Z" style="fill: #059799;"/>
      </g>
    </g>
    <g>
      <line x1="171.18" y1="309.36" x2="281.18" y2="322.2" style="fill: none; stroke: #059799; stroke-width: 2px;"/>
      <circle cx="171.18" cy="309.36" r="5" style="fill: #059799; stroke: #f9ffff;"/>
      <circle cx="281.18" cy="322.2" r="5" style="fill: #059799; stroke: #f9ffff;"/>
      <g style="isolation: isolate;">
        <path d="M108.01,309.36v-9.31h1.23v9.31h-1.23Z" style="fill: #059799;"/>
        <path d="M111.27,309.36v-6.74h1.03v.96c.5-.74,1.21-1.11,2.15-1.11,.41,0,.78,.07,1.12,.22,.34,.15,.59,.34,.76,.58,.17,.24,.29,.52,.36,.84,.04,.21,.06,.58,.06,1.11v4.14h-1.14v-4.1c0-.47-.04-.81-.13-1.04s-.25-.42-.47-.55-.49-.21-.8-.21c-.49,0-.91,.15-1.26,.46-.35,.31-.53,.89-.53,1.76v3.68h-1.14Z" style="fill: #059799;"/>
        <path d="M122.87,309.36v-.85c-.43,.67-1.06,1-1.88,1-.54,0-1.03-.15-1.48-.44-.45-.3-.8-.71-1.05-1.24-.25-.53-.37-1.14-.37-1.83s.11-1.28,.34-1.83c.22-.55,.56-.97,1.01-1.26,.45-.29,.95-.44,1.5-.44,.41,0,.77,.09,1.08,.26,.32,.17,.58,.39,.77,.67v-3.34h1.14v9.31h-1.06Zm-3.61-3.36c0,.86,.18,1.51,.55,1.94,.36,.43,.79,.64,1.29,.64s.92-.2,1.27-.61c.35-.41,.52-1.03,.52-1.87,0-.92-.18-1.6-.53-2.03s-.79-.65-1.31-.65-.93,.21-1.27,.62c-.34,.42-.51,1.07-.51,1.96Z" style="fill: #059799;"/>
        <path d="M125.3,305.99c0-1.25,.35-2.17,1.04-2.77,.58-.5,1.29-.75,2.12-.75,.93,0,1.68,.3,2.27,.91,.59,.61,.88,1.45,.88,2.52,0,.87-.13,1.55-.39,2.05-.26,.5-.64,.88-1.14,1.16-.5,.27-1.04,.41-1.63,.41-.94,0-1.71-.3-2.29-.91-.58-.6-.87-1.48-.87-2.62Zm1.17,0c0,.86,.19,1.51,.57,1.94,.38,.43,.85,.64,1.42,.64s1.04-.22,1.42-.65c.38-.43,.57-1.09,.57-1.97,0-.83-.19-1.47-.57-1.9s-.85-.64-1.41-.64-1.05,.21-1.42,.64c-.38,.43-.57,1.07-.57,1.94Z" style="fill: #059799;"/>
        <path d="M132.96,309.36v-6.74h1.03v.96c.5-.74,1.21-1.11,2.15-1.11,.41,0,.78,.07,1.12,.22,.34,.15,.6,.34,.76,.58,.17,.24,.29,.52,.36,.84,.04,.21,.06,.58,.06,1.11v4.14h-1.14v-4.1c0-.47-.04-.81-.13-1.04s-.25-.42-.47-.55c-.23-.14-.49-.21-.8-.21-.49,0-.91,.15-1.26,.46-.35,.31-.53,.89-.53,1.76v3.68h-1.14Z" style="fill: #059799;"/>
        <path d="M144.8,307.19l1.18,.15c-.19,.69-.53,1.23-1.04,1.61-.5,.38-1.15,.57-1.93,.57-.99,0-1.77-.3-2.34-.91-.58-.61-.87-1.46-.87-2.55s.29-2.01,.88-2.64,1.34-.94,2.27-.94,1.64,.31,2.21,.92c.57,.61,.86,1.48,.86,2.59,0,.07,0,.17,0,.3h-5.03c.04,.74,.25,1.31,.63,1.7,.38,.39,.85,.59,1.41,.59,.42,0,.78-.11,1.07-.33,.3-.22,.53-.57,.71-1.05Zm-3.75-1.85h3.76c-.05-.57-.2-.99-.43-1.28-.36-.44-.84-.66-1.42-.66-.52,0-.97,.18-1.32,.53-.36,.35-.56,.82-.59,1.41Z" style="fill: #059799;"/>
        <path d="M146.96,307.35l1.13-.18c.06,.45,.24,.8,.53,1.04,.29,.24,.7,.36,1.22,.36s.91-.11,1.17-.32,.38-.46,.38-.75c0-.26-.11-.46-.34-.61-.16-.1-.55-.23-1.17-.39-.84-.21-1.42-.39-1.74-.55-.32-.15-.57-.37-.74-.64-.17-.27-.25-.57-.25-.9,0-.3,.07-.58,.21-.83s.33-.47,.56-.64c.18-.13,.42-.24,.73-.33,.31-.09,.64-.14,.99-.14,.53,0,.99,.08,1.39,.23,.4,.15,.7,.36,.89,.62,.19,.26,.32,.61,.39,1.04l-1.12,.15c-.05-.35-.2-.62-.44-.81s-.59-.29-1.03-.29c-.53,0-.9,.09-1.12,.26-.22,.17-.34,.38-.34,.61,0,.15,.05,.28,.14,.4,.09,.12,.24,.22,.44,.3,.11,.04,.45,.14,1.01,.29,.81,.22,1.37,.39,1.69,.53s.57,.34,.75,.6c.18,.26,.27,.59,.27,.98s-.11,.74-.33,1.08c-.22,.34-.54,.6-.96,.78-.42,.18-.89,.28-1.42,.28-.88,0-1.54-.18-2-.55s-.75-.9-.88-1.62Z" style="fill: #059799;"/>
        <path d="M153.92,301.36v-1.31h1.14v1.31h-1.14Zm0,7.99v-6.74h1.14v6.74h-1.14Z" style="fill: #059799;"/>
        <path d="M161.21,308.52c-.42,.36-.83,.61-1.22,.76-.39,.15-.81,.22-1.26,.22-.74,0-1.31-.18-1.71-.54-.4-.36-.6-.82-.6-1.39,0-.33,.08-.63,.23-.9,.15-.27,.35-.49,.59-.66s.52-.29,.82-.37c.22-.06,.56-.12,1.02-.17,.92-.11,1.6-.24,2.04-.39,0-.16,0-.26,0-.3,0-.47-.11-.79-.32-.98-.29-.26-.73-.39-1.3-.39-.54,0-.93,.09-1.19,.28s-.45,.52-.57,1l-1.12-.15c.1-.48,.27-.86,.5-1.16,.23-.29,.57-.52,1.01-.68,.44-.16,.95-.24,1.53-.24s1.04,.07,1.4,.2c.36,.14,.62,.31,.79,.51,.17,.21,.29,.46,.36,.78,.04,.2,.06,.55,.06,1.05v1.52c0,1.06,.02,1.73,.07,2.01s.14,.55,.29,.81h-1.19c-.12-.24-.2-.51-.23-.83Zm-.1-2.55c-.41,.17-1.04,.31-1.87,.43-.47,.07-.8,.14-1,.23-.2,.08-.34,.21-.45,.37-.11,.16-.16,.34-.16,.54,0,.3,.12,.56,.35,.76s.57,.3,1.01,.3,.83-.1,1.17-.29,.59-.46,.76-.79c.12-.26,.18-.64,.18-1.14v-.42Z" style="fill: #059799;"/>
      </g>
    </g>
    <g>
      <line x1="171.18" y1="150.16" x2="281.18" y2="205.68" style="fill: none; stroke: #059799; stroke-width: 2px;"/>
      <circle cx="171.18" cy="150.16" r="5" style="fill: #059799; stroke: #f9ffff;"/>
      <circle cx="281.18" cy="205.68" r="5" style="fill: #059799; stroke: #f9ffff;"/>
      <g style="isolation: isolate;">
        <path d="M94.5,150.16l3.57-9.31h1.33l3.81,9.31h-1.4l-1.09-2.82h-3.89l-1.02,2.82h-1.31Zm2.69-3.82h3.15l-.97-2.58c-.3-.78-.52-1.43-.66-1.93-.12,.6-.29,1.19-.5,1.78l-1.02,2.73Z" style="fill: #059799;"/>
        <path d="M104.32,150.16v-5.85h-1.01v-.89h1.01v-.72c0-.45,.04-.79,.12-1.01,.11-.3,.3-.54,.58-.72,.28-.18,.67-.28,1.17-.28,.32,0,.68,.04,1.07,.12l-.17,1c-.24-.04-.46-.06-.67-.06-.35,0-.59,.07-.74,.22-.14,.15-.22,.43-.22,.83v.62h1.31v.89h-1.31v5.85h-1.14Z" style="fill: #059799;"/>
        <path d="M107.45,150.71l1.11,.17c.05,.34,.18,.59,.39,.75,.28,.21,.67,.32,1.16,.32,.53,0,.94-.11,1.22-.32,.29-.21,.48-.51,.58-.89,.06-.23,.09-.72,.08-1.47-.5,.59-1.12,.88-1.87,.88-.93,0-1.64-.33-2.15-1s-.76-1.47-.76-2.41c0-.64,.12-1.24,.35-1.78,.23-.54,.57-.96,1.01-1.26,.44-.3,.96-.44,1.56-.44,.8,0,1.45,.32,1.97,.96v-.81h1.05v5.83c0,1.05-.11,1.79-.32,2.23-.21,.44-.55,.78-1.02,1.04-.46,.25-1.03,.38-1.71,.38-.8,0-1.45-.18-1.95-.54-.5-.36-.73-.91-.72-1.63Zm.95-4.05c0,.88,.18,1.53,.53,1.94,.35,.41,.79,.61,1.32,.61s.96-.2,1.32-.61,.53-1.04,.53-1.9-.18-1.45-.55-1.87-.81-.63-1.32-.63-.94,.21-1.29,.62c-.36,.41-.53,1.03-.53,1.84Z" style="fill: #059799;"/>
        <path d="M114.89,150.16v-9.31h1.14v3.34c.53-.62,1.21-.93,2.02-.93,.5,0,.93,.1,1.3,.29,.37,.2,.63,.47,.79,.82,.16,.35,.24,.85,.24,1.51v4.27h-1.14v-4.27c0-.57-.12-.99-.37-1.25-.25-.26-.6-.39-1.05-.39-.34,0-.66,.09-.96,.26-.3,.18-.51,.41-.64,.71-.13,.3-.19,.71-.19,1.24v3.69h-1.14Z" style="fill: #059799;"/>
        <path d="M126.52,149.32c-.42,.36-.83,.61-1.22,.76-.39,.15-.81,.22-1.26,.22-.74,0-1.31-.18-1.71-.54-.4-.36-.6-.82-.6-1.39,0-.33,.08-.63,.23-.9,.15-.27,.35-.49,.59-.66,.24-.17,.52-.29,.82-.37,.22-.06,.56-.12,1.02-.17,.92-.11,1.6-.24,2.04-.39,0-.16,0-.26,0-.3,0-.47-.11-.79-.32-.98-.29-.26-.73-.39-1.3-.39-.54,0-.93,.09-1.19,.28-.26,.19-.45,.52-.57,1l-1.12-.15c.1-.48,.27-.86,.5-1.16,.23-.29,.57-.52,1.01-.68,.44-.16,.95-.24,1.53-.24s1.04,.07,1.4,.2c.36,.14,.62,.31,.79,.51,.17,.21,.29,.46,.36,.78,.04,.2,.06,.55,.06,1.05v1.52c0,1.06,.02,1.73,.07,2.01,.05,.28,.15,.55,.29,.81h-1.19c-.12-.24-.19-.51-.23-.83Zm-.09-2.55c-.42,.17-1.04,.31-1.87,.43-.47,.07-.8,.14-1,.23-.19,.08-.34,.21-.45,.37-.11,.16-.16,.34-.16,.54,0,.3,.12,.56,.35,.76,.23,.2,.57,.3,1.01,.3s.83-.1,1.17-.29,.59-.46,.75-.79c.12-.26,.18-.64,.18-1.14v-.42Z" style="fill: #059799;"/>
        <path d="M129.35,150.16v-6.74h1.03v.96c.5-.74,1.21-1.11,2.15-1.11,.41,0,.78,.07,1.12,.22,.34,.15,.59,.34,.76,.58,.17,.24,.29,.52,.36,.84,.04,.21,.06,.58,.06,1.11v4.14h-1.14v-4.1c0-.47-.04-.81-.13-1.04s-.25-.42-.47-.55-.49-.21-.8-.21c-.49,0-.91,.15-1.26,.46-.35,.31-.53,.89-.53,1.76v3.68h-1.14Z" style="fill: #059799;"/>
        <path d="M136.58,142.16v-1.31h1.14v1.31h-1.14Zm0,7.99v-6.74h1.14v6.74h-1.14Z" style="fill: #059799;"/>
        <path d="M139.01,148.14l1.13-.18c.06,.45,.24,.8,.53,1.04,.29,.24,.7,.36,1.22,.36s.91-.11,1.17-.32,.38-.46,.38-.75c0-.26-.11-.46-.34-.61-.16-.1-.55-.23-1.17-.39-.84-.21-1.42-.39-1.74-.55-.32-.15-.57-.37-.74-.64-.17-.27-.25-.57-.25-.9,0-.3,.07-.58,.21-.83,.14-.26,.32-.47,.56-.64,.18-.13,.42-.24,.73-.33s.64-.14,.99-.14c.53,0,.99,.08,1.39,.23,.4,.15,.69,.36,.88,.62,.19,.26,.32,.61,.39,1.04l-1.12,.15c-.05-.35-.2-.62-.44-.81-.24-.19-.59-.29-1.03-.29-.52,0-.9,.09-1.12,.26-.22,.17-.34,.38-.34,.61,0,.15,.05,.28,.14,.4,.09,.12,.24,.22,.44,.3,.11,.04,.45,.14,1.01,.29,.81,.22,1.37,.39,1.69,.53,.32,.14,.57,.34,.75,.6,.18,.26,.27,.59,.27,.98s-.11,.74-.33,1.08c-.22,.34-.54,.6-.96,.78-.42,.18-.89,.28-1.42,.28-.88,0-1.54-.18-2-.55-.46-.36-.75-.9-.88-1.62Z" style="fill: #059799;"/>
        <path d="M148.46,149.13l.17,1.01c-.32,.07-.61,.1-.86,.1-.42,0-.74-.07-.96-.2-.23-.13-.39-.3-.48-.52-.09-.21-.14-.66-.14-1.35v-3.88h-.84v-.89h.84v-1.67l1.14-.69v2.35h1.15v.89h-1.15v3.94c0,.33,.02,.54,.06,.63s.11,.17,.2,.22c.09,.06,.22,.08,.39,.08,.13,0,.29-.01,.5-.04Z" style="fill: #059799;"/>
        <path d="M153.98,149.32c-.42,.36-.83,.61-1.22,.76-.39,.15-.81,.22-1.26,.22-.74,0-1.31-.18-1.71-.54-.4-.36-.6-.82-.6-1.39,0-.33,.08-.63,.23-.9,.15-.27,.35-.49,.59-.66,.24-.17,.52-.29,.82-.37,.22-.06,.56-.12,1.02-.17,.92-.11,1.6-.24,2.04-.39,0-.16,0-.26,0-.3,0-.47-.11-.79-.32-.98-.29-.26-.73-.39-1.3-.39-.54,0-.93,.09-1.19,.28-.26,.19-.45,.52-.57,1l-1.12-.15c.1-.48,.27-.86,.5-1.16,.23-.29,.57-.52,1.01-.68,.44-.16,.95-.24,1.53-.24s1.04,.07,1.4,.2c.36,.14,.62,.31,.79,.51,.17,.21,.29,.46,.36,.78,.04,.2,.06,.55,.06,1.05v1.52c0,1.06,.02,1.73,.07,2.01,.05,.28,.15,.55,.29,.81h-1.19c-.12-.24-.19-.51-.23-.83Zm-.09-2.55c-.42,.17-1.04,.31-1.87,.43-.47,.07-.8,.14-1,.23-.19,.08-.34,.21-.45,.37-.11,.16-.16,.34-.16,.54,0,.3,.12,.56,.35,.76,.23,.2,.57,.3,1.01,.3s.83-.1,1.17-.29,.59-.46,.75-.79c.12-.26,.18-.64,.18-1.14v-.42Z" style="fill: #059799;"/>
        <path d="M156.81,150.16v-6.74h1.03v.96c.5-.74,1.21-1.11,2.15-1.11,.41,0,.78,.07,1.12,.22,.34,.15,.59,.34,.76,.58,.17,.24,.29,.52,.36,.84,.04,.21,.06,.58,.06,1.11v4.14h-1.14v-4.1c0-.47-.04-.81-.13-1.04s-.25-.42-.47-.55-.49-.21-.8-.21c-.49,0-.91,.15-1.26,.46-.35,.31-.53,.89-.53,1.76v3.68h-1.14Z" style="fill: #059799;"/>
      </g>
    </g>
    <g>
      <line x1="171.18" y1="306.91" x2="281.18" y2="327.5" style="fill: none; stroke: #059799; stroke-width: 2px;"/>
      <circle cx="171.18" cy="306.91" r="5" style="fill: #059799; stroke: #f9ffff;"/>
      <circle cx="281.18" cy="327.5" r="5" style="fill: #059799; stroke: #f9ffff;"/>
      <g style="isolation: isolate;">
        <path d="M95.46,296.91v-9.31h3.49c.71,0,1.28,.09,1.71,.28s.77,.48,1.01,.87c.24,.39,.37,.8,.37,1.23,0,.4-.11,.77-.32,1.12s-.54,.63-.98,.85c.56,.17,1,.45,1.3,.84,.3,.4,.45,.87,.45,1.41,0,.44-.09,.84-.28,1.21-.18,.38-.41,.66-.68,.87-.27,.2-.61,.36-1.02,.46s-.91,.16-1.5,.16h-3.55Zm1.23-5.4h2.01c.55,0,.94-.04,1.17-.11,.31-.09,.55-.25,.71-.46,.16-.22,.24-.49,.24-.81,0-.31-.07-.58-.22-.82-.15-.24-.36-.4-.63-.48-.27-.09-.75-.13-1.42-.13h-1.86v2.81Zm0,4.3h2.32c.4,0,.68-.02,.84-.04,.28-.05,.52-.14,.71-.25s.35-.29,.47-.52c.12-.23,.18-.49,.18-.78,0-.35-.09-.65-.27-.91s-.42-.44-.74-.54-.77-.16-1.36-.16h-2.15v3.2Z" style="fill: #059799;"/>
        <path d="M108.44,296.08c-.42,.36-.83,.61-1.22,.76-.39,.15-.81,.22-1.26,.22-.74,0-1.31-.18-1.71-.54-.4-.36-.6-.82-.6-1.39,0-.33,.08-.63,.23-.9,.15-.27,.35-.49,.59-.66,.24-.17,.52-.29,.82-.37,.22-.06,.56-.12,1.02-.17,.92-.11,1.6-.24,2.04-.39,0-.16,0-.26,0-.3,0-.47-.11-.79-.32-.98-.29-.26-.73-.39-1.3-.39-.54,0-.93,.09-1.19,.28-.26,.19-.45,.52-.57,1l-1.12-.15c.1-.48,.27-.86,.5-1.16,.23-.29,.57-.52,1.01-.68,.44-.16,.95-.24,1.53-.24s1.04,.07,1.4,.2c.36,.14,.62,.31,.79,.51,.17,.21,.29,.46,.36,.78,.04,.2,.06,.55,.06,1.05v1.52c0,1.06,.02,1.73,.07,2.01,.05,.28,.15,.55,.29,.81h-1.19c-.12-.24-.19-.51-.23-.83Zm-.09-2.55c-.42,.17-1.04,.31-1.87,.43-.47,.07-.8,.14-1,.23-.19,.08-.34,.21-.45,.37-.11,.16-.16,.34-.16,.54,0,.3,.12,.56,.35,.76,.23,.2,.57,.3,1.01,.3s.83-.1,1.17-.29,.59-.46,.75-.79c.12-.26,.18-.64,.18-1.14v-.42Z" style="fill: #059799;"/>
        <path d="M111.27,296.91v-6.74h1.03v.96c.5-.74,1.21-1.11,2.15-1.11,.41,0,.78,.07,1.12,.22,.34,.15,.59,.34,.76,.58,.17,.24,.29,.52,.36,.84,.04,.21,.06,.58,.06,1.11v4.14h-1.14v-4.1c0-.47-.04-.81-.13-1.04s-.25-.42-.47-.55-.49-.21-.8-.21c-.49,0-.91,.15-1.26,.46-.35,.31-.53,.89-.53,1.76v3.68h-1.14Z" style="fill: #059799;"/>
        <path d="M118.29,297.47l1.11,.17c.05,.34,.18,.59,.39,.75,.28,.21,.67,.32,1.16,.32,.53,0,.94-.11,1.22-.32,.29-.21,.48-.51,.58-.89,.06-.23,.09-.72,.08-1.47-.5,.59-1.12,.88-1.87,.88-.93,0-1.64-.33-2.15-1s-.76-1.47-.76-2.41c0-.64,.12-1.24,.35-1.78,.23-.54,.57-.96,1.01-1.26,.44-.3,.96-.44,1.56-.44,.8,0,1.45,.32,1.97,.96v-.81h1.05v5.83c0,1.05-.11,1.79-.32,2.23-.21,.44-.55,.78-1.02,1.04-.46,.25-1.03,.38-1.71,.38-.8,0-1.45-.18-1.95-.54-.5-.36-.73-.91-.72-1.63Zm.95-4.05c0,.88,.18,1.53,.53,1.94,.35,.41,.79,.61,1.32,.61s.96-.2,1.32-.61,.53-1.04,.53-1.9-.18-1.45-.55-1.87-.81-.63-1.32-.63-.94,.21-1.29,.62c-.36,.41-.53,1.03-.53,1.84Z" style="fill: #059799;"/>
        <path d="M125.7,296.91v-9.31h1.14v9.31h-1.14Z" style="fill: #059799;"/>
        <path d="M133.02,296.08c-.42,.36-.83,.61-1.22,.76-.39,.15-.81,.22-1.26,.22-.74,0-1.31-.18-1.71-.54-.4-.36-.6-.82-.6-1.39,0-.33,.08-.63,.23-.9,.15-.27,.35-.49,.59-.66,.24-.17,.52-.29,.82-.37,.22-.06,.56-.12,1.02-.17,.92-.11,1.6-.24,2.04-.39,0-.16,0-.26,0-.3,0-.47-.11-.79-.32-.98-.29-.26-.73-.39-1.3-.39-.54,0-.93,.09-1.19,.28-.26,.19-.45,.52-.57,1l-1.12-.15c.1-.48,.27-.86,.5-1.16,.23-.29,.57-.52,1.01-.68,.44-.16,.95-.24,1.53-.24s1.04,.07,1.4,.2c.36,.14,.62,.31,.79,.51,.17,.21,.29,.46,.36,.78,.04,.2,.06,.55,.06,1.05v1.52c0,1.06,.02,1.73,.07,2.01,.05,.28,.15,.55,.29,.81h-1.19c-.12-.24-.19-.51-.23-.83Zm-.09-2.55c-.42,.17-1.04,.31-1.87,.43-.47,.07-.8,.14-1,.23-.19,.08-.34,.21-.45,.37-.11,.16-.16,.34-.16,.54,0,.3,.12,.56,.35,.76,.23,.2,.57,.3,1.01,.3s.83-.1,1.17-.29,.59-.46,.75-.79c.12-.26,.18-.64,.18-1.14v-.42Z" style="fill: #059799;"/>
        <path d="M140.22,296.91v-.85c-.43,.67-1.06,1-1.89,1-.54,0-1.03-.15-1.48-.44-.45-.3-.8-.71-1.05-1.24-.25-.53-.37-1.14-.37-1.83s.11-1.28,.34-1.83c.22-.55,.56-.97,1.01-1.26,.45-.29,.95-.44,1.5-.44,.41,0,.77,.09,1.09,.26,.32,.17,.58,.39,.77,.67v-3.34h1.14v9.31h-1.06Zm-3.61-3.36c0,.86,.18,1.51,.55,1.94,.36,.43,.79,.64,1.29,.64s.92-.2,1.27-.61c.35-.41,.52-1.03,.52-1.87,0-.92-.18-1.6-.53-2.03s-.79-.65-1.31-.65-.93,.21-1.27,.62c-.34,.42-.51,1.07-.51,1.96Z" style="fill: #059799;"/>
        <path d="M147.69,294.74l1.18,.15c-.19,.69-.53,1.23-1.03,1.61-.5,.38-1.15,.57-1.93,.57-.99,0-1.77-.3-2.35-.91-.58-.61-.87-1.46-.87-2.55s.29-2.01,.88-2.64,1.34-.94,2.27-.94,1.64,.31,2.21,.92c.57,.61,.86,1.48,.86,2.59,0,.07,0,.17,0,.3h-5.03c.04,.74,.25,1.31,.63,1.7,.38,.39,.85,.59,1.41,.59,.42,0,.78-.11,1.07-.33,.3-.22,.53-.57,.7-1.05Zm-3.75-1.85h3.76c-.05-.57-.19-.99-.43-1.28-.36-.44-.84-.66-1.42-.66-.53,0-.97,.18-1.32,.53-.36,.35-.55,.82-.59,1.41Z" style="fill: #059799;"/>
        <path d="M149.85,294.9l1.13-.18c.06,.45,.24,.8,.53,1.04,.29,.24,.7,.36,1.22,.36s.91-.11,1.17-.32,.38-.46,.38-.75c0-.26-.11-.46-.34-.61-.16-.1-.55-.23-1.17-.39-.84-.21-1.42-.39-1.74-.55-.32-.15-.57-.37-.74-.64-.17-.27-.25-.57-.25-.9,0-.3,.07-.58,.21-.83,.14-.26,.32-.47,.56-.64,.18-.13,.42-.24,.73-.33s.64-.14,.99-.14c.53,0,.99,.08,1.39,.23,.4,.15,.69,.36,.88,.62,.19,.26,.32,.61,.39,1.04l-1.12,.15c-.05-.35-.2-.62-.44-.81-.24-.19-.59-.29-1.03-.29-.52,0-.9,.09-1.12,.26-.22,.17-.34,.38-.34,.61,0,.15,.05,.28,.14,.4,.09,.12,.24,.22,.44,.3,.11,.04,.45,.14,1.01,.29,.81,.22,1.37,.39,1.69,.53,.32,.14,.57,.34,.75,.6,.18,.26,.27,.59,.27,.98s-.11,.74-.33,1.08c-.22,.34-.54,.6-.96,.78-.42,.18-.89,.28-1.42,.28-.88,0-1.54-.18-2-.55-.46-.36-.75-.9-.88-1.62Z" style="fill: #059799;"/>
        <path d="M156.81,296.91v-9.31h1.14v3.34c.53-.62,1.21-.93,2.02-.93,.5,0,.93,.1,1.3,.29,.37,.2,.63,.47,.79,.82,.16,.35,.24,.85,.24,1.51v4.27h-1.14v-4.27c0-.57-.12-.99-.37-1.25-.25-.26-.6-.39-1.05-.39-.34,0-.66,.09-.96,.26-.3,.18-.51,.41-.64,.71-.13,.3-.19,.71-.19,1.24v3.69h-1.14Z" style="fill: #059799;"/>
      </g>
    </g>
    <g>
      <line x1="171.18" y1="138.57" x2="281.18" y2="104.65" style="fill: none; stroke: #ac2c5a; stroke-width: 2px;"/>
      <circle cx="171.18" cy="138.57" r="5" style="fill: #ac2c5a; stroke: #f9ffff;"/>
      <circle cx="281.18" cy="104.65" r="5" style="fill: #ac2c5a; stroke: #f9ffff;"/>
      <g style="isolation: isolate;">
        <path d="M122.99,138.57v-9.31h1.26l4.89,7.31v-7.31h1.18v9.31h-1.26l-4.89-7.31v7.31h-1.18Z" style="fill: #ac2c5a;"/>
        <path d="M132.25,130.58v-1.31h1.14v1.31h-1.14Zm0,7.99v-6.74h1.14v6.74h-1.14Z" style="fill: #ac2c5a;"/>
        <path d="M134.92,139.13l1.11,.17c.05,.34,.18,.59,.39,.75,.28,.21,.67,.32,1.16,.32,.53,0,.94-.11,1.22-.32,.29-.21,.48-.51,.58-.89,.06-.23,.09-.72,.08-1.47-.5,.59-1.12,.88-1.87,.88-.93,0-1.64-.33-2.15-1s-.76-1.47-.76-2.41c0-.64,.12-1.24,.35-1.78,.23-.54,.57-.96,1.01-1.26,.44-.3,.96-.44,1.56-.44,.8,0,1.45,.32,1.97,.96v-.81h1.05v5.83c0,1.05-.11,1.79-.32,2.23-.21,.44-.55,.78-1.02,1.04-.46,.25-1.03,.38-1.71,.38-.8,0-1.45-.18-1.95-.54-.5-.36-.73-.91-.72-1.63Zm.95-4.05c0,.88,.18,1.53,.53,1.94,.35,.41,.79,.61,1.32,.61s.96-.2,1.32-.61,.53-1.04,.53-1.9-.18-1.45-.55-1.87-.81-.63-1.32-.63-.94,.21-1.29,.62c-.36,.41-.53,1.03-.53,1.84Z" style="fill: #ac2c5a;"/>
        <path d="M146.97,136.4l1.18,.15c-.19,.69-.53,1.23-1.04,1.61-.5,.38-1.15,.57-1.93,.57-.99,0-1.77-.3-2.34-.91-.58-.61-.87-1.46-.87-2.55s.29-2.01,.88-2.64,1.34-.94,2.27-.94,1.64,.31,2.21,.92c.57,.61,.86,1.48,.86,2.59,0,.07,0,.17,0,.3h-5.03c.04,.74,.25,1.31,.63,1.7,.38,.39,.85,.59,1.41,.59,.42,0,.78-.11,1.07-.33,.3-.22,.53-.57,.71-1.05Zm-3.75-1.85h3.76c-.05-.57-.2-.99-.43-1.28-.36-.44-.84-.66-1.42-.66-.52,0-.97,.18-1.32,.53-.36,.35-.56,.82-.59,1.41Z" style="fill: #ac2c5a;"/>
        <path d="M149.58,138.57v-6.74h1.03v1.02c.26-.48,.5-.79,.73-.95,.22-.15,.47-.23,.73-.23,.38,0,.78,.12,1.17,.37l-.39,1.06c-.28-.17-.56-.25-.84-.25-.25,0-.47,.08-.67,.23-.2,.15-.34,.36-.42,.62-.13,.41-.19,.85-.19,1.33v3.53h-1.14Z" style="fill: #ac2c5a;"/>
        <path d="M153.92,130.58v-1.31h1.14v1.31h-1.14Zm0,7.99v-6.74h1.14v6.74h-1.14Z" style="fill: #ac2c5a;"/>
        <path d="M161.21,137.74c-.42,.36-.83,.61-1.22,.76-.39,.15-.81,.22-1.26,.22-.74,0-1.31-.18-1.71-.54-.4-.36-.6-.82-.6-1.39,0-.33,.08-.63,.23-.9,.15-.27,.35-.49,.59-.66s.52-.29,.82-.37c.22-.06,.56-.12,1.02-.17,.92-.11,1.6-.24,2.04-.39,0-.16,0-.26,0-.3,0-.47-.11-.79-.32-.98-.29-.26-.73-.39-1.3-.39-.54,0-.93,.09-1.19,.28s-.45,.52-.57,1l-1.12-.15c.1-.48,.27-.86,.5-1.16,.23-.29,.57-.52,1.01-.68,.44-.16,.95-.24,1.53-.24s1.04,.07,1.4,.2c.36,.14,.62,.31,.79,.51,.17,.21,.29,.46,.36,.78,.04,.2,.06,.55,.06,1.05v1.52c0,1.06,.02,1.73,.07,2.01s.14,.55,.29,.81h-1.19c-.12-.24-.2-.51-.23-.83Zm-.1-2.55c-.41,.17-1.04,.31-1.87,.43-.47,.07-.8,.14-1,.23-.2,.08-.34,.21-.45,.37-.11,.16-.16,.34-.16,.54,0,.3,.12,.56,.35,.76s.57,.3,1.01,.3,.83-.1,1.17-.29,.59-.46,.76-.79c.12-.26,.18-.64,.18-1.14v-.42Z" style="fill: #ac2c5a;"/>
      </g>
    </g>
    <g>
      <line x1="171.18" y1="94.24" x2="281.18" y2="55.36" style="fill: none; stroke: #ac2c5a; stroke-width: 2px;"/>
      <circle cx="171.18" cy="94.24" r="5" style="fill: #ac2c5a; stroke: #f9ffff;"/>
      <circle cx="281.18" cy="55.36" r="5" style="fill: #ac2c5a; stroke: #f9ffff;"/>
      <g style="isolation: isolate;">
        <path d="M139.74,90.97l1.23,.31c-.26,1.01-.72,1.78-1.39,2.31-.67,.53-1.49,.8-2.46,.8s-1.82-.2-2.45-.61c-.63-.41-1.11-1-1.43-1.77-.33-.77-.49-1.61-.49-2.49,0-.97,.19-1.81,.56-2.54s.9-1.27,1.58-1.64c.68-.38,1.44-.56,2.26-.56,.93,0,1.71,.24,2.35,.71,.63,.47,1.08,1.14,1.33,2l-1.21,.29c-.22-.68-.53-1.17-.94-1.48-.41-.31-.93-.46-1.55-.46-.71,0-1.31,.17-1.79,.51s-.82,.8-1.01,1.38c-.19,.58-.29,1.17-.29,1.79,0,.79,.12,1.48,.35,2.07,.23,.59,.59,1.03,1.08,1.32,.49,.29,1.01,.44,1.58,.44,.69,0,1.27-.2,1.75-.6,.48-.4,.8-.99,.97-1.77Z" style="fill: #ac2c5a;"/>
        <path d="M142.35,94.24v-9.31h1.14v3.34c.53-.62,1.21-.93,2.02-.93,.5,0,.93,.1,1.3,.29,.37,.2,.63,.47,.79,.82,.16,.35,.24,.85,.24,1.51v4.27h-1.14v-4.27c0-.57-.12-.99-.37-1.25-.25-.26-.6-.39-1.05-.39-.34,0-.66,.09-.96,.26-.3,.18-.51,.41-.64,.71-.13,.3-.19,.71-.19,1.24v3.69h-1.14Z" style="fill: #ac2c5a;"/>
        <path d="M153.98,93.4c-.42,.36-.83,.61-1.22,.76-.39,.15-.81,.22-1.26,.22-.74,0-1.31-.18-1.71-.54-.4-.36-.6-.82-.6-1.39,0-.33,.08-.63,.23-.9,.15-.27,.35-.49,.59-.66,.24-.17,.52-.29,.82-.37,.22-.06,.56-.12,1.02-.17,.92-.11,1.6-.24,2.04-.39,0-.16,0-.26,0-.3,0-.47-.11-.79-.32-.98-.29-.26-.73-.39-1.3-.39-.54,0-.93,.09-1.19,.28-.26,.19-.45,.52-.57,1l-1.12-.15c.1-.48,.27-.86,.5-1.16,.23-.29,.57-.52,1.01-.68,.44-.16,.95-.24,1.53-.24s1.04,.07,1.4,.2c.36,.14,.62,.31,.79,.51,.17,.21,.29,.46,.36,.78,.04,.2,.06,.55,.06,1.05v1.52c0,1.06,.02,1.73,.07,2.01,.05,.28,.15,.55,.29,.81h-1.19c-.12-.24-.19-.51-.23-.83Zm-.09-2.55c-.42,.17-1.04,.31-1.87,.43-.47,.07-.8,.14-1,.23-.19,.08-.34,.21-.45,.37-.11,.16-.16,.34-.16,.54,0,.3,.12,.56,.35,.76,.23,.2,.57,.3,1.01,.3s.83-.1,1.17-.29,.59-.46,.75-.79c.12-.26,.18-.64,.18-1.14v-.42Z" style="fill: #ac2c5a;"/>
        <path d="M161.18,94.24v-.85c-.43,.67-1.06,1-1.89,1-.54,0-1.03-.15-1.48-.44-.45-.3-.8-.71-1.05-1.24-.25-.53-.37-1.14-.37-1.83s.11-1.28,.34-1.83c.22-.55,.56-.97,1.01-1.26,.45-.29,.95-.44,1.5-.44,.41,0,.77,.09,1.09,.26,.32,.17,.58,.39,.77,.67v-3.34h1.14v9.31h-1.06Zm-3.61-3.36c0,.86,.18,1.51,.55,1.94,.36,.43,.79,.64,1.29,.64s.92-.2,1.27-.61c.35-.41,.52-1.03,.52-1.87,0-.92-.18-1.6-.53-2.03s-.79-.65-1.31-.65-.93,.21-1.27,.62c-.34,.42-.51,1.07-.51,1.96Z" style="fill: #ac2c5a;"/>
      </g>
    </g>
    <g>
      <line x1="171.18" y1="351.11" x2="281.18" y2="345.27" style="fill: none; stroke: #ac2c5a; stroke-width: 2px;"/>
      <circle cx="171.18" cy="351.11" r="5" style="fill: #ac2c5a; stroke: #f9ffff;"/>
      <circle cx="281.18" cy="345.27" r="5" style="fill: #ac2c5a; stroke: #f9ffff;"/>
      <g style="isolation: isolate;">
        <path d="M122.69,351.11l3.57-9.31h1.33l3.81,9.31h-1.4l-1.09-2.82h-3.89l-1.02,2.82h-1.31Zm2.69-3.82h3.15l-.97-2.58c-.3-.78-.52-1.43-.66-1.93-.12,.6-.29,1.19-.5,1.78l-1.02,2.73Z" style="fill: #ac2c5a;"/>
        <path d="M132.22,351.11v-9.31h1.14v9.31h-1.14Z" style="fill: #ac2c5a;"/>
        <path d="M134.92,351.66l1.11,.17c.05,.34,.18,.59,.39,.75,.28,.21,.67,.32,1.16,.32,.53,0,.94-.11,1.22-.32,.29-.21,.48-.51,.58-.89,.06-.23,.09-.72,.08-1.47-.5,.59-1.12,.88-1.87,.88-.93,0-1.64-.33-2.15-1s-.76-1.47-.76-2.41c0-.64,.12-1.24,.35-1.78,.23-.54,.57-.96,1.01-1.26,.44-.3,.96-.44,1.56-.44,.8,0,1.45,.32,1.97,.96v-.81h1.05v5.83c0,1.05-.11,1.79-.32,2.23-.21,.44-.55,.78-1.02,1.04-.46,.25-1.03,.38-1.71,.38-.8,0-1.45-.18-1.95-.54-.5-.36-.73-.91-.72-1.63Zm.95-4.05c0,.88,.18,1.53,.53,1.94,.35,.41,.79,.61,1.32,.61s.96-.2,1.32-.61,.53-1.04,.53-1.9-.18-1.45-.55-1.87-.81-.63-1.32-.63-.94,.21-1.29,.62c-.36,.41-.53,1.03-.53,1.84Z" style="fill: #ac2c5a;"/>
        <path d="M146.97,348.94l1.18,.15c-.19,.69-.53,1.23-1.04,1.61-.5,.38-1.15,.57-1.93,.57-.99,0-1.77-.3-2.34-.91-.58-.61-.87-1.46-.87-2.55s.29-2.01,.88-2.64,1.34-.94,2.27-.94,1.64,.31,2.21,.92c.57,.61,.86,1.48,.86,2.59,0,.07,0,.17,0,.3h-5.03c.04,.74,.25,1.31,.63,1.7,.38,.39,.85,.59,1.41,.59,.42,0,.78-.11,1.07-.33,.3-.22,.53-.57,.71-1.05Zm-3.75-1.85h3.76c-.05-.57-.2-.99-.43-1.28-.36-.44-.84-.66-1.42-.66-.52,0-.97,.18-1.32,.53-.36,.35-.56,.82-.59,1.41Z" style="fill: #ac2c5a;"/>
        <path d="M149.58,351.11v-6.74h1.03v1.02c.26-.48,.5-.79,.73-.95,.22-.15,.47-.23,.73-.23,.38,0,.78,.12,1.17,.37l-.39,1.06c-.28-.17-.56-.25-.84-.25-.25,0-.47,.08-.67,.23-.2,.15-.34,.36-.42,.62-.13,.41-.19,.85-.19,1.33v3.53h-1.14Z" style="fill: #ac2c5a;"/>
        <path d="M153.92,343.11v-1.31h1.14v1.31h-1.14Zm0,7.99v-6.74h1.14v6.74h-1.14Z" style="fill: #ac2c5a;"/>
        <path d="M161.21,350.27c-.42,.36-.83,.61-1.22,.76-.39,.15-.81,.22-1.26,.22-.74,0-1.31-.18-1.71-.54-.4-.36-.6-.82-.6-1.39,0-.33,.08-.63,.23-.9,.15-.27,.35-.49,.59-.66s.52-.29,.82-.37c.22-.06,.56-.12,1.02-.17,.92-.11,1.6-.24,2.04-.39,0-.16,0-.26,0-.3,0-.47-.11-.79-.32-.98-.29-.26-.73-.39-1.3-.39-.54,0-.93,.09-1.19,.28s-.45,.52-.57,1l-1.12-.15c.1-.48,.27-.86,.5-1.16,.23-.29,.57-.52,1.01-.68,.44-.16,.95-.24,1.53-.24s1.04,.07,1.4,.2c.36,.14,.62,.31,.79,.51,.17,.21,.29,.46,.36,.78,.04,.2,.06,.55,.06,1.05v1.52c0,1.06,.02,1.73,.07,2.01s.14,.55,.29,.81h-1.19c-.12-.24-.2-.51-.23-.83Zm-.1-2.55c-.41,.17-1.04,.31-1.87,.43-.47,.07-.8,.14-1,.23-.2,.08-.34,.21-.45,.37-.11,.16-.16,.34-.16,.54,0,.3,.12,.56,.35,.76s.57,.3,1.01,.3,.83-.1,1.17-.29,.59-.46,.76-.79c.12-.26,.18-.64,.18-1.14v-.42Z" style="fill: #ac2c5a;"/>
      </g>
    </g>
    <g>
      <line x1="171.18" y1="366.3" x2="281.18" y2="358.93" style="fill: none; stroke: #ac2c5a; stroke-width: 2px;"/>
      <circle cx="171.18" cy="366.3" r="5" style="fill: #ac2c5a; stroke: #f9ffff;"/>
      <circle cx="281.18" cy="358.93" r="5" style="fill: #ac2c5a; stroke: #f9ffff;"/>
      <g style="isolation: isolate;">
        <path d="M141.99,366.3v-9.31h1.23v9.31h-1.23Z" style="fill: #ac2c5a;"/>
        <path d="M145.24,366.3v-6.74h1.03v1.02c.26-.48,.5-.79,.73-.95,.22-.15,.47-.23,.73-.23,.38,0,.78,.12,1.17,.37l-.39,1.06c-.28-.17-.56-.25-.84-.25-.25,0-.47,.08-.67,.23-.2,.15-.34,.36-.42,.62-.13,.41-.19,.85-.19,1.33v3.53h-1.14Z" style="fill: #ac2c5a;"/>
        <path d="M153.98,365.47c-.42,.36-.83,.61-1.22,.76-.39,.15-.81,.22-1.26,.22-.74,0-1.31-.18-1.71-.54-.4-.36-.6-.82-.6-1.39,0-.33,.08-.63,.23-.9,.15-.27,.35-.49,.59-.66,.24-.17,.52-.29,.82-.37,.22-.06,.56-.12,1.02-.17,.92-.11,1.6-.24,2.04-.39,0-.16,0-.26,0-.3,0-.47-.11-.79-.32-.98-.29-.26-.73-.39-1.3-.39-.54,0-.93,.09-1.19,.28-.26,.19-.45,.52-.57,1l-1.12-.15c.1-.48,.27-.86,.5-1.16,.23-.29,.57-.52,1.01-.68,.44-.16,.95-.24,1.53-.24s1.04,.07,1.4,.2c.36,.14,.62,.31,.79,.51,.17,.21,.29,.46,.36,.78,.04,.2,.06,.55,.06,1.05v1.52c0,1.06,.02,1.73,.07,2.01,.05,.28,.15,.55,.29,.81h-1.19c-.12-.24-.19-.51-.23-.83Zm-.09-2.55c-.42,.17-1.04,.31-1.87,.43-.47,.07-.8,.14-1,.23-.19,.08-.34,.21-.45,.37-.11,.16-.16,.34-.16,.54,0,.3,.12,.56,.35,.76,.23,.2,.57,.3,1.01,.3s.83-.1,1.17-.29,.59-.46,.75-.79c.12-.26,.18-.64,.18-1.14v-.42Z" style="fill: #ac2c5a;"/>
        <path d="M161.1,368.88v-3.3c-.18,.25-.43,.46-.75,.62-.32,.17-.66,.25-1.02,.25-.8,0-1.49-.32-2.07-.96-.58-.64-.87-1.51-.87-2.63,0-.68,.12-1.29,.35-1.82,.23-.54,.58-.94,1.02-1.22s.94-.42,1.47-.42c.83,0,1.49,.35,1.97,1.05v-.9h1.03v9.33h-1.14Zm-3.52-5.97c0,.87,.18,1.52,.55,1.95,.36,.43,.8,.65,1.31,.65s.91-.21,1.26-.62c.35-.41,.53-1.04,.53-1.88,0-.9-.19-1.57-.56-2.02-.37-.45-.8-.68-1.3-.68s-.92,.21-1.26,.63-.52,1.08-.52,1.97Z" style="fill: #ac2c5a;"/>
      </g>
    </g>
    <g>
      <line x1="171.18" y1="377.97" x2="281.18" y2="376.49" style="fill: none; stroke: #ac2c5a; stroke-width: 2px;"/>
      <circle cx="171.18" cy="377.97" r="5" style="fill: #ac2c5a; stroke: #f9ffff;"/>
      <circle cx="281.18" cy="376.49" r="5" style="fill: #ac2c5a; stroke: #f9ffff;"/>
      <g style="isolation: isolate;">
        <path d="M92.25,368.67h1.23v5.38c0,.94-.11,1.68-.32,2.23-.21,.55-.59,1-1.15,1.34-.55,.34-1.28,.52-2.17,.52s-1.58-.15-2.14-.45c-.55-.3-.95-.74-1.19-1.3-.24-.57-.36-1.35-.36-2.33v-5.38h1.23v5.37c0,.81,.08,1.4,.23,1.79s.41,.68,.77,.88c.37,.21,.81,.31,1.34,.31,.91,0,1.55-.21,1.94-.62,.39-.41,.58-1.2,.58-2.37v-5.37Z" style="fill: #ac2c5a;"/>
        <path d="M95.38,377.97v-6.74h1.03v.96c.5-.74,1.21-1.11,2.15-1.11,.41,0,.78,.07,1.12,.22,.34,.15,.6,.34,.76,.58,.17,.24,.29,.52,.36,.84,.04,.21,.06,.58,.06,1.11v4.14h-1.14v-4.1c0-.47-.04-.81-.13-1.04s-.25-.42-.47-.55c-.23-.14-.49-.21-.8-.21-.49,0-.91,.15-1.26,.46-.35,.31-.53,.89-.53,1.76v3.68h-1.14Z" style="fill: #ac2c5a;"/>
        <path d="M102.62,369.98v-1.31h1.14v1.31h-1.14Zm0,7.99v-6.74h1.14v6.74h-1.14Z" style="fill: #ac2c5a;"/>
        <path d="M107.99,376.95l.17,1.01c-.32,.07-.61,.1-.86,.1-.41,0-.74-.07-.96-.2-.23-.13-.39-.3-.48-.52-.09-.21-.14-.66-.14-1.35v-3.88h-.84v-.89h.84v-1.67l1.14-.69v2.35h1.15v.89h-1.15v3.94c0,.33,.02,.54,.06,.63,.04,.09,.11,.17,.2,.22,.09,.06,.22,.08,.39,.08,.13,0,.29-.01,.5-.04Z" style="fill: #ac2c5a;"/>
        <path d="M113.73,375.8l1.18,.15c-.19,.69-.53,1.23-1.04,1.61-.5,.38-1.15,.57-1.93,.57-.99,0-1.77-.3-2.34-.91-.58-.61-.87-1.46-.87-2.55s.29-2.01,.88-2.64,1.34-.94,2.27-.94,1.64,.31,2.21,.92c.57,.61,.86,1.48,.86,2.59,0,.07,0,.17,0,.3h-5.03c.04,.74,.25,1.31,.63,1.7,.38,.39,.85,.59,1.41,.59,.42,0,.78-.11,1.07-.33,.3-.22,.53-.57,.71-1.05Zm-3.75-1.85h3.76c-.05-.57-.2-.99-.43-1.28-.36-.44-.84-.66-1.42-.66-.52,0-.97,.18-1.32,.53-.36,.35-.56,.82-.59,1.41Z" style="fill: #ac2c5a;"/>
        <path d="M120.71,377.97v-.85c-.43,.67-1.06,1-1.88,1-.54,0-1.03-.15-1.48-.44-.45-.3-.8-.71-1.05-1.24-.25-.53-.37-1.14-.37-1.83s.11-1.28,.34-1.83c.22-.55,.56-.97,1.01-1.26,.45-.29,.95-.44,1.5-.44,.41,0,.77,.09,1.08,.26,.32,.17,.58,.39,.77,.67v-3.34h1.14v9.31h-1.06Zm-3.61-3.36c0,.86,.18,1.51,.55,1.94,.36,.43,.79,.64,1.29,.64s.92-.2,1.27-.61c.35-.41,.52-1.03,.52-1.87,0-.92-.18-1.6-.53-2.03s-.79-.65-1.31-.65-.93,.21-1.27,.62c-.34,.42-.51,1.07-.51,1.96Z" style="fill: #ac2c5a;"/>
        <path d="M126.91,374.98l1.16-.1c.05,.47,.18,.85,.38,1.15,.2,.3,.51,.54,.94,.72,.42,.18,.9,.28,1.43,.28,.47,0,.88-.07,1.24-.21,.36-.14,.63-.33,.8-.57,.18-.24,.26-.51,.26-.8s-.08-.55-.25-.76c-.17-.22-.45-.4-.84-.55-.25-.1-.8-.25-1.66-.45-.86-.21-1.45-.4-1.8-.58-.44-.23-.78-.52-.99-.87s-.33-.73-.33-1.16c0-.47,.13-.91,.4-1.32s.66-.72,1.17-.93c.51-.21,1.08-.32,1.71-.32,.69,0,1.3,.11,1.83,.33,.53,.22,.93,.55,1.22,.98,.28,.43,.44,.92,.46,1.47l-1.18,.09c-.06-.59-.28-1.03-.64-1.33-.37-.3-.91-.45-1.62-.45s-1.29,.14-1.63,.41c-.34,.27-.51,.6-.51,.99,0,.33,.12,.61,.36,.83,.24,.22,.86,.44,1.86,.66,1,.23,1.69,.42,2.06,.59,.54,.25,.94,.57,1.2,.95,.26,.38,.39,.82,.39,1.32s-.14,.96-.43,1.4c-.28,.44-.69,.78-1.22,1.02s-1.13,.36-1.79,.36c-.84,0-1.55-.12-2.12-.37-.57-.25-1.02-.62-1.34-1.11-.32-.49-.49-1.05-.51-1.67Z" style="fill: #ac2c5a;"/>
        <path d="M138.35,376.95l.17,1.01c-.32,.07-.61,.1-.86,.1-.41,0-.74-.07-.96-.2-.23-.13-.39-.3-.48-.52-.09-.21-.14-.66-.14-1.35v-3.88h-.84v-.89h.84v-1.67l1.14-.69v2.35h1.15v.89h-1.15v3.94c0,.33,.02,.54,.06,.63,.04,.09,.11,.17,.2,.22,.09,.06,.22,.08,.39,.08,.13,0,.29-.01,.5-.04Z" style="fill: #ac2c5a;"/>
        <path d="M143.86,377.14c-.42,.36-.83,.61-1.22,.76-.39,.15-.81,.22-1.26,.22-.74,0-1.31-.18-1.71-.54-.4-.36-.6-.82-.6-1.39,0-.33,.08-.63,.23-.9,.15-.27,.35-.49,.59-.66s.52-.29,.82-.37c.22-.06,.56-.12,1.02-.17,.92-.11,1.6-.24,2.04-.39,0-.16,0-.26,0-.3,0-.47-.11-.79-.32-.98-.29-.26-.73-.39-1.3-.39-.54,0-.93,.09-1.19,.28s-.45,.52-.57,1l-1.12-.15c.1-.48,.27-.86,.5-1.16,.23-.29,.57-.52,1.01-.68,.44-.16,.95-.24,1.53-.24s1.04,.07,1.4,.2c.36,.14,.62,.31,.79,.51,.17,.21,.29,.46,.36,.78,.04,.2,.06,.55,.06,1.05v1.52c0,1.06,.02,1.73,.07,2.01s.14,.55,.29,.81h-1.19c-.12-.24-.2-.51-.23-.83Zm-.1-2.55c-.41,.17-1.04,.31-1.87,.43-.47,.07-.8,.14-1,.23-.2,.08-.34,.21-.45,.37-.11,.16-.16,.34-.16,.54,0,.3,.12,.56,.35,.76s.57,.3,1.01,.3,.83-.1,1.17-.29,.59-.46,.76-.79c.12-.26,.18-.64,.18-1.14v-.42Z" style="fill: #ac2c5a;"/>
        <path d="M149.19,376.95l.17,1.01c-.32,.07-.61,.1-.86,.1-.41,0-.74-.07-.96-.2-.23-.13-.39-.3-.48-.52-.09-.21-.14-.66-.14-1.35v-3.88h-.84v-.89h.84v-1.67l1.14-.69v2.35h1.15v.89h-1.15v3.94c0,.33,.02,.54,.06,.63,.04,.09,.11,.17,.2,.22,.09,.06,.22,.08,.39,.08,.13,0,.29-.01,.5-.04Z" style="fill: #ac2c5a;"/>
        <path d="M154.92,375.8l1.18,.15c-.19,.69-.53,1.23-1.04,1.61-.5,.38-1.15,.57-1.93,.57-.99,0-1.77-.3-2.34-.91-.58-.61-.87-1.46-.87-2.55s.29-2.01,.88-2.64,1.34-.94,2.27-.94,1.64,.31,2.21,.92c.57,.61,.86,1.48,.86,2.59,0,.07,0,.17,0,.3h-5.03c.04,.74,.25,1.31,.63,1.7,.38,.39,.85,.59,1.41,.59,.42,0,.78-.11,1.07-.33,.3-.22,.53-.57,.71-1.05Zm-3.75-1.85h3.76c-.05-.57-.2-.99-.43-1.28-.36-.44-.84-.66-1.42-.66-.52,0-.97,.18-1.32,.53-.36,.35-.56,.82-.59,1.41Z" style="fill: #ac2c5a;"/>
        <path d="M157.08,375.96l1.13-.18c.06,.45,.24,.8,.53,1.04,.29,.24,.7,.36,1.22,.36s.91-.11,1.17-.32,.38-.46,.38-.75c0-.26-.11-.46-.34-.61-.16-.1-.55-.23-1.17-.39-.84-.21-1.42-.39-1.74-.55-.32-.15-.57-.37-.74-.64-.17-.27-.25-.57-.25-.9,0-.3,.07-.58,.21-.83s.33-.47,.56-.64c.18-.13,.42-.24,.73-.33,.31-.09,.64-.14,.99-.14,.53,0,.99,.08,1.39,.23,.4,.15,.7,.36,.89,.62,.19,.26,.32,.61,.39,1.04l-1.12,.15c-.05-.35-.2-.62-.44-.81s-.59-.29-1.03-.29c-.53,0-.9,.09-1.12,.26-.22,.17-.34,.38-.34,.61,0,.15,.05,.28,.14,.4,.09,.12,.24,.22,.44,.3,.11,.04,.45,.14,1.01,.29,.81,.22,1.37,.39,1.69,.53s.57,.34,.75,.6c.18,.26,.27,.59,.27,.98s-.11,.74-.33,1.08c-.22,.34-.54,.6-.96,.78-.42,.18-.89,.28-1.42,.28-.88,0-1.54-.18-2-.55s-.75-.9-.88-1.62Z" style="fill: #ac2c5a;"/>
      </g>
    </g>
  </g>
  <g style="opacity: 0;">
    <rect x="153.18" y="27.56" width="36" height="20" rx="2" ry="2" style="fill: #059799;"/>
  </g>
</svg>